<?xml version="1.0" standalone="no"?>
<!DOCTYPE svg PUBLIC "-//W3C//DTD SVG 1.1//EN" "http://www.w3.org/Graphics/SVG/1.1/DTD/svg11.dtd" >
<svg xmlns="http://www.w3.org/2000/svg" xmlns:xlink="http://www.w3.org/1999/xlink" version="1.1">
<metadata>
Created by FontForge 20191125 at Tue Feb 24 04:55:15 2009
 By convertio
(c) 2001-2009 Ray Larabie. See attached license agreement for more information. If EULA is missing, visit www.larabiefonts.com for an updated version of this font. Latin A accents by Chikako Larabie 
</metadata>
<defs>
<font id="StrenuousBl-Regular" horiz-adv-x="700" >
  <font-face 
    font-family="Strenuous Bl"
    font-weight="900"
    font-stretch="normal"
    units-per-em="1000"
    panose-1="2 11 10 6 3 0 0 2 0 4"
    ascent="800"
    descent="-200"
    x-height="704"
    cap-height="704"
    bbox="-257 -239 1437 961"
    underline-thickness="20"
    underline-position="-143"
    unicode-range="U+0017-F8FF"
  />
<missing-glyph horiz-adv-x="410" 
d="M334 519q0 35 -42 35h-175q-42 0 -42 -35v-443q0 -35 42 -35h175q42 0 42 35v443zM117 0q-88 0 -88 76v443q0 77 88 77h175q89 0 89 -77v-443q0 -76 -89 -76h-175z" />
    <glyph glyph-name="copyright" unicode="&#x28;C&#x29;" horiz-adv-x="782" 
d="M433 377q-8 35 -39 35q-19 0 -30 -15t-11 -44q0 -28 11.5 -43t29.5 -15q13 0 24 8.5t14 24.5h100q-8 -60 -41 -94t-97 -34q-30 0 -56.5 10t-46 29.5t-31 48t-11.5 65.5q0 35 11 63.5t30.5 48.5t46 30.5t57.5 10.5q65 0 99.5 -34t38.5 -95h-99zM656 351q0 56 -21 104.5
t-57 84t-84.5 56t-103.5 20.5q-54 0 -102.5 -20.5t-84.5 -56t-57 -84t-21 -104.5q0 -54 21 -102.5t57 -84.5t84.5 -57t102.5 -21q55 0 103.5 21t84.5 57t57 84.5t21 102.5zM757 351q0 -75 -29 -141.5t-78.5 -116.5t-116.5 -79t-143 -29q-75 0 -142 29t-116.5 79t-78.5 116.5
t-29 141.5q0 76 29 143t78.5 116.5t116.5 78.5t142 29q76 0 143 -29t116.5 -78.5t78.5 -116.5t29 -143z" />
    <glyph glyph-name="registered" unicode="&#x28;R&#x29;" horiz-adv-x="442" 
d="M426 515q0 -43 -16.5 -80t-44.5 -64.5t-65 -43.5t-78 -16q-42 0 -79 16t-64.5 43.5t-43.5 64.5t-16 80q0 42 16 79t43.5 64t64.5 43t79 16q41 0 78 -16t65 -43t44.5 -64t16.5 -79zM222 353q33 0 62.5 12.5t51.5 34.5t34.5 51.5t12.5 63.5q0 33 -12.5 62t-34.5 51
t-51.5 34.5t-62.5 12.5t-62.5 -12.5t-51.5 -34.5t-34.5 -51t-12.5 -62q0 -34 12.5 -63.5t34.5 -51.5t51.5 -34.5t62.5 -12.5zM281 406l-55 64h-47v-64h-43v221h100q37 0 57 -17t20 -59q0 -53 -39 -72l60 -73h-53zM236 513q34 0 34 38q0 18 -9 25t-25 7h-57v-70h57z" />
    <glyph glyph-name="uni2117" unicode="&#x28;P&#x29;" horiz-adv-x="782" 
d="M413 343q16 0 26.5 11t10.5 27q0 17 -10.5 27t-26.5 10h-19v-75h19zM278 184v341h135q30 0 56.5 -10.5t46.5 -29.5t31.5 -44.5t11.5 -55.5t-11.5 -56t-31.5 -45t-46.5 -29.5t-56.5 -10.5h-19v-60h-116zM656 351q0 56 -21 104.5t-57 84t-84.5 56t-103.5 20.5
q-54 0 -102.5 -20.5t-84.5 -56t-57 -84t-21 -104.5q0 -54 21 -102.5t57 -84.5t84.5 -57t102.5 -21q55 0 103.5 21t84.5 57t57 84.5t21 102.5zM757 351q0 -75 -29 -141.5t-78.5 -116.5t-116.5 -79t-143 -29q-75 0 -142 29t-116.5 79t-78.5 116.5t-29 141.5q0 76 29 143
t78.5 116.5t116.5 78.5t142 29q76 0 143 -29t116.5 -78.5t78.5 -116.5t29 -143z" />
    <glyph glyph-name=".notdef" horiz-adv-x="410" 
d="M334 519q0 35 -42 35h-175q-42 0 -42 -35v-443q0 -35 42 -35h175q42 0 42 35v443zM117 0q-88 0 -88 76v443q0 77 88 77h175q89 0 89 -77v-443q0 -76 -89 -76h-175z" />
    <glyph glyph-name="uni0017" horiz-adv-x="209" 
 />
    <glyph glyph-name="space" unicode=" " horiz-adv-x="209" 
 />
    <glyph glyph-name="exclam" unicode="!" horiz-adv-x="342" 
d="M92 276l-30 228v200h213v-199l-29 -229h-154zM172 -5q-29 0 -52.5 9.5t-40.5 26.5t-26.5 40.5t-9.5 50.5q0 28 9.5 51.5t26.5 40.5t40.5 26.5t52.5 9.5q25 0 47.5 -9.5t39.5 -26.5t27 -40.5t10 -51.5q0 -27 -10 -50.5t-27 -40.5t-39.5 -26.5t-47.5 -9.5z" />
    <glyph glyph-name="quotedbl" unicode="&#x22;" horiz-adv-x="488" 
d="M54 383l-21 321h179l-22 -321h-136zM298 383l-21 321h179l-22 -321h-136z" />
    <glyph glyph-name="numbersign" unicode="#" horiz-adv-x="612" 
d="M355 401h-95l-15 -98h96zM294 0l27 168h-98l-25 -168h-135l27 168h-62v135h83l13 98h-96v136h117l27 167h134l-26 -167h96l26 167h135l-27 -167h74v-136h-94l-14 -98h108v-135h-129l-25 -168h-136z" />
    <glyph glyph-name="dollar" unicode="$" horiz-adv-x="661" 
d="M229 0v40h-195v185h260q54 0 54 40q0 22 -13.5 31t-40.5 9h-89q-92 0 -129.5 43t-37.5 120q0 52 11.5 87.5t35 57.5t59.5 32.5t85 12.5v46h199v-46h160v-179h-246q-41 0 -41 -36q0 -43 49 -43h87q92 0 135 -45t43 -132q0 -41 -16 -74t-42.5 -56.5t-60 -37t-68.5 -15.5
v-40h-199z" />
    <glyph glyph-name="percent" unicode="%" horiz-adv-x="811" 
d="M168 469q37 0 37 70q0 34 -8 52t-29 18q-19 0 -27.5 -19t-8.5 -51q0 -70 36 -70zM168 356q-75 0 -116.5 49t-41.5 134t41 133.5t117 48.5q78 0 118 -48.5t40 -133.5t-40 -134t-118 -49zM18 -36l639 776h138l-641 -776h-136zM644 96q37 0 37 70q0 34 -8 52t-29 18
q-19 0 -27.5 -19t-8.5 -51q0 -70 36 -70zM644 -17q-75 0 -116.5 49t-41.5 134t41 133.5t117 48.5q78 0 118 -48.5t40 -133.5t-40 -134t-118 -49z" />
    <glyph glyph-name="ampersand" unicode="&#x26;" horiz-adv-x="539" 
d="M365 297h-66q-47 0 -47 -37q0 -35 47 -35h66v72zM271 0q-72 0 -120.5 17.5t-77.5 47t-41.5 68.5t-12.5 82q0 45 8 73.5t20 46.5t27 27t29 14q-14 7 -27.5 17t-24.5 26t-18 38.5t-7 54.5q0 28 9.5 61.5t33.5 62.5t66 48.5t107 19.5h188v-225h-152q-23 0 -23 -31
q0 -30 23 -30h226v-418h-233z" />
    <glyph glyph-name="quotesingle" unicode="'" horiz-adv-x="244" 
d="M54 383l-21 321h179l-22 -321h-136z" />
    <glyph glyph-name="parenleft" unicode="(" horiz-adv-x="321" 
d="M240 -151q-48 18 -87.5 47t-68 74t-44.5 108t-16 149v247q0 87 16 150t44.5 108t68 73.5t87.5 45.5l56 -99q-38 -16 -65 -41.5t-43.5 -58.5t-24 -73t-7.5 -85v-287q0 -44 7.5 -84t24 -73.5t43.5 -59t65 -40.5z" />
    <glyph glyph-name="parenright" unicode=")" horiz-adv-x="321" 
d="M24 -50q37 15 64 40.5t44 59t25 73.5t8 84v287q0 89 -33 157.5t-108 100.5l57 99q48 -17 87.5 -45.5t68 -73.5t44.5 -108t16 -150v-247q0 -86 -16 -149t-44.5 -108t-68 -74t-87.5 -47z" />
    <glyph glyph-name="asterisk" unicode="*" horiz-adv-x="728" 
d="M364 341q3 -49 14 -88.5t22.5 -73.5t20.5 -64.5t9 -60.5q0 -26 -15 -41.5t-53 -15.5t-53 15.5t-15 41.5q0 30 9 60.5t20.5 64.5t22.5 73.5t14 88.5q-45 -31 -79 -68t-62 -69.5t-52 -54t-49 -21.5q-11 0 -25 10t-26 25t-20.5 34t-8.5 37t14.5 31t36.5 21.5t49 13t52 6.5
q73 4 162 46q-89 42 -162 46q-25 1 -52 6t-49 13.5t-36.5 21.5t-14.5 31t8.5 37t20.5 34t26 25t25 10q25 0 49 -21.5t52 -54t62 -69.5t79 -68q-3 49 -14 88.5t-22.5 73.5t-20.5 64.5t-9 60.5q0 26 15 41.5t53 15.5t53 -15.5t15 -41.5q0 -30 -9 -60.5t-20.5 -64.5
t-22.5 -73.5t-14 -88.5q45 31 79 68t62 69.5t51.5 54t49.5 21.5q11 0 25 -10t26 -25t20.5 -34t8.5 -37t-14.5 -31t-36.5 -21.5t-49 -13.5t-52 -6q-73 -4 -162 -46q89 -42 162 -46q25 -2 52 -6.5t49 -13t36.5 -21.5t14.5 -31t-8.5 -37t-20.5 -34t-26 -25t-25 -10
q-26 0 -49.5 21.5t-51.5 54t-62 69.5t-79 68z" />
    <glyph glyph-name="plus" unicode="+" horiz-adv-x="570" 
d="M227 87v207h-203v116h203v205h115v-205h204v-116h-204v-207h-115z" />
    <glyph glyph-name="comma" unicode="," horiz-adv-x="308" 
d="M109 -27q42 9 64 44q-23 -6 -41 -6q-20 0 -38.5 7.5t-33.5 22t-25 36t-11 50.5q0 57 32.5 92.5t101.5 35.5q25 0 47 -8t38.5 -24.5t26 -42.5t9.5 -63q0 -38 -14 -72t-37.5 -60.5t-54.5 -43.5t-64 -20v52z" />
    <glyph glyph-name="hyphen" unicode="-" horiz-adv-x="312" 
d="M16 302v144h279v-144h-279z" />
    <glyph glyph-name="period" unicode="." horiz-adv-x="291" 
d="M148 -5q-28 0 -51.5 9.5t-41 26.5t-27 40.5t-9.5 50.5q0 56 36 92t93 36q25 0 48 -9.5t40 -26.5t27 -40.5t10 -51.5q0 -27 -10 -50.5t-27 -40.5t-40 -26.5t-48 -9.5z" />
    <glyph glyph-name="slash" unicode="/" horiz-adv-x="513" 
d="M-9 -94l389 837h129l-387 -837h-131z" />
    <glyph glyph-name="zero" unicode="0" horiz-adv-x="650" 
d="M324 213q36 0 55.5 35.5t19.5 103.5t-16.5 104t-58.5 36q-37 0 -54.5 -37t-17.5 -103q0 -68 18.5 -103.5t53.5 -35.5zM324 -13q-74 0 -132.5 25t-99 72.5t-62 115t-21.5 152.5q0 84 21 151.5t61 115t99 72.5t134 25q78 0 137.5 -25t99.5 -72.5t60 -115t20 -151.5
t-20.5 -152t-60 -115t-99 -72.5t-137.5 -25.5z" />
    <glyph glyph-name="one" unicode="1" horiz-adv-x="371" 
d="M86 0v434h-61v218q78 2 84 52h221v-704h-244z" />
    <glyph glyph-name="two" unicode="2" horiz-adv-x="623" 
d="M34 0v226q0 86 31 130t94 44h135q47 0 47 43q0 36 -41 36h-237v225h337q210 0 210 -224q0 -86 -51.5 -130.5t-158.5 -44.5h-51q-27 0 -40.5 -9t-13.5 -31v-40h314v-225h-575z" />
    <glyph glyph-name="three" unicode="3" horiz-adv-x="565" 
d="M30 0v227h248q45 0 45 35q0 37 -45 37h-216v121h228q31 0 31 30q0 31 -31 31h-259v223h318q50 0 87 -13.5t62 -37.5t37 -57.5t12 -72.5q0 -46 -17.5 -86.5t-55.5 -60.5q46 -22 66.5 -65.5t20.5 -93.5q0 -56 -16.5 -96.5t-47 -67.5t-72.5 -40t-93 -13h-302z" />
    <glyph glyph-name="four" unicode="4" horiz-adv-x="628" 
d="M294 438l-88 -130h88v130zM289 0v83h-271v193l290 428h225v-396h72v-225h-72v-83h-244z" />
    <glyph glyph-name="five" unicode="5" horiz-adv-x="626" 
d="M40 0v225h266q47 0 47 40t-46 40h-269v399h558v-225h-288v-79h100q48 0 86.5 -10.5t65.5 -33.5t41.5 -60t14.5 -90q0 -101 -57 -153.5t-151 -52.5h-368z" />
    <glyph glyph-name="six" unicode="6" horiz-adv-x="659" 
d="M295 271q-8 14 -12.5 33t-4.5 45q0 17 2.5 34.5t8.5 32t15.5 24.5t23.5 13h98q63 0 105.5 -14.5t69 -42t38 -67t11.5 -89.5q0 -118 -79.5 -185.5t-239.5 -67.5q-80 0 -140.5 28t-101 77.5t-60.5 117t-20 146.5q0 87 26.5 152t73 108.5t110 65.5t137.5 22h221v-225h-247
q-34 0 -56.5 -31t-22.5 -99q0 -40 7.5 -67t22 -43t34.5 -23t46 -7q61 0 61 33q0 29 -35 29h-92z" />
    <glyph glyph-name="seven" unicode="7" horiz-adv-x="579" 
d="M102 0q8 149 46.5 267t111.5 212h-246v225h545v-203q-45 -33 -81.5 -86t-62.5 -119t-41 -142t-16 -154h-256z" />
    <glyph glyph-name="eight" unicode="8" horiz-adv-x="643" 
d="M535 376q17 -5 33 -17t28.5 -31t20 -46t7.5 -63q0 -48 -14 -90t-48.5 -73.5t-93 -50t-147.5 -18.5t-147.5 18.5t-93.5 50t-49.5 73.5t-14.5 90q0 36 7.5 63t20.5 46t29.5 31t33.5 17q-32 16 -53 51.5t-21 87.5q0 33 13 69t46 65t88.5 48t140.5 19t140.5 -19t88 -48
t45.5 -65t13 -69q0 -52 -21.5 -87.5t-51.5 -51.5zM296 297q-44 0 -44 -40q0 -21 16 -33t53 -12q38 0 53 12t15 33q0 40 -45 40h-48zM346 418q41 0 41 32q0 7 -2 14.5t-9 13.5t-20 9.5t-35 3.5t-35.5 -3.5t-20.5 -9.5t-9 -13.5t-2 -14.5q0 -32 40 -32h52z" />
    <glyph glyph-name="nine" unicode="9" horiz-adv-x="659" 
d="M82 0v225h248q32 0 55.5 31t23.5 99q0 40 -8 67t-22 43t-34.5 23t-45.5 7q-62 0 -62 -33q0 -14 7.5 -21.5t27.5 -7.5h91q8 -14 13 -33t5 -45q0 -18 -2.5 -35.5t-8 -32t-15 -24.5t-24.5 -13h-98q-63 0 -105.5 14.5t-69 42t-38 67t-11.5 89.5q0 118 79 186t240 68
q80 0 140.5 -28t101 -77.5t60.5 -117.5t20 -147q0 -86 -26.5 -151t-73.5 -108.5t-110.5 -65.5t-137.5 -22h-220z" />
    <glyph glyph-name="colon" unicode=":" horiz-adv-x="316" 
d="M161 306q-58 0 -93.5 34.5t-35.5 93.5q0 27 9.5 50t26.5 40t40.5 26.5t52.5 9.5q25 0 47.5 -9.5t39.5 -26.5t27 -40t10 -50q0 -29 -10 -52.5t-27 -40t-39.5 -26t-47.5 -9.5zM161 -5q-29 0 -52.5 9.5t-40.5 26.5t-26.5 40.5t-9.5 50.5q0 28 9.5 51.5t26.5 40.5t40.5 26.5
t52.5 9.5q25 0 47.5 -9.5t39.5 -26.5t27 -40.5t10 -51.5q0 -27 -10 -50.5t-27 -40.5t-39.5 -26.5t-47.5 -9.5z" />
    <glyph glyph-name="semicolon" unicode=";" horiz-adv-x="315" 
d="M289 434q0 -29 -10 -52.5t-27.5 -40t-40.5 -26t-50 -9.5q-60 0 -93.5 34.5t-33.5 93.5q0 54 33.5 90t93.5 36q25 0 48.5 -9.5t41 -26.5t28 -40t10.5 -50zM110 -27q22 5 37.5 16t27.5 28q-24 -6 -42 -6q-20 0 -39 7.5t-35 22t-25.5 36t-9.5 50.5q0 57 33 92.5t102 35.5
q52 0 86.5 -33.5t34.5 -107.5q0 -36 -14 -70t-38 -60t-54.5 -43t-63.5 -20v52z" />
    <glyph glyph-name="less" unicode="&#x3c;" horiz-adv-x="570" 
d="M24 304v96l522 218v-133l-367 -133l367 -134v-131z" />
    <glyph glyph-name="equal" unicode="=" horiz-adv-x="570" 
d="M24 167v116h522v-116h-522zM24 421v116h522v-116h-522z" />
    <glyph glyph-name="greater" unicode="&#x3e;" horiz-adv-x="570" 
d="M24 87v131l367 134l-367 133v133l522 -218v-96z" />
    <glyph glyph-name="question" unicode="?" horiz-adv-x="550" 
d="M86 276q0 66 32.5 100.5t98.5 34.5q48 0 48 36q0 32 -42 32h-203v225h306q210 0 210 -178q0 -182 -212 -182q-52 0 -52 -68h-186zM186 -5q-28 0 -52 9.5t-41 26.5t-27 40.5t-10 50.5q0 28 10 51.5t27 40.5t41 26.5t52 9.5q25 0 47.5 -9.5t40 -26.5t27.5 -40.5t10 -51.5
q0 -27 -10 -50.5t-27.5 -40.5t-40 -26.5t-47.5 -9.5z" />
    <glyph glyph-name="at" unicode="@" horiz-adv-x="659" 
d="M621 15q-14 -14 -39 -27.5t-55.5 -24t-65 -17.5t-66.5 -7q-100 0 -172 34t-118.5 89.5t-68.5 125t-22 140.5q0 87 21.5 159t66 123.5t111.5 79.5t158 28q74 0 122.5 -20t77 -55t39.5 -83.5t11 -105.5v-264h-192q-81 0 -131 40.5t-50 121.5q0 43 14.5 74.5t38 52
t53.5 30.5t62 10t53 -6.5t35 -19.5q0 56 -35.5 84t-97.5 28q-112 0 -168 -72.5t-56 -205.5q0 -68 20.5 -117.5t57 -82.5t86 -49t107.5 -16q25 0 54 5.5t57 15.5t52 24.5t40 32.5v-125zM493 373q-19 33 -63 33q-47 0 -47 -56q0 -46 47 -46h63v69z" />
    <glyph glyph-name="A" unicode="A" horiz-adv-x="676" 
d="M313 336l-30 -147h61zM391 0l-15 58h-124l-13 -58h-239l216 704h244l216 -704h-285z" />
    <glyph glyph-name="B" unicode="B" horiz-adv-x="635" 
d="M285 481v-61h77q26 0 26 30q0 31 -26 31h-77zM352 227q39 0 39 35q0 37 -39 37h-67v-72h67zM42 0v704h373q50 0 87.5 -13.5t62 -37.5t36.5 -57.5t12 -72.5q0 -46 -17.5 -86.5t-55.5 -60.5q46 -22 67 -65.5t21 -93.5q0 -56 -17 -96.5t-47 -67.5t-72 -40t-92 -13h-358z" />
    <glyph glyph-name="C" unicode="C" horiz-adv-x="682" 
d="M440 410q-17 82 -91 82q-44 0 -70.5 -36t-26.5 -104t26.5 -103.5t70.5 -35.5q30 0 56 21.5t34 57.5h235q-9 -70 -32.5 -126.5t-63.5 -96t-97 -61t-132 -21.5q-72 0 -134.5 24t-108 70.5t-72 114.5t-26.5 156q0 84 25.5 151t71 114.5t107.5 73t134 25.5q76 0 135 -21
t100.5 -60.5t65 -96t28.5 -128.5h-235z" />
    <glyph glyph-name="D" unicode="D" horiz-adv-x="684" 
d="M294 226q40 0 67.5 10t44.5 27t25 40t8 50q0 26 -7.5 49t-24.5 40t-43.5 27t-64.5 10h-15v-253h10zM41 0v704h258q85 0 154 -26.5t118.5 -73t76.5 -110.5t27 -140q0 -83 -28 -148.5t-78.5 -111t-120.5 -70t-154 -24.5h-253z" />
    <glyph glyph-name="E" unicode="E" horiz-adv-x="568" 
d="M237 0q-50 0 -92 13t-72 40t-47 67.5t-17 96.5q0 24 5 48t15.5 45t27 38t39.5 28q-38 20 -55 60.5t-17 86.5q0 39 12 72.5t36.5 57.5t62 37.5t87.5 13.5h317v-223h-260q-30 0 -30 -31q0 -30 30 -30h230v-121h-224q-39 0 -39 -37q0 -35 39 -35h255v-227h-303z" />
    <glyph glyph-name="F" unicode="F" horiz-adv-x="503" 
d="M42 0v704h439v-225h-196v-48h195v-164h-195v-267h-243z" />
    <glyph glyph-name="G" unicode="G" horiz-adv-x="718" 
d="M522 0v55q-26 -30 -74 -49t-102 -19q-72 0 -134.5 25t-108 72.5t-72 115t-26.5 152.5q0 83 26.5 150.5t72 115t107.5 73t133 25.5q155 0 242.5 -81t97.5 -225h-245q-7 40 -31.5 61t-61.5 21q-43 0 -70 -36t-27 -104q0 -40 8.5 -67.5t22.5 -44.5t31 -24.5t35 -7.5
q37 0 56.5 20t27.5 51h-99v88h356v-367h-165z" />
    <glyph glyph-name="H" unicode="H" horiz-adv-x="682" 
d="M397 0v247h-112v-247h-243v704h243v-232h112v232h244v-704h-244z" />
    <glyph glyph-name="I" unicode="I" horiz-adv-x="332" 
d="M44 0v704h244v-704h-244z" />
    <glyph glyph-name="J" unicode="J" horiz-adv-x="374" 
d="M20 225q75 0 75 87v392h244v-429q0 -60 -17.5 -110.5t-56 -87t-99 -57t-146.5 -20.5v225z" />
    <glyph glyph-name="K" unicode="K" horiz-adv-x="694" 
d="M402 0l-117 243v-243h-243v704h243v-226l129 226h265l-200 -308l219 -396h-296z" />
    <glyph glyph-name="L" unicode="L" horiz-adv-x="469" 
d="M42 0v704h243v-479h175v-225h-418z" />
    <glyph glyph-name="M" unicode="M" horiz-adv-x="780" 
d="M532 0v251l-112 -251h-60l-112 250v-250h-206v704h259l97 -221l95 221h245v-704h-206z" />
    <glyph glyph-name="N" unicode="N" horiz-adv-x="690" 
d="M443 0l-178 274v-274h-223v704h234l149 -233v233h225v-704h-207z" />
    <glyph glyph-name="O" unicode="O" 
d="M351 -13q-80 0 -143 25t-107.5 72t-68 114.5t-23.5 153.5q0 83 23.5 150.5t68 115t107.5 73t143 25.5q79 0 142 -25.5t107 -73t67.5 -115t23.5 -150.5q0 -86 -23.5 -153.5t-67.5 -114.5t-107 -72t-142 -25zM351 213q43 0 70.5 32.5t27.5 106.5q0 75 -24.5 107.5
t-73.5 32.5q-50 0 -74.5 -32.5t-24.5 -107.5q0 -74 27.5 -106.5t71.5 -32.5z" />
    <glyph glyph-name="P" unicode="P" horiz-adv-x="641" 
d="M331 366q52 0 52 56q0 57 -52 57h-46v-113h46zM42 0v704h318q59 0 108.5 -16.5t85 -51t55.5 -88t20 -126.5q0 -74 -20 -127t-57 -87.5t-88.5 -51t-114.5 -16.5h-64v-140h-243z" />
    <glyph glyph-name="Q" unicode="Q" horiz-adv-x="739" 
d="M735 -13q-40 23 -77 35.5t-70 12.5q-16 0 -30 -1t-29 -5q-37 -20 -81.5 -31t-96.5 -11h-1q-79 0 -142 25t-107.5 72t-68 114.5t-23.5 153.5q0 83 23.5 150.5t68 115t107.5 73t143 25.5q79 0 142 -25.5t107 -73t67.5 -115t23.5 -150.5q0 -89 -26 -159q17 9 35 13.5t35 4.5
v-224zM351 213q43 0 70.5 32.5t27.5 106.5q0 75 -24.5 107.5t-73.5 32.5q-50 0 -74.5 -32.5t-24.5 -107.5q0 -74 27.5 -106.5t71.5 -32.5z" />
    <glyph glyph-name="R" unicode="R" horiz-adv-x="671" 
d="M344 396q39 0 39 42q0 41 -39 41h-59v-83h59zM411 0l-126 231v-231h-243v704h331q59 0 106.5 -13.5t80.5 -41t51 -70.5t18 -102q0 -75 -24 -124.5t-74 -83.5l151 -269h-271z" />
    <glyph glyph-name="S" unicode="S" horiz-adv-x="646" 
d="M29 0v225h267q46 0 46 40t-46 40h-46q-60 0 -103 14.5t-70.5 40.5t-40.5 62t-13 79q0 91 55 147t161 56h345v-225h-245q-43 0 -43 -38q0 -41 43 -41h93q57 0 96 -16t62.5 -42.5t34 -61.5t10.5 -73q0 -43 -13 -80.5t-41.5 -65.5t-74 -44.5t-109.5 -16.5h-368z" />
    <glyph glyph-name="T" unicode="T" horiz-adv-x="613" 
d="M180 0v479h-176v225h604v-225h-173v-479h-255z" />
    <glyph glyph-name="U" unicode="U" horiz-adv-x="667" 
d="M386 704h244v-415q0 -148 -74.5 -225t-218.5 -77q-146 0 -224 76.5t-78 224.5v416h244v-440q0 -52 55 -52q28 0 40 13t12 39v440z" />
    <glyph glyph-name="V" unicode="V" horiz-adv-x="676" 
d="M216 0l-216 704h285l77 -338l75 338h239l-216 -704h-244z" />
    <glyph glyph-name="W" unicode="W" horiz-adv-x="945" 
d="M530 0l-58 275l-58 -275h-244l-166 704h275l77 -379l74 379h210l77 -379l75 379h149l-165 -704h-246z" />
    <glyph glyph-name="X" unicode="X" horiz-adv-x="697" 
d="M362 0l-58 139l-64 -139h-236l192 340l-187 364h323l61 -129l63 129h221l-176 -319l189 -385h-328z" />
    <glyph glyph-name="Y" unicode="Y" horiz-adv-x="649" 
d="M36 0v225h264q38 0 52 14.5t14 39.5h-102q-110 0 -169.5 57t-59.5 171v197h245v-192q0 -45 16 -60.5t49 -15.5h25v268h243v-432q0 -58 -16.5 -107.5t-47.5 -86t-75 -57.5t-99 -21h-339z" />
    <glyph glyph-name="Z" unicode="Z" horiz-adv-x="628" 
d="M31 0v186l241 293h-241v225h562v-189l-242 -290h243v-225h-563z" />
    <glyph glyph-name="bracketleft" unicode="[" horiz-adv-x="273" 
d="M24 -151v1002h225v-107h-94v-785h94v-110h-225z" />
    <glyph glyph-name="backslash" unicode="\" horiz-adv-x="513" 
d="M378 -94l-387 837h129l389 -837h-131z" />
    <glyph glyph-name="bracketright" unicode="]" horiz-adv-x="273" 
d="M24 -151v110h94v785h-94v107h225v-1002h-225z" />
    <glyph glyph-name="asciicircum" unicode="^" horiz-adv-x="549" 
d="M364 297l-90 238l-96 -238h-154l186 446h124l192 -446h-162z" />
    <glyph glyph-name="underscore" unicode="_" horiz-adv-x="718" 
d="M14 -134v123h693v-123h-693z" />
    <glyph glyph-name="grave" unicode="`" horiz-adv-x="363" 
d="M44 840l66 91l209 -125l-47 -59z" />
    <glyph glyph-name="a" unicode="a" horiz-adv-x="671" 
d="M410 0v57q-18 -32 -60 -51t-107 -19q-45 0 -87 12t-75 40.5t-52.5 75t-19.5 114.5q0 64 19 107t53 69t81.5 37t105.5 11h56q6 -2 13 -6.5t12.5 -15.5t9 -29.5t3.5 -48.5q0 -32 -2.5 -50t-7.5 -32h-74q-20 0 -29 -9t-9 -23q0 -13 9 -23.5t29 -10.5q31 0 52.5 6t34.5 22.5
t18.5 45.5t5.5 74q0 38 -5 62.5t-16 38.5t-27.5 19.5t-38.5 5.5h-213v225h309q46 0 89 -16.5t76 -50.5t53 -85t20 -120v-432h-226z" />
    <glyph glyph-name="b" unicode="b" horiz-adv-x="635" 
d="M285 481v-61h77q26 0 26 30q0 31 -26 31h-77zM352 227q39 0 39 35q0 37 -39 37h-67v-72h67zM42 0v704h373q50 0 87.5 -13.5t62 -37.5t36.5 -57.5t12 -72.5q0 -46 -17.5 -86.5t-55.5 -60.5q46 -22 67 -65.5t21 -93.5q0 -56 -17 -96.5t-47 -67.5t-72 -40t-92 -13h-358z" />
    <glyph glyph-name="c" unicode="c" horiz-adv-x="682" 
d="M440 410q-17 82 -91 82q-44 0 -70.5 -36t-26.5 -104t26.5 -103.5t70.5 -35.5q30 0 56 21.5t34 57.5h235q-9 -70 -32.5 -126.5t-63.5 -96t-97 -61t-132 -21.5q-72 0 -134.5 24t-108 70.5t-72 114.5t-26.5 156q0 84 25.5 151t71 114.5t107.5 73t134 25.5q76 0 135 -21
t100.5 -60.5t65 -96t28.5 -128.5h-235z" />
    <glyph glyph-name="d" unicode="d" horiz-adv-x="684" 
d="M294 226q40 0 67.5 10t44.5 27t25 40t8 50q0 26 -7.5 49t-24.5 40t-43.5 27t-64.5 10h-15v-253h10zM41 0v704h258q85 0 154 -26.5t118.5 -73t76.5 -110.5t27 -140q0 -83 -28 -148.5t-78.5 -111t-120.5 -70t-154 -24.5h-253z" />
    <glyph glyph-name="e" unicode="e" horiz-adv-x="640" 
d="M356 0q-75 0 -138.5 23.5t-110 68.5t-72.5 109.5t-26 146.5q0 79 22.5 146.5t65 117t104.5 77t140 27.5q65 0 118.5 -15t91.5 -45.5t59 -76t21 -105.5q0 -53 -13 -95t-40.5 -70.5t-71.5 -43.5t-106 -15h-80q-16 12 -26.5 34.5t-10.5 63.5q0 29 3.5 48t12.5 38h57
q26 0 37 7.5t11 23.5q0 29 -44 29q-51 0 -78 -35.5t-27 -110.5q0 -63 23 -93t54 -30h274v-225h-250z" />
    <glyph glyph-name="f" unicode="f" horiz-adv-x="503" 
d="M42 0v704h439v-225h-196v-48h195v-164h-195v-267h-243z" />
    <glyph glyph-name="g" unicode="g" horiz-adv-x="718" 
d="M522 0v55q-26 -30 -74 -49t-102 -19q-72 0 -134.5 25t-108 72.5t-72 115t-26.5 152.5q0 83 26.5 150.5t72 115t107.5 73t133 25.5q155 0 242.5 -81t97.5 -225h-245q-7 40 -31.5 61t-61.5 21q-43 0 -70 -36t-27 -104q0 -40 8.5 -67.5t22.5 -44.5t31 -24.5t35 -7.5
q37 0 56.5 20t27.5 51h-99v88h356v-367h-165z" />
    <glyph glyph-name="h" unicode="h" horiz-adv-x="682" 
d="M397 0v247h-112v-247h-243v704h243v-232h112v232h244v-704h-244z" />
    <glyph glyph-name="i" unicode="i" horiz-adv-x="332" 
d="M44 0v704h244v-704h-244z" />
    <glyph glyph-name="j" unicode="j" horiz-adv-x="375" 
d="M212 454q-26 0 -49.5 10t-40.5 27.5t-27 41t-10 49.5t10 49t27 40.5t40.5 28t49.5 10.5t49 -10.5t40.5 -28t27.5 -40.5t10 -49t-10 -49.5t-27.5 -41t-40.5 -27.5t-49 -10zM14 61q76 0 76 87v296h242v-333q0 -59 -17 -109.5t-55 -87t-98.5 -57.5t-147.5 -21v225z" />
    <glyph glyph-name="k" unicode="k" horiz-adv-x="694" 
d="M402 0l-117 243v-243h-243v704h243v-226l129 226h265l-200 -308l219 -396h-296z" />
    <glyph glyph-name="l" unicode="l" horiz-adv-x="469" 
d="M42 0v704h243v-479h175v-225h-418z" />
    <glyph glyph-name="m" unicode="m" horiz-adv-x="861" 
d="M604 0v447q0 43 -35 43q-38 0 -38 -43v-447h-201v447q0 43 -39 43q-35 0 -35 -43v-447h-221v483q0 63 20.5 107.5t54.5 72t76.5 40.5t87.5 13q46 0 88 -15.5t67 -47.5q28 32 67 47.5t88 15.5q37 0 79.5 -12.5t78.5 -39.5t60 -69.5t24 -101.5v-493h-222z" />
    <glyph glyph-name="n" unicode="n" horiz-adv-x="672" 
d="M391 0v435q0 30 -15 43t-45 13q-25 0 -38.5 -13t-13.5 -43v-435h-245v414q0 148 75.5 225t221.5 77q148 0 226 -77t78 -225v-414h-244z" />
    <glyph glyph-name="o" unicode="o" 
d="M351 -13q-80 0 -143 25t-107.5 72t-68 114.5t-23.5 153.5q0 83 23.5 150.5t68 115t107.5 73t143 25.5q79 0 142 -25.5t107 -73t67.5 -115t23.5 -150.5q0 -86 -23.5 -153.5t-67.5 -114.5t-107 -72t-142 -25zM351 213q43 0 70.5 32.5t27.5 106.5q0 75 -24.5 107.5
t-73.5 32.5q-50 0 -74.5 -32.5t-24.5 -107.5q0 -74 27.5 -106.5t71.5 -32.5z" />
    <glyph glyph-name="p" unicode="p" horiz-adv-x="641" 
d="M331 366q52 0 52 56q0 57 -52 57h-46v-113h46zM42 0v704h318q59 0 108.5 -16.5t85 -51t55.5 -88t20 -126.5q0 -74 -20 -127t-57 -87.5t-88.5 -51t-114.5 -16.5h-64v-140h-243z" />
    <glyph glyph-name="q" unicode="q" horiz-adv-x="739" 
d="M735 -13q-40 23 -77 35.5t-70 12.5q-16 0 -30 -1t-29 -5q-37 -20 -81.5 -31t-96.5 -11h-1q-79 0 -142 25t-107.5 72t-68 114.5t-23.5 153.5q0 83 23.5 150.5t68 115t107.5 73t143 25.5q79 0 142 -25.5t107 -73t67.5 -115t23.5 -150.5q0 -89 -26 -159q17 9 35 13.5t35 4.5
v-224zM351 213q43 0 70.5 32.5t27.5 106.5q0 75 -24.5 107.5t-73.5 32.5q-50 0 -74.5 -32.5t-24.5 -107.5q0 -74 27.5 -106.5t71.5 -32.5z" />
    <glyph glyph-name="r" unicode="r" horiz-adv-x="671" 
d="M344 396q39 0 39 42q0 41 -39 41h-59v-83h59zM411 0l-126 231v-231h-243v704h331q59 0 106.5 -13.5t80.5 -41t51 -70.5t18 -102q0 -75 -24 -124.5t-74 -83.5l151 -269h-271z" />
    <glyph glyph-name="s" unicode="s" horiz-adv-x="646" 
d="M29 0v225h267q46 0 46 40t-46 40h-46q-60 0 -103 14.5t-70.5 40.5t-40.5 62t-13 79q0 91 55 147t161 56h345v-225h-245q-43 0 -43 -38q0 -41 43 -41h93q57 0 96 -16t62.5 -42.5t34 -61.5t10.5 -73q0 -43 -13 -80.5t-41.5 -65.5t-74 -44.5t-109.5 -16.5h-368z" />
    <glyph glyph-name="t" unicode="t" horiz-adv-x="613" 
d="M180 0v479h-176v225h604v-225h-173v-479h-255z" />
    <glyph glyph-name="u" unicode="u" horiz-adv-x="667" 
d="M386 704h244v-415q0 -148 -74.5 -225t-218.5 -77q-146 0 -224 76.5t-78 224.5v416h244v-440q0 -52 55 -52q28 0 40 13t12 39v440z" />
    <glyph glyph-name="v" unicode="v" horiz-adv-x="676" 
d="M216 0l-216 704h285l77 -338l75 338h239l-216 -704h-244z" />
    <glyph glyph-name="w" unicode="w" horiz-adv-x="855" 
d="M597 704h220v-484q0 -63 -20.5 -107.5t-53 -72.5t-73.5 -40.5t-82 -12.5q-51 0 -93 15.5t-65 47.5q-29 -32 -69 -47.5t-96 -15.5q-32 0 -72 13t-75 40t-59 69t-24 101v494h221v-452q0 -39 34 -39q36 0 36 39v452h202v-452q0 -39 35 -39q34 0 34 39v452z" />
    <glyph glyph-name="x" unicode="x" horiz-adv-x="697" 
d="M362 0l-58 139l-64 -139h-236l192 340l-187 364h323l61 -129l63 129h221l-176 -319l189 -385h-328z" />
    <glyph glyph-name="y" unicode="y" horiz-adv-x="649" 
d="M36 0v225h264q38 0 52 14.5t14 39.5h-102q-110 0 -169.5 57t-59.5 171v197h245v-192q0 -45 16 -60.5t49 -15.5h25v268h243v-432q0 -58 -16.5 -107.5t-47.5 -86t-75 -57.5t-99 -21h-339z" />
    <glyph glyph-name="z" unicode="z" horiz-adv-x="628" 
d="M31 0v186l241 293h-241v225h562v-189l-242 -290h243v-225h-563z" />
    <glyph glyph-name="braceleft" unicode="{" horiz-adv-x="352" 
d="M243 -151q-26 0 -52.5 7t-48 25t-35 49t-13.5 78v210q0 45 -7.5 63.5t-22.5 18.5h-46v126h46q17 0 23.5 19.5t6.5 57.5v204q0 41 13 68.5t34 44.5t47 24t53 7h89v-117h-58q-46 0 -46 -125v-142q0 -71 -54 -107q30 -20 42 -43.5t12 -58.5v-199q0 -92 40 -92h64v-118h-87z
" />
    <glyph glyph-name="bar" unicode="|" horiz-adv-x="330" 
d="M91 -83v898h148v-898h-148z" />
    <glyph glyph-name="braceright" unicode="}" horiz-adv-x="352" 
d="M24 -151v118h61q43 0 43 92v199q0 35 11.5 58.5t40.5 43.5q-52 35 -52 107v142q0 125 -46 125h-58v117h88q26 0 52 -7t47 -24t34 -44.5t13 -68.5v-204q0 -38 6.5 -57.5t24.5 -19.5h44v-126h-44q-15 0 -23 -18.5t-8 -63.5v-210q0 -47 -13.5 -78t-35 -49t-48 -25t-51.5 -7
h-86z" />
    <glyph glyph-name="asciitilde" unicode="~" horiz-adv-x="570" 
d="M546 292q-29 -24 -57.5 -35.5t-63.5 -11.5q-38 0 -71.5 13.5t-65.5 29t-64 29t-68 13.5q-19 0 -54 -10.5t-78 -45.5v134q20 20 48.5 35.5t67.5 15.5q41 0 76 -13.5t67.5 -30t63 -30t63.5 -13.5q21 0 58 13.5t78 54.5v-148z" />
    <glyph glyph-name="nonbreakingspace" unicode="&#xa0;" horiz-adv-x="209" 
 />
    <glyph glyph-name="exclamdown" unicode="&#xa1;" horiz-adv-x="342" 
d="M247.006 428.017l29.998 -227.985v-199.988h-212.987v198.988l28.998 228.985h153.991zM167.011 709q28.998 0 52.4961 -9.5q23.499 -9.49902 40.498 -26.498t26.498 -40.498q9.5 -23.498 9.5 -50.4961q0 -27.999 -9.5 -51.4971q-9.49902 -23.499 -26.498 -40.498
t-40.498 -26.498q-23.498 -9.49902 -52.4961 -9.49902q-24.999 0 -47.4971 9.49902q-22.499 9.49902 -39.498 26.498t-26.998 40.498q-10 23.498 -10 51.4971q0 26.998 10 50.4961q9.99902 23.499 26.998 40.498t39.498 26.498q22.498 9.5 47.4971 9.5z" />
    <glyph glyph-name="cent" unicode="&#xa2;" horiz-adv-x="650" 
d="M229 0v64q-47 13 -85.5 37.5t-66 61t-43 84t-15.5 106.5q0 55 15 101.5t42.5 83t66.5 62t86 38.5v66h199v-63q91 -22 140.5 -84t57.5 -157h-216q-8 32 -27.5 50t-53.5 18q-41 0 -64.5 -30t-23.5 -85q0 -57 24 -86.5t64 -29.5q27 0 50 18.5t31 47.5h215
q-13 -94 -60.5 -156t-136.5 -85v-62h-199z" />
    <glyph glyph-name="sterling" unicode="&#xa3;" horiz-adv-x="583" 
d="M29 0v225h48v70h-48v105h48v44q0 58 17 108t50.5 86.5t83 57t114.5 20.5q44 0 80.5 -10t64 -25t46.5 -33.5t28 -35.5l-131 -150q-11 16 -26.5 24.5t-36.5 8.5q-26 0 -41.5 -17.5t-15.5 -43.5v-33h101v-106h-101v-70h248v-225h-529z" />
    <glyph glyph-name="currency" unicode="&#xa4;" horiz-adv-x="514" 
d="M349 345q0 35 -25.5 59t-62.5 24t-62.5 -24t-25.5 -59t25.5 -59t62.5 -24t62.5 24t25.5 59zM340 200q-19 -8 -38.5 -12t-40.5 -4t-40.5 4t-38.5 12l-63 -66l-77 79l58 59q-9 17 -14.5 35t-5.5 38t5.5 38t14.5 35l-58 59l77 79l63 -66q19 8 38.5 12t40.5 4t40.5 -4
t38.5 -12l63 66l77 -79l-58 -59q9 -17 14.5 -35t5.5 -38t-5.5 -38t-14.5 -35l58 -59l-77 -79z" />
    <glyph glyph-name="yen" unicode="&#xa5;" horiz-adv-x="748" 
d="M504 57v-57h-258v57h-109v104h109v87h-109v105h61l-198 351h277l97 -179l98 179h277l-199 -351h52v-105h-98v-87h98v-104h-98z" />
    <glyph glyph-name="brokenbar" unicode="&#xa6;" horiz-adv-x="330" 
d="M91 -83v399h148v-399h-148zM239 433h-148v382h148v-382z" />
    <glyph glyph-name="section" unicode="&#xa7;" horiz-adv-x="535" 
d="M224 390q-26 0 -26 -37q0 -39 26 -39h81q26 0 26 37q0 39 -26 39h-81zM143 0v146h150q36 0 36 37q0 39 -36 39h-145q-26 0 -45 9.5t-31.5 25t-18.5 35.5t-6 41q0 80 44 109q-34 18 -46 45.5t-12 55.5q0 82 36.5 121.5t103.5 39.5h213v-146h-149q-36 0 -36 -37
q0 -39 36 -39h144q26 0 45 -9.5t31.5 -25t18.5 -35.5t6 -41q0 -39 -10 -67t-33 -42q33 -18 45.5 -45.5t12.5 -55.5q0 -82 -36.5 -121.5t-104.5 -39.5h-213z" />
    <glyph glyph-name="dieresis" unicode="&#xa8;" horiz-adv-x="479" 
d="M352 756q-38 0 -60.5 22.5t-22.5 60.5q0 35 23.5 58.5t59.5 23.5q33 0 56.5 -23.5t23.5 -58.5q0 -36 -23.5 -59.5t-56.5 -23.5zM128 756q-38 0 -61 22.5t-23 60.5q0 35 24 58.5t60 23.5q33 0 56.5 -23.5t23.5 -58.5q0 -36 -23.5 -59.5t-56.5 -23.5z" />
    <glyph glyph-name="ordfeminine" unicode="&#xaa;" horiz-adv-x="432" 
d="M202 485l-16 -81h33zM245 300l-8 32h-68l-8 -32h-131l119 387h134l119 -387h-157z" />
    <glyph glyph-name="guillemotleft" unicode="&#xab;" horiz-adv-x="592" 
d="M201 98l-187 234l186 231l83 -70l-136 -161l136 -161zM497 98l-187 234l186 231l83 -70l-136 -161l136 -161z" />
    <glyph glyph-name="logicalnot" unicode="&#xac;" horiz-adv-x="658" 
d="M457 0v285h-415v131h550v-416h-135z" />
    <glyph glyph-name="macron" unicode="&#xaf;" horiz-adv-x="447" 
d="M44 773v134h356v-134h-356z" />
    <glyph glyph-name="degree" unicode="&#xb0;" horiz-adv-x="371" 
d="M339 571q0 -30 -8.5 -56.5t-27.5 -47t-48.5 -32t-71.5 -11.5q-41 0 -70.5 11.5t-48 32t-27 47t-8.5 56.5t8.5 56t27 46t48 31.5t70.5 11.5q42 0 71.5 -11.5t48.5 -31.5t27.5 -46t8.5 -56zM254 572q0 29 -16.5 48t-54.5 19t-54 -19t-16 -48t16 -49.5t54 -20.5t54.5 20.5
t16.5 49.5z" />
    <glyph glyph-name="plusminus" unicode="&#xb1;" horiz-adv-x="570" 
d="M227 87v207h-203v116h203v205h115v-205h204v-116h-204v-207h-115zM24 -65v116h522v-116h-522z" />
    <glyph glyph-name="twosuperior" unicode="&#xb2;" horiz-adv-x="341" 
d="M32 363v113q0 87 62 87h68q23 0 23 21q0 18 -20 18h-119v113h169q105 0 105 -112q0 -88 -105 -88h-26q-27 0 -27 -20v-20h157v-112h-287z" />
    <glyph glyph-name="threesuperior" unicode="&#xb3;" horiz-adv-x="312" 
d="M30 363v113h124q22 0 22 18t-22 18h-108v61h114q15 0 15 15t-15 15h-130v112h159q51 0 75 -25.5t24 -65.5q0 -23 -8.5 -43t-27.5 -30q23 -11 33 -33t10 -47q0 -56 -31.5 -82t-82.5 -26h-151z" />
    <glyph glyph-name="acute" unicode="&#xb4;" horiz-adv-x="363" 
d="M91 747l-47 59l209 125l66 -91z" />
    <glyph glyph-name="mu" unicode="&#xb5;" horiz-adv-x="667" 
d="M35 -239v943h244v-440q0 -52 55 -52q28 0 40 13t12 39v440h244v-415q0 -148 -74.5 -225t-218.5 -77q-16 0 -30 1t-28 3v-230h-244z" />
    <glyph glyph-name="mu" unicode="&#x3bc;" horiz-adv-x="667" 
d="M35 -239v943h244v-440q0 -52 55 -52q28 0 40 13t12 39v440h244v-415q0 -148 -74.5 -225t-218.5 -77q-16 0 -30 1t-28 3v-230h-244z" />
    <glyph glyph-name="paragraph" unicode="&#xb6;" horiz-adv-x="577" 
d="M394 -93v543h-111v-543h-140v546q-63 14 -91 44t-28 84q0 26 8.5 48.5t27 39t48.5 26t74 9.5h349v-797h-137z" />
    <glyph glyph-name="periodcentered" unicode="&#xb7;" horiz-adv-x="291" 
d="M148 225q-28 0 -51.5 9.5t-41 26.5t-27 40.5t-9.5 50.5q0 56 36 92t93 36q25 0 48 -9.5t40 -26.5t27 -40.5t10 -51.5q0 -27 -10 -50.5t-27 -40.5t-40 -26.5t-48 -9.5z" />
    <glyph glyph-name="cedilla" unicode="&#xb8;" horiz-adv-x="258" 
d="M101 -205q28 6 42 29q-13 -4 -26 -4t-26 5t-23.5 14.5t-17 24t-6.5 33.5q0 37 22 60.5t67 23.5q34 0 57 -21t23 -71q0 -24 -9 -46.5t-24.5 -40t-36 -28.5t-42.5 -13v34z" />
    <glyph glyph-name="onesuperior" unicode="&#xb9;" horiz-adv-x="215" 
d="M58 363v217h-31v109q39 0 42 26h111v-352h-122z" />
    <glyph glyph-name="ordmasculine" unicode="&#xba;" horiz-adv-x="445" 
d="M223 293q-88 0 -138 53t-50 148q0 92 50 146t138 54t137.5 -54t49.5 -146q0 -95 -49.5 -148t-137.5 -53zM223 417q23 0 38.5 17.5t15.5 59.5q0 41 -13.5 59t-40.5 18t-40.5 -18t-13.5 -59q0 -42 15 -59.5t39 -17.5z" />
    <glyph glyph-name="guillemotright" unicode="&#xbb;" horiz-adv-x="590" 
d="M14 171l134 161l-134 161l82 70l186 -231l-188 -234zM309 171l134 161l-134 161l82 70l186 -231l-188 -234z" />
    <glyph glyph-name="onequarter" unicode="&#xbc;" horiz-adv-x="804" 
d="M129 363v217h-31v109q39 0 42 26h111v-352h-122zM9 -36l639 776h138l-641 -776h-136zM640 209l-44 -65h44v65zM637 -10v41h-135v97l145 214h112v-198h36v-113h-36v-41h-122z" />
    <glyph glyph-name="onehalf" unicode="&#xbd;" horiz-adv-x="837" 
d="M129 363v217h-31v109q39 0 42 26h111v-352h-122zM9 -36l639 776h138l-641 -776h-136zM540 -10v113q0 87 62 87h68q23 0 23 21q0 18 -20 18h-119v113h169q105 0 105 -112q0 -88 -105 -88h-26q-27 0 -27 -20v-20h157v-112h-287z" />
    <glyph glyph-name="threequarters" unicode="&#xbe;" horiz-adv-x="795" 
d="M25 363v113h124q22 0 22 18t-22 18h-108v61h114q15 0 15 15t-15 15h-130v112h159q51 0 75 -25.5t24 -65.5q0 -23 -8.5 -43t-27.5 -30q23 -11 33 -33t10 -47q0 -56 -31.5 -82t-82.5 -26h-151zM9 -36l639 776h138l-641 -776h-136zM620 209l-44 -65h44v65zM617 -10v41h-135
v97l145 214h112v-198h36v-113h-36v-41h-122z" />
    <glyph glyph-name="questiondown" unicode="&#xbf;" horiz-adv-x="550" 
d="M462.005 428.017q0 -65.9961 -32.498 -100.493q-32.498 -34.498 -98.4932 -34.498q-47.9971 0 -47.9971 -35.998q0 -31.998 41.9971 -31.998h202.987v-224.986h-305.981q-209.986 0 -209.986 177.989q0 181.989 211.986 181.989q51.9971 0 51.9971 67.9951h185.988z
M362.012 709q27.998 0 51.9961 -9.5q23.999 -9.49902 40.998 -26.498t26.998 -40.498q10 -23.498 10 -50.4961q0 -27.999 -10 -51.4971q-9.99902 -23.499 -26.998 -40.498t-40.998 -26.498q-23.998 -9.49902 -51.9961 -9.49902q-24.999 0 -47.4971 9.49902
q-22.499 9.49902 -39.998 26.498t-27.498 40.498q-10 23.498 -10 51.4971q0 26.998 10 50.4961q9.99902 23.499 27.498 40.498t39.998 26.498q22.498 9.5 47.4971 9.5z" />
    <glyph glyph-name="Agrave" unicode="&#xc0;" horiz-adv-x="676" 
d="M313 336l-30 -147h61zM391 0l-15 58h-124l-13 -58h-239l216 704h244l216 -704h-285zM170 840l66 91l209 -125l-47 -59z" />
    <glyph glyph-name="Aacute" unicode="&#xc1;" horiz-adv-x="676" 
d="M313 336l-30 -147h61zM391 0l-15 58h-124l-13 -58h-239l216 704h244l216 -704h-285zM277 747l-47 59l209 125l66 -91z" />
    <glyph glyph-name="Acircumflex" unicode="&#xc2;" horiz-adv-x="676" 
d="M313 336l-30 -147h61zM391 0l-15 58h-124l-13 -58h-239l216 704h244l216 -704h-285zM487 747l-149 93l-148 -93l-50 42l158 142h80l158 -142z" />
    <glyph glyph-name="Atilde" unicode="&#xc3;" horiz-adv-x="676" 
d="M313 336l-30 -147h61zM391 0l-15 58h-124l-13 -58h-239l216 704h244l216 -704h-285zM540 870q-4 -18 -14.5 -35.5t-26.5 -32t-36.5 -23.5t-45.5 -9q-29 0 -48 5.5t-35.5 12t-33.5 12t-41 5.5q-14 0 -27 -8t-21 -32l-76 38q4 18 15 35.5t26.5 31.5t36.5 22.5t46 8.5
q28 0 48.5 -5.5t38 -12t34 -12t37.5 -5.5q32 0 45 43z" />
    <glyph glyph-name="Adieresis" unicode="&#xc4;" horiz-adv-x="676" 
d="M313 336l-30 -147h61zM391 0l-15 58h-124l-13 -58h-239l216 704h244l216 -704h-285zM452 756q-38 0 -60.5 22.5t-22.5 60.5q0 35 23.5 58.5t59.5 23.5q33 0 56.5 -23.5t23.5 -58.5q0 -36 -23.5 -59.5t-56.5 -23.5zM228 756q-38 0 -61 22.5t-23 60.5q0 35 24 58.5t60 23.5
q33 0 56.5 -23.5t23.5 -58.5q0 -36 -23.5 -59.5t-56.5 -23.5z" />
    <glyph glyph-name="Aring" unicode="&#xc5;" horiz-adv-x="676" 
d="M313 336l-30 -147h61zM391 0l-15 58h-124l-13 -58h-239l216 704h244l216 -704h-285zM401 833q0 25 -14.5 40t-50.5 15q-35 0 -49 -15t-14 -40q0 -26 14 -42t49 -16q36 0 50.5 16t14.5 42zM486 833q0 -60 -34.5 -94.5t-115.5 -34.5q-80 0 -113.5 35t-33.5 94q0 58 33.5 93
t113.5 35q81 0 115.5 -34.5t34.5 -93.5z" />
    <glyph glyph-name="AE" unicode="&#xc6;" horiz-adv-x="925" 
d="M391 479h-47l-61 -290h108v290zM391 0v58h-139l-13 -58h-239l216 704h689v-225h-287v-61h258v-121h-262v-72h291v-225h-514z" />
    <glyph glyph-name="Ccedilla" unicode="&#xc7;" horiz-adv-x="682" 
d="M440 410q-17 82 -91 82q-44 0 -70.5 -36t-26.5 -104t26.5 -103.5t70.5 -35.5q30 0 56 21.5t34 57.5h235q-9 -70 -32.5 -126.5t-63.5 -96t-97 -61t-132 -21.5q-72 0 -134.5 24t-108 70.5t-72 114.5t-26.5 156q0 84 25.5 151t71 114.5t107.5 73t134 25.5q76 0 135 -21
t100.5 -60.5t65 -96t28.5 -128.5h-235zM313 -205q28 6 42 29q-13 -4 -26 -4t-26 5t-23.5 14.5t-17 24t-6.5 33.5q0 37 22 60.5t67 23.5q34 0 57 -21t23 -71q0 -24 -9 -46.5t-24.5 -40t-36 -28.5t-42.5 -13v34z" />
    <glyph glyph-name="Egrave" unicode="&#xc8;" horiz-adv-x="568" 
d="M237 0q-50 0 -92 13t-72 40t-47 67.5t-17 96.5q0 24 5 48t15.5 45t27 38t39.5 28q-38 20 -55 60.5t-17 86.5q0 39 12 72.5t36.5 57.5t62 37.5t87.5 13.5h317v-223h-260q-30 0 -30 -31q0 -30 30 -30h230v-121h-224q-39 0 -39 -37q0 -35 39 -35h255v-227h-303zM136 840
l66 91l209 -125l-47 -59z" />
    <glyph glyph-name="Eacute" unicode="&#xc9;" horiz-adv-x="568" 
d="M237 0q-50 0 -92 13t-72 40t-47 67.5t-17 96.5q0 24 5 48t15.5 45t27 38t39.5 28q-38 20 -55 60.5t-17 86.5q0 39 12 72.5t36.5 57.5t62 37.5t87.5 13.5h317v-223h-260q-30 0 -30 -31q0 -30 30 -30h230v-121h-224q-39 0 -39 -37q0 -35 39 -35h255v-227h-303zM223 747
l-47 59l209 125l66 -91z" />
    <glyph glyph-name="Ecircumflex" unicode="&#xca;" horiz-adv-x="568" 
d="M237 0q-50 0 -92 13t-72 40t-47 67.5t-17 96.5q0 24 5 48t15.5 45t27 38t39.5 28q-38 20 -55 60.5t-17 86.5q0 39 12 72.5t36.5 57.5t62 37.5t87.5 13.5h317v-223h-260q-30 0 -30 -31q0 -30 30 -30h230v-121h-224q-39 0 -39 -37q0 -35 39 -35h255v-227h-303zM443 747
l-149 93l-148 -93l-50 42l158 142h80l158 -142z" />
    <glyph glyph-name="Edieresis" unicode="&#xcb;" horiz-adv-x="568" 
d="M237 0q-50 0 -92 13t-72 40t-47 67.5t-17 96.5q0 24 5 48t15.5 45t27 38t39.5 28q-38 20 -55 60.5t-17 86.5q0 39 12 72.5t36.5 57.5t62 37.5t87.5 13.5h317v-223h-260q-30 0 -30 -31q0 -30 30 -30h230v-121h-224q-39 0 -39 -37q0 -35 39 -35h255v-227h-303zM418 756
q-38 0 -60.5 22.5t-22.5 60.5q0 35 23.5 58.5t59.5 23.5q33 0 56.5 -23.5t23.5 -58.5q0 -36 -23.5 -59.5t-56.5 -23.5zM194 756q-38 0 -61 22.5t-23 60.5q0 35 24 58.5t60 23.5q33 0 56.5 -23.5t23.5 -58.5q0 -36 -23.5 -59.5t-56.5 -23.5z" />
    <glyph glyph-name="Igrave" unicode="&#xcc;" horiz-adv-x="332" 
d="M44 0v704h244v-704h-244zM0 840l66 91l209 -125l-47 -59z" />
    <glyph glyph-name="Iacute" unicode="&#xcd;" horiz-adv-x="332" 
d="M44 0v704h244v-704h-244zM105 747l-47 59l209 125l66 -91z" />
    <glyph glyph-name="Icircumflex" unicode="&#xce;" horiz-adv-x="332" 
d="M44 0v704h244v-704h-244zM316 747l-149 93l-148 -93l-50 42l158 142h80l158 -142z" />
    <glyph glyph-name="Idieresis" unicode="&#xcf;" horiz-adv-x="332" 
d="M44 0v704h244v-704h-244zM281 756q-38 0 -60.5 22.5t-22.5 60.5q0 35 23.5 58.5t59.5 23.5q33 0 56.5 -23.5t23.5 -58.5q0 -36 -23.5 -59.5t-56.5 -23.5zM57 756q-38 0 -61 22.5t-23 60.5q0 35 24 58.5t60 23.5q33 0 56.5 -23.5t23.5 -58.5q0 -36 -23.5 -59.5
t-56.5 -23.5z" />
    <glyph glyph-name="Eth" unicode="&#xd0;" horiz-adv-x="687" 
d="M44 0v282h-44v144h44v278h257q85 0 154.5 -26.5t119 -73t76.5 -110.5t27 -140q0 -83 -28.5 -148.5t-79 -111t-120.5 -70t-154 -24.5h-252zM296 226q40 0 67.5 10t44.5 27t24.5 40t7.5 50q0 26 -7.5 49t-24 40t-43 27t-64.5 10h-15v-53h55v-144h-55v-56h10z" />
    <glyph glyph-name="Ntilde" unicode="&#xd1;" horiz-adv-x="690" 
d="M443 0l-178 274v-274h-223v704h234l149 -233v233h225v-704h-207zM547 870q-4 -18 -14.5 -35.5t-26.5 -32t-36.5 -23.5t-45.5 -9q-29 0 -48 5.5t-35.5 12t-33.5 12t-41 5.5q-14 0 -27 -8t-21 -32l-76 38q4 18 15 35.5t26.5 31.5t36.5 22.5t46 8.5q28 0 48.5 -5.5t38 -12
t34 -12t37.5 -5.5q32 0 45 43z" />
    <glyph glyph-name="Ograve" unicode="&#xd2;" 
d="M351 -13q-80 0 -143 25t-107.5 72t-68 114.5t-23.5 153.5q0 83 23.5 150.5t68 115t107.5 73t143 25.5q79 0 142 -25.5t107 -73t67.5 -115t23.5 -150.5q0 -86 -23.5 -153.5t-67.5 -114.5t-107 -72t-142 -25zM351 213q43 0 70.5 32.5t27.5 106.5q0 75 -24.5 107.5
t-73.5 32.5q-50 0 -74.5 -32.5t-24.5 -107.5q0 -74 27.5 -106.5t71.5 -32.5zM182 840l66 91l209 -125l-47 -59z" />
    <glyph glyph-name="Oacute" unicode="&#xd3;" 
d="M351 -13q-80 0 -143 25t-107.5 72t-68 114.5t-23.5 153.5q0 83 23.5 150.5t68 115t107.5 73t143 25.5q79 0 142 -25.5t107 -73t67.5 -115t23.5 -150.5q0 -86 -23.5 -153.5t-67.5 -114.5t-107 -72t-142 -25zM351 213q43 0 70.5 32.5t27.5 106.5q0 75 -24.5 107.5
t-73.5 32.5q-50 0 -74.5 -32.5t-24.5 -107.5q0 -74 27.5 -106.5t71.5 -32.5zM289 747l-47 59l209 125l66 -91z" />
    <glyph glyph-name="Ocircumflex" unicode="&#xd4;" 
d="M351 -13q-80 0 -143 25t-107.5 72t-68 114.5t-23.5 153.5q0 83 23.5 150.5t68 115t107.5 73t143 25.5q79 0 142 -25.5t107 -73t67.5 -115t23.5 -150.5q0 -86 -23.5 -153.5t-67.5 -114.5t-107 -72t-142 -25zM351 213q43 0 70.5 32.5t27.5 106.5q0 75 -24.5 107.5
t-73.5 32.5q-50 0 -74.5 -32.5t-24.5 -107.5q0 -74 27.5 -106.5t71.5 -32.5zM499 747l-149 93l-148 -93l-50 42l158 142h80l158 -142z" />
    <glyph glyph-name="Otilde" unicode="&#xd5;" 
d="M351 -13q-80 0 -143 25t-107.5 72t-68 114.5t-23.5 153.5q0 83 23.5 150.5t68 115t107.5 73t143 25.5q79 0 142 -25.5t107 -73t67.5 -115t23.5 -150.5q0 -86 -23.5 -153.5t-67.5 -114.5t-107 -72t-142 -25zM351 213q43 0 70.5 32.5t27.5 106.5q0 75 -24.5 107.5
t-73.5 32.5q-50 0 -74.5 -32.5t-24.5 -107.5q0 -74 27.5 -106.5t71.5 -32.5zM552 870q-4 -18 -14.5 -35.5t-26.5 -32t-36.5 -23.5t-45.5 -9q-29 0 -48 5.5t-35.5 12t-33.5 12t-41 5.5q-14 0 -27 -8t-21 -32l-76 38q4 18 15 35.5t26.5 31.5t36.5 22.5t46 8.5q28 0 48.5 -5.5
t38 -12t34 -12t37.5 -5.5q32 0 45 43z" />
    <glyph glyph-name="Odieresis" unicode="&#xd6;" 
d="M351 -13q-80 0 -143 25t-107.5 72t-68 114.5t-23.5 153.5q0 83 23.5 150.5t68 115t107.5 73t143 25.5q79 0 142 -25.5t107 -73t67.5 -115t23.5 -150.5q0 -86 -23.5 -153.5t-67.5 -114.5t-107 -72t-142 -25zM351 213q43 0 70.5 32.5t27.5 106.5q0 75 -24.5 107.5
t-73.5 32.5q-50 0 -74.5 -32.5t-24.5 -107.5q0 -74 27.5 -106.5t71.5 -32.5zM464 756q-38 0 -60.5 22.5t-22.5 60.5q0 35 23.5 58.5t59.5 23.5q33 0 56.5 -23.5t23.5 -58.5q0 -36 -23.5 -59.5t-56.5 -23.5zM240 756q-38 0 -61 22.5t-23 60.5q0 35 24 58.5t60 23.5
q33 0 56.5 -23.5t23.5 -58.5q0 -36 -23.5 -59.5t-56.5 -23.5z" />
    <glyph glyph-name="multiply" unicode="&#xd7;" horiz-adv-x="570" 
d="M431 123l-147 147l-143 -144l-82 82l143 144l-145 145l82 81l145 -145l144 144l82 -82l-144 -144l146 -146z" />
    <glyph glyph-name="Oslash" unicode="&#xd8;" 
d="M391 484q-8 4 -18.5 6t-21.5 2q-50 0 -74.5 -32.5t-24.5 -107.5q0 -47 10 -74zM301 226q20 -13 50 -13q43 0 70.5 32.5t27.5 106.5q0 27 -3.5 48t-9.5 38zM350 -13q-51 0 -94.5 10t-80.5 29l-55 -88l-55 30l58 93q-54 47 -84 120.5t-30 170.5q0 83 23.5 150.5t68 115
t107.5 73t143 25.5q93 0 165 -37l58 94l54 -30l-60 -96q60 -48 91.5 -122.5t31.5 -172.5q0 -86 -23.5 -153.5t-67.5 -114.5t-107 -72t-142 -25h-1z" />
    <glyph glyph-name="Ugrave" unicode="&#xd9;" horiz-adv-x="667" 
d="M386 704h244v-415q0 -148 -74.5 -225t-218.5 -77q-146 0 -224 76.5t-78 224.5v416h244v-440q0 -52 55 -52q28 0 40 13t12 39v440zM166 840l66 91l209 -125l-47 -59z" />
    <glyph glyph-name="Uacute" unicode="&#xda;" horiz-adv-x="667" 
d="M386 704h244v-415q0 -148 -74.5 -225t-218.5 -77q-146 0 -224 76.5t-78 224.5v416h244v-440q0 -52 55 -52q28 0 40 13t12 39v440zM273 747l-47 59l209 125l66 -91z" />
    <glyph glyph-name="Ucircumflex" unicode="&#xdb;" horiz-adv-x="667" 
d="M386 704h244v-415q0 -148 -74.5 -225t-218.5 -77q-146 0 -224 76.5t-78 224.5v416h244v-440q0 -52 55 -52q28 0 40 13t12 39v440zM482 747l-149 93l-148 -93l-50 42l158 142h80l158 -142z" />
    <glyph glyph-name="Udieresis" unicode="&#xdc;" horiz-adv-x="667" 
d="M386 704h244v-415q0 -148 -74.5 -225t-218.5 -77q-146 0 -224 76.5t-78 224.5v416h244v-440q0 -52 55 -52q28 0 40 13t12 39v440zM447 756q-38 0 -60.5 22.5t-22.5 60.5q0 35 23.5 58.5t59.5 23.5q33 0 56.5 -23.5t23.5 -58.5q0 -36 -23.5 -59.5t-56.5 -23.5zM223 756
q-38 0 -61 22.5t-23 60.5q0 35 24 58.5t60 23.5q33 0 56.5 -23.5t23.5 -58.5q0 -36 -23.5 -59.5t-56.5 -23.5z" />
    <glyph glyph-name="Yacute" unicode="&#xdd;" horiz-adv-x="649" 
d="M36 0v225h264q38 0 52 14.5t14 39.5h-102q-110 0 -169.5 57t-59.5 171v197h245v-192q0 -45 16 -60.5t49 -15.5h25v268h243v-432q0 -58 -16.5 -107.5t-47.5 -86t-75 -57.5t-99 -21h-339zM264 747l-47 59l209 125l66 -91z" />
    <glyph glyph-name="Thorn" unicode="&#xde;" horiz-adv-x="638" 
d="M42 0v704h243v-70h75q59 0 108.5 -16.5t85 -51t55.5 -88t20 -126.5q0 -74 -20 -127t-57 -87.5t-88.5 -51t-114.5 -16.5h-64v-70h-243zM331 296q52 0 52 56q0 57 -52 57h-46v-113h46z" />
    <glyph glyph-name="germandbls" unicode="&#xdf;" horiz-adv-x="1292" 
d="M29 0v225h267q46 0 46 40t-46 40h-46q-60 0 -103 14.5t-70.5 40.5t-40.5 62t-13 79q0 91 55 147t161 56h345v-225h-245q-43 0 -43 -38q0 -41 43 -41h93q57 0 96 -16t62.5 -42.5t34 -61.5t10.5 -73q0 -43 -13 -80.5t-41.5 -65.5t-74 -44.5t-109.5 -16.5h-368zM675 0v225
h267q46 0 46 40t-46 40h-46q-60 0 -103 14.5t-70.5 40.5t-40.5 62t-13 79q0 91 55 147t161 56h345v-225h-245q-43 0 -43 -38q0 -41 43 -41h93q57 0 96 -16t62.5 -42.5t34 -61.5t10.5 -73q0 -43 -13 -80.5t-41.5 -65.5t-74 -44.5t-109.5 -16.5h-368z" />
    <glyph glyph-name="agrave" unicode="&#xe0;" horiz-adv-x="671" 
d="M410 0v57q-18 -32 -60 -51t-107 -19q-45 0 -87 12t-75 40.5t-52.5 75t-19.5 114.5q0 64 19 107t53 69t81.5 37t105.5 11h56q6 -2 13 -6.5t12.5 -15.5t9 -29.5t3.5 -48.5q0 -32 -2.5 -50t-7.5 -32h-74q-20 0 -29 -9t-9 -23q0 -13 9 -23.5t29 -10.5q31 0 52.5 6t34.5 22.5
t18.5 45.5t5.5 74q0 38 -5 62.5t-16 38.5t-27.5 19.5t-38.5 5.5h-213v225h309q46 0 89 -16.5t76 -50.5t53 -85t20 -120v-432h-226zM168 840l66 91l209 -125l-47 -59z" />
    <glyph glyph-name="aacute" unicode="&#xe1;" horiz-adv-x="671" 
d="M410 0v57q-18 -32 -60 -51t-107 -19q-45 0 -87 12t-75 40.5t-52.5 75t-19.5 114.5q0 64 19 107t53 69t81.5 37t105.5 11h56q6 -2 13 -6.5t12.5 -15.5t9 -29.5t3.5 -48.5q0 -32 -2.5 -50t-7.5 -32h-74q-20 0 -29 -9t-9 -23q0 -13 9 -23.5t29 -10.5q31 0 52.5 6t34.5 22.5
t18.5 45.5t5.5 74q0 38 -5 62.5t-16 38.5t-27.5 19.5t-38.5 5.5h-213v225h309q46 0 89 -16.5t76 -50.5t53 -85t20 -120v-432h-226zM275 747l-47 59l209 125l66 -91z" />
    <glyph glyph-name="acircumflex" unicode="&#xe2;" horiz-adv-x="671" 
d="M410 0v57q-18 -32 -60 -51t-107 -19q-45 0 -87 12t-75 40.5t-52.5 75t-19.5 114.5q0 64 19 107t53 69t81.5 37t105.5 11h56q6 -2 13 -6.5t12.5 -15.5t9 -29.5t3.5 -48.5q0 -32 -2.5 -50t-7.5 -32h-74q-20 0 -29 -9t-9 -23q0 -13 9 -23.5t29 -10.5q31 0 52.5 6t34.5 22.5
t18.5 45.5t5.5 74q0 38 -5 62.5t-16 38.5t-27.5 19.5t-38.5 5.5h-213v225h309q46 0 89 -16.5t76 -50.5t53 -85t20 -120v-432h-226zM484 747l-149 93l-148 -93l-50 42l158 142h80l158 -142z" />
    <glyph glyph-name="atilde" unicode="&#xe3;" horiz-adv-x="671" 
d="M410 0v57q-18 -32 -60 -51t-107 -19q-45 0 -87 12t-75 40.5t-52.5 75t-19.5 114.5q0 64 19 107t53 69t81.5 37t105.5 11h56q6 -2 13 -6.5t12.5 -15.5t9 -29.5t3.5 -48.5q0 -32 -2.5 -50t-7.5 -32h-74q-20 0 -29 -9t-9 -23q0 -13 9 -23.5t29 -10.5q31 0 52.5 6t34.5 22.5
t18.5 45.5t5.5 74q0 38 -5 62.5t-16 38.5t-27.5 19.5t-38.5 5.5h-213v225h309q46 0 89 -16.5t76 -50.5t53 -85t20 -120v-432h-226zM538 870q-4 -18 -14.5 -35.5t-26.5 -32t-36.5 -23.5t-45.5 -9q-29 0 -48 5.5t-35.5 12t-33.5 12t-41 5.5q-14 0 -27 -8t-21 -32l-76 38
q4 18 15 35.5t26.5 31.5t36.5 22.5t46 8.5q28 0 48.5 -5.5t38 -12t34 -12t37.5 -5.5q32 0 45 43z" />
    <glyph glyph-name="adieresis" unicode="&#xe4;" horiz-adv-x="671" 
d="M410 0v57q-18 -32 -60 -51t-107 -19q-45 0 -87 12t-75 40.5t-52.5 75t-19.5 114.5q0 64 19 107t53 69t81.5 37t105.5 11h56q6 -2 13 -6.5t12.5 -15.5t9 -29.5t3.5 -48.5q0 -32 -2.5 -50t-7.5 -32h-74q-20 0 -29 -9t-9 -23q0 -13 9 -23.5t29 -10.5q31 0 52.5 6t34.5 22.5
t18.5 45.5t5.5 74q0 38 -5 62.5t-16 38.5t-27.5 19.5t-38.5 5.5h-213v225h309q46 0 89 -16.5t76 -50.5t53 -85t20 -120v-432h-226zM459 756q-38 0 -60.5 22.5t-22.5 60.5q0 35 23.5 58.5t59.5 23.5q33 0 56.5 -23.5t23.5 -58.5q0 -36 -23.5 -59.5t-56.5 -23.5zM235 756
q-38 0 -61 22.5t-23 60.5q0 35 24 58.5t60 23.5q33 0 56.5 -23.5t23.5 -58.5q0 -36 -23.5 -59.5t-56.5 -23.5z" />
    <glyph glyph-name="aring" unicode="&#xe5;" horiz-adv-x="671" 
d="M410 0v57q-18 -32 -60 -51t-107 -19q-45 0 -87 12t-75 40.5t-52.5 75t-19.5 114.5q0 64 19 107t53 69t81.5 37t105.5 11h56q6 -2 13 -6.5t12.5 -15.5t9 -29.5t3.5 -48.5q0 -32 -2.5 -50t-7.5 -32h-74q-20 0 -29 -9t-9 -23q0 -13 9 -23.5t29 -10.5q31 0 52.5 6t34.5 22.5
t18.5 45.5t5.5 74q0 38 -5 62.5t-16 38.5t-27.5 19.5t-38.5 5.5h-213v225h309q46 0 89 -16.5t76 -50.5t53 -85t20 -120v-432h-226zM399 833q0 25 -14.5 40t-50.5 15q-35 0 -49 -15t-14 -40q0 -26 14 -42t49 -16q36 0 50.5 16t14.5 42zM484 833q0 -60 -34.5 -94.5
t-115.5 -34.5q-80 0 -113.5 35t-33.5 94q0 58 33.5 93t113.5 35q81 0 115.5 -34.5t34.5 -93.5z" />
    <glyph glyph-name="ae" unicode="&#xe6;" horiz-adv-x="925" 
d="M391 479h-47l-61 -290h108v290zM391 0v58h-139l-13 -58h-239l216 704h689v-225h-287v-61h258v-121h-262v-72h291v-225h-514z" />
    <glyph glyph-name="ccedilla" unicode="&#xe7;" horiz-adv-x="682" 
d="M440 410q-17 82 -91 82q-44 0 -70.5 -36t-26.5 -104t26.5 -103.5t70.5 -35.5q30 0 56 21.5t34 57.5h235q-9 -70 -32.5 -126.5t-63.5 -96t-97 -61t-132 -21.5q-72 0 -134.5 24t-108 70.5t-72 114.5t-26.5 156q0 84 25.5 151t71 114.5t107.5 73t134 25.5q76 0 135 -21
t100.5 -60.5t65 -96t28.5 -128.5h-235zM313 -205q28 6 42 29q-13 -4 -26 -4t-26 5t-23.5 14.5t-17 24t-6.5 33.5q0 37 22 60.5t67 23.5q34 0 57 -21t23 -71q0 -24 -9 -46.5t-24.5 -40t-36 -28.5t-42.5 -13v34z" />
    <glyph glyph-name="egrave" unicode="&#xe8;" horiz-adv-x="640" 
d="M356 0q-75 0 -138.5 23.5t-110 68.5t-72.5 109.5t-26 146.5q0 79 22.5 146.5t65 117t104.5 77t140 27.5q65 0 118.5 -15t91.5 -45.5t59 -76t21 -105.5q0 -53 -13 -95t-40.5 -70.5t-71.5 -43.5t-106 -15h-80q-16 12 -26.5 34.5t-10.5 63.5q0 29 3.5 48t12.5 38h57
q26 0 37 7.5t11 23.5q0 29 -44 29q-51 0 -78 -35.5t-27 -110.5q0 -63 23 -93t54 -30h274v-225h-250zM182 840l66 91l209 -125l-47 -59z" />
    <glyph glyph-name="eacute" unicode="&#xe9;" horiz-adv-x="640" 
d="M356 0q-75 0 -138.5 23.5t-110 68.5t-72.5 109.5t-26 146.5q0 79 22.5 146.5t65 117t104.5 77t140 27.5q65 0 118.5 -15t91.5 -45.5t59 -76t21 -105.5q0 -53 -13 -95t-40.5 -70.5t-71.5 -43.5t-106 -15h-80q-16 12 -26.5 34.5t-10.5 63.5q0 29 3.5 48t12.5 38h57
q26 0 37 7.5t11 23.5q0 29 -44 29q-51 0 -78 -35.5t-27 -110.5q0 -63 23 -93t54 -30h274v-225h-250zM259 747l-47 59l209 125l66 -91z" />
    <glyph glyph-name="ecircumflex" unicode="&#xea;" horiz-adv-x="640" 
d="M356 0q-75 0 -138.5 23.5t-110 68.5t-72.5 109.5t-26 146.5q0 79 22.5 146.5t65 117t104.5 77t140 27.5q65 0 118.5 -15t91.5 -45.5t59 -76t21 -105.5q0 -53 -13 -95t-40.5 -70.5t-71.5 -43.5t-106 -15h-80q-16 12 -26.5 34.5t-10.5 63.5q0 29 3.5 48t12.5 38h57
q26 0 37 7.5t11 23.5q0 29 -44 29q-51 0 -78 -35.5t-27 -110.5q0 -63 23 -93t54 -30h274v-225h-250zM489 747l-149 93l-148 -93l-50 42l158 142h80l158 -142z" />
    <glyph glyph-name="edieresis" unicode="&#xeb;" horiz-adv-x="640" 
d="M356 0q-75 0 -138.5 23.5t-110 68.5t-72.5 109.5t-26 146.5q0 79 22.5 146.5t65 117t104.5 77t140 27.5q65 0 118.5 -15t91.5 -45.5t59 -76t21 -105.5q0 -53 -13 -95t-40.5 -70.5t-71.5 -43.5t-106 -15h-80q-16 12 -26.5 34.5t-10.5 63.5q0 29 3.5 48t12.5 38h57
q26 0 37 7.5t11 23.5q0 29 -44 29q-51 0 -78 -35.5t-27 -110.5q0 -63 23 -93t54 -30h274v-225h-250zM444 756q-38 0 -60.5 22.5t-22.5 60.5q0 35 23.5 58.5t59.5 23.5q33 0 56.5 -23.5t23.5 -58.5q0 -36 -23.5 -59.5t-56.5 -23.5zM220 756q-38 0 -61 22.5t-23 60.5
q0 35 24 58.5t60 23.5q33 0 56.5 -23.5t23.5 -58.5q0 -36 -23.5 -59.5t-56.5 -23.5z" />
    <glyph glyph-name="igrave" unicode="&#xec;" horiz-adv-x="332" 
d="M44 0v704h244v-704h-244zM0 840l66 91l209 -125l-47 -59z" />
    <glyph glyph-name="iacute" unicode="&#xed;" horiz-adv-x="332" 
d="M44 0v704h244v-704h-244zM105 747l-47 59l209 125l66 -91z" />
    <glyph glyph-name="icircumflex" unicode="&#xee;" horiz-adv-x="332" 
d="M44 0v704h244v-704h-244zM316 747l-149 93l-148 -93l-50 42l158 142h80l158 -142z" />
    <glyph glyph-name="idieresis" unicode="&#xef;" horiz-adv-x="332" 
d="M44 0v704h244v-704h-244zM281 756q-38 0 -60.5 22.5t-22.5 60.5q0 35 23.5 58.5t59.5 23.5q33 0 56.5 -23.5t23.5 -58.5q0 -36 -23.5 -59.5t-56.5 -23.5zM57 756q-38 0 -61 22.5t-23 60.5q0 35 24 58.5t60 23.5q33 0 56.5 -23.5t23.5 -58.5q0 -36 -23.5 -59.5
t-56.5 -23.5z" />
    <glyph glyph-name="eth" unicode="&#xf0;" horiz-adv-x="687" 
d="M44 0v282h-44v144h44v278h257q85 0 154.5 -26.5t119 -73t76.5 -110.5t27 -140q0 -83 -28.5 -148.5t-79 -111t-120.5 -70t-154 -24.5h-252zM296 226q40 0 67.5 10t44.5 27t24.5 40t7.5 50q0 26 -7.5 49t-24 40t-43 27t-64.5 10h-15v-53h55v-144h-55v-56h10z" />
    <glyph glyph-name="ntilde" unicode="&#xf1;" horiz-adv-x="672" 
d="M391 0v435q0 30 -15 43t-45 13q-25 0 -38.5 -13t-13.5 -43v-435h-245v414q0 148 75.5 225t221.5 77q148 0 226 -77t78 -225v-414h-244zM538 870q-4 -18 -14.5 -35.5t-26.5 -32t-36.5 -23.5t-45.5 -9q-29 0 -48 5.5t-35.5 12t-33.5 12t-41 5.5q-14 0 -27 -8t-21 -32
l-76 38q4 18 15 35.5t26.5 31.5t36.5 22.5t46 8.5q28 0 48.5 -5.5t38 -12t34 -12t37.5 -5.5q32 0 45 43z" />
    <glyph glyph-name="ograve" unicode="&#xf2;" 
d="M351 -13q-80 0 -143 25t-107.5 72t-68 114.5t-23.5 153.5q0 83 23.5 150.5t68 115t107.5 73t143 25.5q79 0 142 -25.5t107 -73t67.5 -115t23.5 -150.5q0 -86 -23.5 -153.5t-67.5 -114.5t-107 -72t-142 -25zM351 213q43 0 70.5 32.5t27.5 106.5q0 75 -24.5 107.5
t-73.5 32.5q-50 0 -74.5 -32.5t-24.5 -107.5q0 -74 27.5 -106.5t71.5 -32.5zM182 840l66 91l209 -125l-47 -59z" />
    <glyph glyph-name="oacute" unicode="&#xf3;" 
d="M351 -13q-80 0 -143 25t-107.5 72t-68 114.5t-23.5 153.5q0 83 23.5 150.5t68 115t107.5 73t143 25.5q79 0 142 -25.5t107 -73t67.5 -115t23.5 -150.5q0 -86 -23.5 -153.5t-67.5 -114.5t-107 -72t-142 -25zM351 213q43 0 70.5 32.5t27.5 106.5q0 75 -24.5 107.5
t-73.5 32.5q-50 0 -74.5 -32.5t-24.5 -107.5q0 -74 27.5 -106.5t71.5 -32.5zM289 747l-47 59l209 125l66 -91z" />
    <glyph glyph-name="ocircumflex" unicode="&#xf4;" 
d="M351 -13q-80 0 -143 25t-107.5 72t-68 114.5t-23.5 153.5q0 83 23.5 150.5t68 115t107.5 73t143 25.5q79 0 142 -25.5t107 -73t67.5 -115t23.5 -150.5q0 -86 -23.5 -153.5t-67.5 -114.5t-107 -72t-142 -25zM351 213q43 0 70.5 32.5t27.5 106.5q0 75 -24.5 107.5
t-73.5 32.5q-50 0 -74.5 -32.5t-24.5 -107.5q0 -74 27.5 -106.5t71.5 -32.5zM499 747l-149 93l-148 -93l-50 42l158 142h80l158 -142z" />
    <glyph glyph-name="otilde" unicode="&#xf5;" 
d="M351 -13q-80 0 -143 25t-107.5 72t-68 114.5t-23.5 153.5q0 83 23.5 150.5t68 115t107.5 73t143 25.5q79 0 142 -25.5t107 -73t67.5 -115t23.5 -150.5q0 -86 -23.5 -153.5t-67.5 -114.5t-107 -72t-142 -25zM351 213q43 0 70.5 32.5t27.5 106.5q0 75 -24.5 107.5
t-73.5 32.5q-50 0 -74.5 -32.5t-24.5 -107.5q0 -74 27.5 -106.5t71.5 -32.5zM552 870q-4 -18 -14.5 -35.5t-26.5 -32t-36.5 -23.5t-45.5 -9q-29 0 -48 5.5t-35.5 12t-33.5 12t-41 5.5q-14 0 -27 -8t-21 -32l-76 38q4 18 15 35.5t26.5 31.5t36.5 22.5t46 8.5q28 0 48.5 -5.5
t38 -12t34 -12t37.5 -5.5q32 0 45 43z" />
    <glyph glyph-name="odieresis" unicode="&#xf6;" 
d="M351 -13q-80 0 -143 25t-107.5 72t-68 114.5t-23.5 153.5q0 83 23.5 150.5t68 115t107.5 73t143 25.5q79 0 142 -25.5t107 -73t67.5 -115t23.5 -150.5q0 -86 -23.5 -153.5t-67.5 -114.5t-107 -72t-142 -25zM351 213q43 0 70.5 32.5t27.5 106.5q0 75 -24.5 107.5
t-73.5 32.5q-50 0 -74.5 -32.5t-24.5 -107.5q0 -74 27.5 -106.5t71.5 -32.5zM464 756q-38 0 -60.5 22.5t-22.5 60.5q0 35 23.5 58.5t59.5 23.5q33 0 56.5 -23.5t23.5 -58.5q0 -36 -23.5 -59.5t-56.5 -23.5zM240 756q-38 0 -61 22.5t-23 60.5q0 35 24 58.5t60 23.5
q33 0 56.5 -23.5t23.5 -58.5q0 -36 -23.5 -59.5t-56.5 -23.5z" />
    <glyph glyph-name="divide" unicode="&#xf7;" horiz-adv-x="570" 
d="M24 294v116h522v-116h-522zM287 455q-28 0 -51.5 9.5t-41 26.5t-27 40.5t-9.5 50.5q0 56 36 92t93 36q25 0 48 -9.5t40 -26.5t27 -40.5t10 -51.5q0 -27 -10 -50.5t-27 -40.5t-40 -26.5t-48 -9.5zM287 -5q-28 0 -51.5 9.5t-41 26.5t-27 40.5t-9.5 50.5q0 56 36 92t93 36
q25 0 48 -9.5t40 -26.5t27 -40.5t10 -51.5q0 -27 -10 -50.5t-27 -40.5t-40 -26.5t-48 -9.5z" />
    <glyph glyph-name="oslash" unicode="&#xf8;" 
d="M391 484q-8 4 -18.5 6t-21.5 2q-50 0 -74.5 -32.5t-24.5 -107.5q0 -47 10 -74zM301 226q20 -13 50 -13q43 0 70.5 32.5t27.5 106.5q0 27 -3.5 48t-9.5 38zM350 -13q-51 0 -94.5 10t-80.5 29l-55 -88l-55 30l58 93q-54 47 -84 120.5t-30 170.5q0 83 23.5 150.5t68 115
t107.5 73t143 25.5q93 0 165 -37l58 94l54 -30l-60 -96q60 -48 91.5 -122.5t31.5 -172.5q0 -86 -23.5 -153.5t-67.5 -114.5t-107 -72t-142 -25h-1z" />
    <glyph glyph-name="ugrave" unicode="&#xf9;" horiz-adv-x="667" 
d="M386 704h244v-415q0 -148 -74.5 -225t-218.5 -77q-146 0 -224 76.5t-78 224.5v416h244v-440q0 -52 55 -52q28 0 40 13t12 39v440zM166 840l66 91l209 -125l-47 -59z" />
    <glyph glyph-name="uacute" unicode="&#xfa;" horiz-adv-x="667" 
d="M386 704h244v-415q0 -148 -74.5 -225t-218.5 -77q-146 0 -224 76.5t-78 224.5v416h244v-440q0 -52 55 -52q28 0 40 13t12 39v440zM273 747l-47 59l209 125l66 -91z" />
    <glyph glyph-name="ucircumflex" unicode="&#xfb;" horiz-adv-x="667" 
d="M386 704h244v-415q0 -148 -74.5 -225t-218.5 -77q-146 0 -224 76.5t-78 224.5v416h244v-440q0 -52 55 -52q28 0 40 13t12 39v440zM482 747l-149 93l-148 -93l-50 42l158 142h80l158 -142z" />
    <glyph glyph-name="udieresis" unicode="&#xfc;" horiz-adv-x="667" 
d="M386 704h244v-415q0 -148 -74.5 -225t-218.5 -77q-146 0 -224 76.5t-78 224.5v416h244v-440q0 -52 55 -52q28 0 40 13t12 39v440zM447 756q-38 0 -60.5 22.5t-22.5 60.5q0 35 23.5 58.5t59.5 23.5q33 0 56.5 -23.5t23.5 -58.5q0 -36 -23.5 -59.5t-56.5 -23.5zM223 756
q-38 0 -61 22.5t-23 60.5q0 35 24 58.5t60 23.5q33 0 56.5 -23.5t23.5 -58.5q0 -36 -23.5 -59.5t-56.5 -23.5z" />
    <glyph glyph-name="yacute" unicode="&#xfd;" horiz-adv-x="649" 
d="M36 0v225h264q38 0 52 14.5t14 39.5h-102q-110 0 -169.5 57t-59.5 171v197h245v-192q0 -45 16 -60.5t49 -15.5h25v268h243v-432q0 -58 -16.5 -107.5t-47.5 -86t-75 -57.5t-99 -21h-339zM264 747l-47 59l209 125l66 -91z" />
    <glyph glyph-name="thorn" unicode="&#xfe;" horiz-adv-x="638" 
d="M42 0v704h243v-70h75q59 0 108.5 -16.5t85 -51t55.5 -88t20 -126.5q0 -74 -20 -127t-57 -87.5t-88.5 -51t-114.5 -16.5h-64v-70h-243zM331 296q52 0 52 56q0 57 -52 57h-46v-113h46z" />
    <glyph glyph-name="ydieresis" unicode="&#xff;" horiz-adv-x="649" 
d="M36 0v225h264q38 0 52 14.5t14 39.5h-102q-110 0 -169.5 57t-59.5 171v197h245v-192q0 -45 16 -60.5t49 -15.5h25v268h243v-432q0 -58 -16.5 -107.5t-47.5 -86t-75 -57.5t-99 -21h-339zM438 756q-38 0 -60.5 22.5t-22.5 60.5q0 35 23.5 58.5t59.5 23.5q33 0 56.5 -23.5
t23.5 -58.5q0 -36 -23.5 -59.5t-56.5 -23.5zM214 756q-38 0 -61 22.5t-23 60.5q0 35 24 58.5t60 23.5q33 0 56.5 -23.5t23.5 -58.5q0 -36 -23.5 -59.5t-56.5 -23.5z" />
    <glyph glyph-name="Amacron" unicode="&#x100;" horiz-adv-x="676" 
d="M313 336l-30 -147h61zM391 0l-15 58h-124l-13 -58h-239l216 704h244l216 -704h-285zM160 773v134h356v-134h-356z" />
    <glyph glyph-name="amacron" unicode="&#x101;" horiz-adv-x="671" 
d="M410 0v57q-18 -32 -60 -51t-107 -19q-45 0 -87 12t-75 40.5t-52.5 75t-19.5 114.5q0 64 19 107t53 69t81.5 37t105.5 11h56q6 -2 13 -6.5t12.5 -15.5t9 -29.5t3.5 -48.5q0 -32 -2.5 -50t-7.5 -32h-74q-20 0 -29 -9t-9 -23q0 -13 9 -23.5t29 -10.5q31 0 52.5 6t34.5 22.5
t18.5 45.5t5.5 74q0 38 -5 62.5t-16 38.5t-27.5 19.5t-38.5 5.5h-213v225h309q46 0 89 -16.5t76 -50.5t53 -85t20 -120v-432h-226zM157 773v134h356v-134h-356z" />
    <glyph glyph-name="Abreve" unicode="&#x102;" horiz-adv-x="676" 
d="M313 336l-30 -147h61zM391 0l-15 58h-124l-13 -58h-239l216 704h244l216 -704h-285zM536 889q-7 -24 -23 -49.5t-41 -46t-58.5 -33.5t-75.5 -13q-41 0 -75.5 13t-60.5 33.5t-42 46t-20 49.5l68 42q16 -51 50 -72t78 -21q45 0 78 21t53 72z" />
    <glyph glyph-name="abreve" unicode="&#x103;" horiz-adv-x="671" 
d="M410 0v57q-18 -32 -60 -51t-107 -19q-45 0 -87 12t-75 40.5t-52.5 75t-19.5 114.5q0 64 19 107t53 69t81.5 37t105.5 11h56q6 -2 13 -6.5t12.5 -15.5t9 -29.5t3.5 -48.5q0 -32 -2.5 -50t-7.5 -32h-74q-20 0 -29 -9t-9 -23q0 -13 9 -23.5t29 -10.5q31 0 52.5 6t34.5 22.5
t18.5 45.5t5.5 74q0 38 -5 62.5t-16 38.5t-27.5 19.5t-38.5 5.5h-213v225h309q46 0 89 -16.5t76 -50.5t53 -85t20 -120v-432h-226zM543 889q-7 -24 -23 -49.5t-41 -46t-58.5 -33.5t-75.5 -13q-41 0 -75.5 13t-60.5 33.5t-42 46t-20 49.5l68 42q16 -51 50 -72t78 -21
q45 0 78 21t53 72z" />
    <glyph glyph-name="Aogonek" unicode="&#x104;" horiz-adv-x="676" 
d="M555 -239q-51 0 -81 25t-30 76q0 33 23 60t72 49l65 29h-213l-15 58h-124l-13 -58h-239l216 704h244l216 -704l-101 -49q-11 -6 -11 -14q0 -14 20 -14h92v-162h-121zM313 336l-30 -147h61z" />
    <glyph glyph-name="aogonek" unicode="&#x105;" horiz-adv-x="671" 
d="M515 -239q-51 0 -81 25t-30 76q0 33 23 60t72 49l65 29h-154v57q-18 -32 -60 -51t-107 -19q-45 0 -87 12t-75 40.5t-52.5 75t-19.5 114.5q0 64 19 107t53 69t81.5 37t105.5 11h56q6 -2 13 -6.5t12.5 -15.5t9 -29.5t3.5 -48.5q0 -32 -2.5 -50t-7.5 -32h-74q-20 0 -29 -9
t-9 -23q0 -13 9 -23.5t29 -10.5q31 0 52.5 6t34.5 22.5t18.5 45.5t5.5 74q0 38 -5 62.5t-16 38.5t-27.5 19.5t-38.5 5.5h-213v225h309q46 0 89 -16.5t76 -50.5t53 -85t20 -120v-432l-101 -49q-11 -6 -11 -14q0 -14 20 -14h92v-162h-121z" />
    <glyph glyph-name="Cacute" unicode="&#x106;" horiz-adv-x="682" 
d="M440 410q-17 82 -91 82q-44 0 -70.5 -36t-26.5 -104t26.5 -103.5t70.5 -35.5q30 0 56 21.5t34 57.5h235q-9 -70 -32.5 -126.5t-63.5 -96t-97 -61t-132 -21.5q-72 0 -134.5 24t-108 70.5t-72 114.5t-26.5 156q0 84 25.5 151t71 114.5t107.5 73t134 25.5q76 0 135 -21
t100.5 -60.5t65 -96t28.5 -128.5h-235zM280 747l-47 59l209 125l66 -91z" />
    <glyph glyph-name="cacute" unicode="&#x107;" horiz-adv-x="682" 
d="M440 410q-17 82 -91 82q-44 0 -70.5 -36t-26.5 -104t26.5 -103.5t70.5 -35.5q30 0 56 21.5t34 57.5h235q-9 -70 -32.5 -126.5t-63.5 -96t-97 -61t-132 -21.5q-72 0 -134.5 24t-108 70.5t-72 114.5t-26.5 156q0 84 25.5 151t71 114.5t107.5 73t134 25.5q76 0 135 -21
t100.5 -60.5t65 -96t28.5 -128.5h-235zM280 747l-47 59l209 125l66 -91z" />
    <glyph glyph-name="Ccircumflex" unicode="&#x108;" horiz-adv-x="682" 
d="M440 410q-17 82 -91 82q-44 0 -70.5 -36t-26.5 -104t26.5 -103.5t70.5 -35.5q30 0 56 21.5t34 57.5h235q-9 -70 -32.5 -126.5t-63.5 -96t-97 -61t-132 -21.5q-72 0 -134.5 24t-108 70.5t-72 114.5t-26.5 156q0 84 25.5 151t71 114.5t107.5 73t134 25.5q76 0 135 -21
t100.5 -60.5t65 -96t28.5 -128.5h-235zM490 747l-149 93l-148 -93l-50 42l158 142h80l158 -142z" />
    <glyph glyph-name="ccircumflex" unicode="&#x109;" horiz-adv-x="682" 
d="M440 410q-17 82 -91 82q-44 0 -70.5 -36t-26.5 -104t26.5 -103.5t70.5 -35.5q30 0 56 21.5t34 57.5h235q-9 -70 -32.5 -126.5t-63.5 -96t-97 -61t-132 -21.5q-72 0 -134.5 24t-108 70.5t-72 114.5t-26.5 156q0 84 25.5 151t71 114.5t107.5 73t134 25.5q76 0 135 -21
t100.5 -60.5t65 -96t28.5 -128.5h-235zM490 747l-149 93l-148 -93l-50 42l158 142h80l158 -142z" />
    <glyph glyph-name="Cdotaccent" unicode="&#x10a;" horiz-adv-x="682" 
d="M440 410q-17 82 -91 82q-44 0 -70.5 -36t-26.5 -104t26.5 -103.5t70.5 -35.5q30 0 56 21.5t34 57.5h235q-9 -70 -32.5 -126.5t-63.5 -96t-97 -61t-132 -21.5q-72 0 -134.5 24t-108 70.5t-72 114.5t-26.5 156q0 84 25.5 151t71 114.5t107.5 73t134 25.5q76 0 135 -21
t100.5 -60.5t65 -96t28.5 -128.5h-235zM343 756q-38 0 -61 22.5t-23 60.5q0 35 24 58.5t60 23.5q33 0 56.5 -23.5t23.5 -58.5q0 -36 -23.5 -59.5t-56.5 -23.5z" />
    <glyph glyph-name="cdotaccent" unicode="&#x10b;" horiz-adv-x="682" 
d="M440 410q-17 82 -91 82q-44 0 -70.5 -36t-26.5 -104t26.5 -103.5t70.5 -35.5q30 0 56 21.5t34 57.5h235q-9 -70 -32.5 -126.5t-63.5 -96t-97 -61t-132 -21.5q-72 0 -134.5 24t-108 70.5t-72 114.5t-26.5 156q0 84 25.5 151t71 114.5t107.5 73t134 25.5q76 0 135 -21
t100.5 -60.5t65 -96t28.5 -128.5h-235zM343 756q-38 0 -61 22.5t-23 60.5q0 35 24 58.5t60 23.5q33 0 56.5 -23.5t23.5 -58.5q0 -36 -23.5 -59.5t-56.5 -23.5z" />
    <glyph glyph-name="Ccaron" unicode="&#x10c;" horiz-adv-x="682" 
d="M440 410q-17 82 -91 82q-44 0 -70.5 -36t-26.5 -104t26.5 -103.5t70.5 -35.5q30 0 56 21.5t34 57.5h235q-9 -70 -32.5 -126.5t-63.5 -96t-97 -61t-132 -21.5q-72 0 -134.5 24t-108 70.5t-72 114.5t-26.5 156q0 84 25.5 151t71 114.5t107.5 73t134 25.5q76 0 135 -21
t100.5 -60.5t65 -96t28.5 -128.5h-235zM381 747h-80l-158 142l50 42l148 -93l149 93l49 -42z" />
    <glyph glyph-name="ccaron" unicode="&#x10d;" horiz-adv-x="682" 
d="M440 410q-17 82 -91 82q-44 0 -70.5 -36t-26.5 -104t26.5 -103.5t70.5 -35.5q30 0 56 21.5t34 57.5h235q-9 -70 -32.5 -126.5t-63.5 -96t-97 -61t-132 -21.5q-72 0 -134.5 24t-108 70.5t-72 114.5t-26.5 156q0 84 25.5 151t71 114.5t107.5 73t134 25.5q76 0 135 -21
t100.5 -60.5t65 -96t28.5 -128.5h-235zM381 747h-80l-158 142l50 42l148 -93l149 93l49 -42z" />
    <glyph glyph-name="Dcaron" unicode="&#x10e;" horiz-adv-x="684" 
d="M294 226q40 0 67.5 10t44.5 27t25 40t8 50q0 26 -7.5 49t-24.5 40t-43.5 27t-64.5 10h-15v-253h10zM41 0v704h258q85 0 154 -26.5t118.5 -73t76.5 -110.5t27 -140q0 -83 -28 -148.5t-78.5 -111t-120.5 -70t-154 -24.5h-253zM342 747h-80l-158 142l50 42l148 -93l149 93
l49 -42z" />
    <glyph glyph-name="dcaron" unicode="&#x10f;" horiz-adv-x="684" 
d="M294 226q40 0 67.5 10t44.5 27t25 40t8 50q0 26 -7.5 49t-24.5 40t-43.5 27t-64.5 10h-15v-253h10zM41 0v704h258q85 0 154 -26.5t118.5 -73t76.5 -110.5t27 -140q0 -83 -28 -148.5t-78.5 -111t-120.5 -70t-154 -24.5h-253zM342 747h-80l-158 142l50 42l148 -93l149 93
l49 -42z" />
    <glyph glyph-name="Dcroat" unicode="&#x110;" horiz-adv-x="687" 
d="M44 0v282h-44v144h44v278h257q85 0 154.5 -26.5t119 -73t76.5 -110.5t27 -140q0 -83 -28.5 -148.5t-79 -111t-120.5 -70t-154 -24.5h-252zM296 226q40 0 67.5 10t44.5 27t24.5 40t7.5 50q0 26 -7.5 49t-24 40t-43 27t-64.5 10h-15v-53h55v-144h-55v-56h10z" />
    <glyph glyph-name="dcroat" unicode="&#x111;" horiz-adv-x="687" 
d="M44 0v282h-44v144h44v278h257q85 0 154.5 -26.5t119 -73t76.5 -110.5t27 -140q0 -83 -28.5 -148.5t-79 -111t-120.5 -70t-154 -24.5h-252zM296 226q40 0 67.5 10t44.5 27t24.5 40t7.5 50q0 26 -7.5 49t-24 40t-43 27t-64.5 10h-15v-53h55v-144h-55v-56h10z" />
    <glyph glyph-name="Emacron" unicode="&#x112;" horiz-adv-x="568" 
d="M237 0q-50 0 -92 13t-72 40t-47 67.5t-17 96.5q0 24 5 48t15.5 45t27 38t39.5 28q-38 20 -55 60.5t-17 86.5q0 39 12 72.5t36.5 57.5t62 37.5t87.5 13.5h317v-223h-260q-30 0 -30 -31q0 -30 30 -30h230v-121h-224q-39 0 -39 -37q0 -35 39 -35h255v-227h-303zM126 773v134
h356v-134h-356z" />
    <glyph glyph-name="emacron" unicode="&#x113;" horiz-adv-x="640" 
d="M356 0q-75 0 -138.5 23.5t-110 68.5t-72.5 109.5t-26 146.5q0 79 22.5 146.5t65 117t104.5 77t140 27.5q65 0 118.5 -15t91.5 -45.5t59 -76t21 -105.5q0 -53 -13 -95t-40.5 -70.5t-71.5 -43.5t-106 -15h-80q-16 12 -26.5 34.5t-10.5 63.5q0 29 3.5 48t12.5 38h57
q26 0 37 7.5t11 23.5q0 29 -44 29q-51 0 -78 -35.5t-27 -110.5q0 -63 23 -93t54 -30h274v-225h-250zM162 773v134h356v-134h-356z" />
    <glyph glyph-name="Ebreve" unicode="&#x114;" horiz-adv-x="568" 
d="M237 0q-50 0 -92 13t-72 40t-47 67.5t-17 96.5q0 24 5 48t15.5 45t27 38t39.5 28q-38 20 -55 60.5t-17 86.5q0 39 12 72.5t36.5 57.5t62 37.5t87.5 13.5h317v-223h-260q-30 0 -30 -31q0 -30 30 -30h230v-121h-224q-39 0 -39 -37q0 -35 39 -35h255v-227h-303zM492 889
q-7 -24 -23 -49.5t-41 -46t-58.5 -33.5t-75.5 -13q-41 0 -75.5 13t-60.5 33.5t-42 46t-20 49.5l68 42q16 -51 50 -72t78 -21q45 0 78 21t53 72z" />
    <glyph glyph-name="ebreve" unicode="&#x115;" horiz-adv-x="640" 
d="M356 0q-75 0 -138.5 23.5t-110 68.5t-72.5 109.5t-26 146.5q0 79 22.5 146.5t65 117t104.5 77t140 27.5q65 0 118.5 -15t91.5 -45.5t59 -76t21 -105.5q0 -53 -13 -95t-40.5 -70.5t-71.5 -43.5t-106 -15h-80q-16 12 -26.5 34.5t-10.5 63.5q0 29 3.5 48t12.5 38h57
q26 0 37 7.5t11 23.5q0 29 -44 29q-51 0 -78 -35.5t-27 -110.5q0 -63 23 -93t54 -30h274v-225h-250zM538 889q-7 -24 -23 -49.5t-41 -46t-58.5 -33.5t-75.5 -13q-41 0 -75.5 13t-60.5 33.5t-42 46t-20 49.5l68 42q16 -51 50 -72t78 -21q45 0 78 21t53 72z" />
    <glyph glyph-name="Edotaccent" unicode="&#x116;" horiz-adv-x="568" 
d="M237 0q-50 0 -92 13t-72 40t-47 67.5t-17 96.5q0 24 5 48t15.5 45t27 38t39.5 28q-38 20 -55 60.5t-17 86.5q0 39 12 72.5t36.5 57.5t62 37.5t87.5 13.5h317v-223h-260q-30 0 -30 -31q0 -30 30 -30h230v-121h-224q-39 0 -39 -37q0 -35 39 -35h255v-227h-303zM306 756
q-38 0 -61 22.5t-23 60.5q0 35 24 58.5t60 23.5q33 0 56.5 -23.5t23.5 -58.5q0 -36 -23.5 -59.5t-56.5 -23.5z" />
    <glyph glyph-name="edotaccent" unicode="&#x117;" horiz-adv-x="640" 
d="M356 0q-75 0 -138.5 23.5t-110 68.5t-72.5 109.5t-26 146.5q0 79 22.5 146.5t65 117t104.5 77t140 27.5q65 0 118.5 -15t91.5 -45.5t59 -76t21 -105.5q0 -53 -13 -95t-40.5 -70.5t-71.5 -43.5t-106 -15h-80q-16 12 -26.5 34.5t-10.5 63.5q0 29 3.5 48t12.5 38h57
q26 0 37 7.5t11 23.5q0 29 -44 29q-51 0 -78 -35.5t-27 -110.5q0 -63 23 -93t54 -30h274v-225h-250zM342 756q-38 0 -61 22.5t-23 60.5q0 35 24 58.5t60 23.5q33 0 56.5 -23.5t23.5 -58.5q0 -36 -23.5 -59.5t-56.5 -23.5z" />
    <glyph glyph-name="Eogonek" unicode="&#x118;" horiz-adv-x="568" 
d="M419 -239q-51 0 -81 25t-30 76q0 33 23 60t72 49l65 29h-231q-50 0 -92 13t-72 40t-47 67.5t-17 96.5q0 24 5 48t15.5 45t27 38t39.5 28q-38 20 -55 60.5t-17 86.5q0 39 12 72.5t36.5 57.5t62 37.5t87.5 13.5h317v-223h-260q-30 0 -30 -31q0 -30 30 -30h230v-121h-224
q-39 0 -39 -37q0 -35 39 -35h255v-227l-101 -49q-11 -6 -11 -14q0 -14 20 -14h92v-162h-121z" />
    <glyph glyph-name="eogonek" unicode="&#x119;" horiz-adv-x="640" 
d="M485 -239q-51 0 -81 25t-30 76q0 33 23 60t72 49l65 29h-178q-75 0 -138.5 23.5t-110 68.5t-72.5 109.5t-26 146.5q0 79 22.5 146.5t65 117t104.5 77t140 27.5q65 0 118.5 -15t91.5 -45.5t59 -76t21 -105.5q0 -53 -13 -95t-40.5 -70.5t-71.5 -43.5t-106 -15h-80
q-16 12 -26.5 34.5t-10.5 63.5q0 29 3.5 48t12.5 38h57q26 0 37 7.5t11 23.5q0 29 -44 29q-51 0 -78 -35.5t-27 -110.5q0 -63 23 -93t54 -30h274v-225l-101 -49q-11 -6 -11 -14q0 -14 20 -14h92v-162h-121z" />
    <glyph glyph-name="Ecaron" unicode="&#x11a;" horiz-adv-x="568" 
d="M237 0q-50 0 -92 13t-72 40t-47 67.5t-17 96.5q0 24 5 48t15.5 45t27 38t39.5 28q-38 20 -55 60.5t-17 86.5q0 39 12 72.5t36.5 57.5t62 37.5t87.5 13.5h317v-223h-260q-30 0 -30 -31q0 -30 30 -30h230v-121h-224q-39 0 -39 -37q0 -35 39 -35h255v-227h-303zM344 747h-80
l-158 142l50 42l148 -93l149 93l49 -42z" />
    <glyph glyph-name="ecaron" unicode="&#x11b;" horiz-adv-x="640" 
d="M356 0q-75 0 -138.5 23.5t-110 68.5t-72.5 109.5t-26 146.5q0 79 22.5 146.5t65 117t104.5 77t140 27.5q65 0 118.5 -15t91.5 -45.5t59 -76t21 -105.5q0 -53 -13 -95t-40.5 -70.5t-71.5 -43.5t-106 -15h-80q-16 12 -26.5 34.5t-10.5 63.5q0 29 3.5 48t12.5 38h57
q26 0 37 7.5t11 23.5q0 29 -44 29q-51 0 -78 -35.5t-27 -110.5q0 -63 23 -93t54 -30h274v-225h-250zM380 747h-80l-158 142l50 42l148 -93l149 93l49 -42z" />
    <glyph glyph-name="Gcircumflex" unicode="&#x11c;" horiz-adv-x="718" 
d="M522 0v55q-26 -30 -74 -49t-102 -19q-72 0 -134.5 25t-108 72.5t-72 115t-26.5 152.5q0 83 26.5 150.5t72 115t107.5 73t133 25.5q155 0 242.5 -81t97.5 -225h-245q-7 40 -31.5 61t-61.5 21q-43 0 -70 -36t-27 -104q0 -40 8.5 -67.5t22.5 -44.5t31 -24.5t35 -7.5
q37 0 56.5 20t27.5 51h-99v88h356v-367h-165zM508 747l-149 93l-148 -93l-50 42l158 142h80l158 -142z" />
    <glyph glyph-name="gcircumflex" unicode="&#x11d;" horiz-adv-x="718" 
d="M522 0v55q-26 -30 -74 -49t-102 -19q-72 0 -134.5 25t-108 72.5t-72 115t-26.5 152.5q0 83 26.5 150.5t72 115t107.5 73t133 25.5q155 0 242.5 -81t97.5 -225h-245q-7 40 -31.5 61t-61.5 21q-43 0 -70 -36t-27 -104q0 -40 8.5 -67.5t22.5 -44.5t31 -24.5t35 -7.5
q37 0 56.5 20t27.5 51h-99v88h356v-367h-165zM508 747l-149 93l-148 -93l-50 42l158 142h80l158 -142z" />
    <glyph glyph-name="Gbreve" unicode="&#x11e;" horiz-adv-x="718" 
d="M522 0v55q-26 -30 -74 -49t-102 -19q-72 0 -134.5 25t-108 72.5t-72 115t-26.5 152.5q0 83 26.5 150.5t72 115t107.5 73t133 25.5q155 0 242.5 -81t97.5 -225h-245q-7 40 -31.5 61t-61.5 21q-43 0 -70 -36t-27 -104q0 -40 8.5 -67.5t22.5 -44.5t31 -24.5t35 -7.5
q37 0 56.5 20t27.5 51h-99v88h356v-367h-165zM557 889q-7 -24 -23 -49.5t-41 -46t-58.5 -33.5t-75.5 -13q-41 0 -75.5 13t-60.5 33.5t-42 46t-20 49.5l68 42q16 -51 50 -72t78 -21q45 0 78 21t53 72z" />
    <glyph glyph-name="gbreve" unicode="&#x11f;" horiz-adv-x="718" 
d="M522 0v55q-26 -30 -74 -49t-102 -19q-72 0 -134.5 25t-108 72.5t-72 115t-26.5 152.5q0 83 26.5 150.5t72 115t107.5 73t133 25.5q155 0 242.5 -81t97.5 -225h-245q-7 40 -31.5 61t-61.5 21q-43 0 -70 -36t-27 -104q0 -40 8.5 -67.5t22.5 -44.5t31 -24.5t35 -7.5
q37 0 56.5 20t27.5 51h-99v88h356v-367h-165zM557 889q-7 -24 -23 -49.5t-41 -46t-58.5 -33.5t-75.5 -13q-41 0 -75.5 13t-60.5 33.5t-42 46t-20 49.5l68 42q16 -51 50 -72t78 -21q45 0 78 21t53 72z" />
    <glyph glyph-name="Gdotaccent" unicode="&#x120;" horiz-adv-x="718" 
d="M522 0v55q-26 -30 -74 -49t-102 -19q-72 0 -134.5 25t-108 72.5t-72 115t-26.5 152.5q0 83 26.5 150.5t72 115t107.5 73t133 25.5q155 0 242.5 -81t97.5 -225h-245q-7 40 -31.5 61t-61.5 21q-43 0 -70 -36t-27 -104q0 -40 8.5 -67.5t22.5 -44.5t31 -24.5t35 -7.5
q37 0 56.5 20t27.5 51h-99v88h356v-367h-165zM361 756q-38 0 -61 22.5t-23 60.5q0 35 24 58.5t60 23.5q33 0 56.5 -23.5t23.5 -58.5q0 -36 -23.5 -59.5t-56.5 -23.5z" />
    <glyph glyph-name="gdotaccent" unicode="&#x121;" horiz-adv-x="718" 
d="M522 0v55q-26 -30 -74 -49t-102 -19q-72 0 -134.5 25t-108 72.5t-72 115t-26.5 152.5q0 83 26.5 150.5t72 115t107.5 73t133 25.5q155 0 242.5 -81t97.5 -225h-245q-7 40 -31.5 61t-61.5 21q-43 0 -70 -36t-27 -104q0 -40 8.5 -67.5t22.5 -44.5t31 -24.5t35 -7.5
q37 0 56.5 20t27.5 51h-99v88h356v-367h-165zM361 756q-38 0 -61 22.5t-23 60.5q0 35 24 58.5t60 23.5q33 0 56.5 -23.5t23.5 -58.5q0 -36 -23.5 -59.5t-56.5 -23.5z" />
    <glyph glyph-name="Gcommaaccent" unicode="&#x122;" horiz-adv-x="718" 
d="M522 0v55q-26 -30 -74 -49t-102 -19q-72 0 -134.5 25t-108 72.5t-72 115t-26.5 152.5q0 83 26.5 150.5t72 115t107.5 73t133 25.5q155 0 242.5 -81t97.5 -225h-245q-7 40 -31.5 61t-61.5 21q-43 0 -70 -36t-27 -104q0 -40 8.5 -67.5t22.5 -44.5t31 -24.5t35 -7.5
q37 0 56.5 20t27.5 51h-99v88h356v-367h-165zM331 -205q28 6 42 29q-13 -4 -26 -4t-26 5t-23.5 14.5t-17 24t-6.5 33.5q0 37 22 60.5t67 23.5q34 0 57 -21t23 -71q0 -24 -9 -46.5t-24.5 -40t-36 -28.5t-42.5 -13v34z" />
    <glyph glyph-name="gcommaaccent" unicode="&#x123;" horiz-adv-x="718" 
d="M522 0v55q-26 -30 -74 -49t-102 -19q-72 0 -134.5 25t-108 72.5t-72 115t-26.5 152.5q0 83 26.5 150.5t72 115t107.5 73t133 25.5q155 0 242.5 -81t97.5 -225h-245q-7 40 -31.5 61t-61.5 21q-43 0 -70 -36t-27 -104q0 -40 8.5 -67.5t22.5 -44.5t31 -24.5t35 -7.5
q37 0 56.5 20t27.5 51h-99v88h356v-367h-165zM331 -205q28 6 42 29q-13 -4 -26 -4t-26 5t-23.5 14.5t-17 24t-6.5 33.5q0 37 22 60.5t67 23.5q34 0 57 -21t23 -71q0 -24 -9 -46.5t-24.5 -40t-36 -28.5t-42.5 -13v34z" />
    <glyph glyph-name="Hcircumflex" unicode="&#x124;" horiz-adv-x="682" 
d="M397 0v247h-112v-247h-243v704h243v-232h112v232h244v-704h-244zM490 747l-149 93l-148 -93l-50 42l158 142h80l158 -142z" />
    <glyph glyph-name="hcircumflex" unicode="&#x125;" horiz-adv-x="682" 
d="M397 0v247h-112v-247h-243v704h243v-232h112v232h244v-704h-244zM490 747l-149 93l-148 -93l-50 42l158 142h80l158 -142z" />
    <glyph glyph-name="Hbar" unicode="&#x126;" horiz-adv-x="682" 
d="M397 0v247h-112v-247h-243v704h243v-52h112v52h244v-704h-244zM397 472v46h-112v-46h112z" />
    <glyph glyph-name="hbar" unicode="&#x127;" horiz-adv-x="682" 
d="M397 0v247h-112v-247h-243v704h243v-52h112v52h244v-704h-244zM397 472v46h-112v-46h112z" />
    <glyph glyph-name="Itilde" unicode="&#x128;" horiz-adv-x="332" 
d="M44 0v704h244v-704h-244zM370 870q-4 -18 -14.5 -35.5t-26.5 -32t-36.5 -23.5t-45.5 -9q-29 0 -48 5.5t-35.5 12t-33.5 12t-41 5.5q-14 0 -27 -8t-21 -32l-76 38q4 18 15 35.5t26.5 31.5t36.5 22.5t46 8.5q28 0 48.5 -5.5t38 -12t34 -12t37.5 -5.5q32 0 45 43z" />
    <glyph glyph-name="itilde" unicode="&#x129;" horiz-adv-x="332" 
d="M44 0v704h244v-704h-244zM370 870q-4 -18 -14.5 -35.5t-26.5 -32t-36.5 -23.5t-45.5 -9q-29 0 -48 5.5t-35.5 12t-33.5 12t-41 5.5q-14 0 -27 -8t-21 -32l-76 38q4 18 15 35.5t26.5 31.5t36.5 22.5t46 8.5q28 0 48.5 -5.5t38 -12t34 -12t37.5 -5.5q32 0 45 43z" />
    <glyph glyph-name="uni012A" unicode="&#x12a;" horiz-adv-x="332" 
d="M44 0v704h244v-704h-244zM-11 773v134h356v-134h-356z" />
    <glyph glyph-name="imacron" unicode="&#x12b;" horiz-adv-x="332" 
d="M44 0v704h244v-704h-244zM-11 773v134h356v-134h-356z" />
    <glyph glyph-name="Ibreve" unicode="&#x12c;" horiz-adv-x="332" 
d="M44 0v704h244v-704h-244zM365 889q-7 -24 -23 -49.5t-41 -46t-58.5 -33.5t-75.5 -13q-41 0 -75.5 13t-60.5 33.5t-42 46t-20 49.5l68 42q16 -51 50 -72t78 -21q45 0 78 21t53 72z" />
    <glyph glyph-name="ibreve" unicode="&#x12d;" horiz-adv-x="332" 
d="M44 0v704h244v-704h-244zM365 889q-7 -24 -23 -49.5t-41 -46t-58.5 -33.5t-75.5 -13q-41 0 -75.5 13t-60.5 33.5t-42 46t-20 49.5l68 42q16 -51 50 -72t78 -21q45 0 78 21t53 72z" />
    <glyph glyph-name="Iogonek" unicode="&#x12e;" horiz-adv-x="332" 
d="M167 -239q-51 0 -81 25t-30 76q0 33 23 60t72 49l65 29h-172v704h244v-704l-101 -49q-11 -6 -11 -14q0 -14 20 -14h92v-162h-121z" />
    <glyph glyph-name="iogonek" unicode="&#x12f;" horiz-adv-x="332" 
d="M167 -239q-51 0 -81 25t-30 76q0 33 23 60t72 49l65 29h-172v704h244v-704l-101 -49q-11 -6 -11 -14q0 -14 20 -14h92v-162h-121z" />
    <glyph glyph-name="Idotaccent" unicode="&#x130;" horiz-adv-x="332" 
d="M44 0v704h244v-704h-244zM168 756q-38 0 -61 22.5t-23 60.5q0 35 24 58.5t60 23.5q33 0 56.5 -23.5t23.5 -58.5q0 -36 -23.5 -59.5t-56.5 -23.5z" />
    <glyph glyph-name="dotlessi" unicode="&#x131;" horiz-adv-x="332" 
d="M44 0v704h244v-704h-244z" />
    <glyph glyph-name="IJ" unicode="&#x132;" horiz-adv-x="706" 
d="M44 0v704h244v-704h-244zM352 225q75 0 75 87v392h244v-429q0 -60 -17.5 -110.5t-56 -87t-99 -57t-146.5 -20.5v225z" />
    <glyph glyph-name="ij" unicode="&#x133;" horiz-adv-x="707" 
d="M44 0v704h244v-704h-244zM544 454q-26 0 -49.5 10t-40.5 27.5t-27 41t-10 49.5t10 49t27 40.5t40.5 28t49.5 10.5t49 -10.5t40.5 -28t27.5 -40.5t10 -49t-10 -49.5t-27.5 -41t-40.5 -27.5t-49 -10zM346 61q76 0 76 87v296h242v-333q0 -59 -17 -109.5t-55 -87t-98.5 -57.5
t-147.5 -21v225z" />
    <glyph glyph-name="Jcircumflex" unicode="&#x134;" horiz-adv-x="374" 
d="M20 225q75 0 75 87v392h244v-429q0 -60 -17.5 -110.5t-56 -87t-99 -57t-146.5 -20.5v225zM287 747l-149 93l-148 -93l-50 42l158 142h80l158 -142z" />
    <glyph glyph-name="jcircumflex" unicode="&#x135;" horiz-adv-x="374" 
d="M20 225q75 0 75 87v392h244v-429q0 -60 -17.5 -110.5t-56 -87t-99 -57t-146.5 -20.5v225zM287 747l-149 93l-148 -93l-50 42l158 142h80l158 -142z" />
    <glyph glyph-name="Kcommaaccent" unicode="&#x136;" horiz-adv-x="694" 
d="M402 0l-117 243v-243h-243v704h243v-226l129 226h265l-200 -308l219 -396h-296zM319 -205q28 6 42 29q-13 -4 -26 -4t-26 5t-23.5 14.5t-17 24t-6.5 33.5q0 37 22 60.5t67 23.5q34 0 57 -21t23 -71q0 -24 -9 -46.5t-24.5 -40t-36 -28.5t-42.5 -13v34z" />
    <glyph glyph-name="kcommaaccent" unicode="&#x137;" horiz-adv-x="694" 
d="M402 0l-117 243v-243h-243v704h243v-226l129 226h265l-200 -308l219 -396h-296zM319 -205q28 6 42 29q-13 -4 -26 -4t-26 5t-23.5 14.5t-17 24t-6.5 33.5q0 37 22 60.5t67 23.5q34 0 57 -21t23 -71q0 -24 -9 -46.5t-24.5 -40t-36 -28.5t-42.5 -13v34z" />
    <glyph glyph-name="Lacute" unicode="&#x139;" horiz-adv-x="469" 
d="M42 0v704h243v-479h175v-225h-418zM104 747l-47 59l209 125l66 -91z" />
    <glyph glyph-name="lacute" unicode="&#x13a;" horiz-adv-x="469" 
d="M42 0v704h243v-479h175v-225h-418zM104 747l-47 59l209 125l66 -91z" />
    <glyph glyph-name="Lcommaaccent" unicode="&#x13b;" horiz-adv-x="469" 
d="M42 0v704h243v-479h175v-225h-418zM207 -205q28 6 42 29q-13 -4 -26 -4t-26 5t-23.5 14.5t-17 24t-6.5 33.5q0 37 22 60.5t67 23.5q34 0 57 -21t23 -71q0 -24 -9 -46.5t-24.5 -40t-36 -28.5t-42.5 -13v34z" />
    <glyph glyph-name="lcommaaccent" unicode="&#x13c;" horiz-adv-x="469" 
d="M42 0v704h243v-479h175v-225h-418zM207 -205q28 6 42 29q-13 -4 -26 -4t-26 5t-23.5 14.5t-17 24t-6.5 33.5q0 37 22 60.5t67 23.5q34 0 57 -21t23 -71q0 -24 -9 -46.5t-24.5 -40t-36 -28.5t-42.5 -13v34z" />
    <glyph glyph-name="Lcaron" unicode="&#x13d;" horiz-adv-x="579" 
d="M42 0v704h243v-479h175v-225h-418zM409 434q42 9 65 44q-12 -4 -22.5 -5t-19.5 -1q-20 0 -38.5 7.5t-33.5 22t-25 36t-11 50.5q0 57 32.5 92.5t101.5 35.5q25 0 47 -8t38.5 -24.5t26 -42.5t9.5 -63q0 -38 -14 -72t-37.5 -60.5t-54 -43.5t-64.5 -20v52z" />
    <glyph glyph-name="lcaron" unicode="&#x13e;" horiz-adv-x="579" 
d="M42 0v704h243v-479h175v-225h-418zM409 434q42 9 65 44q-12 -4 -22.5 -5t-19.5 -1q-20 0 -38.5 7.5t-33.5 22t-25 36t-11 50.5q0 57 32.5 92.5t101.5 35.5q25 0 47 -8t38.5 -24.5t26 -42.5t9.5 -63q0 -38 -14 -72t-37.5 -60.5t-54 -43.5t-64.5 -20v52z" />
    <glyph glyph-name="Ldot" unicode="&#x13f;" horiz-adv-x="469" 
d="M42 0v704h243v-479h175v-225h-418zM388 396q-38 0 -61 22.5t-23 60.5q0 35 24 58.5t60 23.5q33 0 56.5 -23.5t23.5 -58.5q0 -36 -23.5 -59.5t-56.5 -23.5z" />
    <glyph glyph-name="ldot" unicode="&#x140;" horiz-adv-x="469" 
d="M42 0v704h243v-479h175v-225h-418zM388 396q-38 0 -61 22.5t-23 60.5q0 35 24 58.5t60 23.5q33 0 56.5 -23.5t23.5 -58.5q0 -36 -23.5 -59.5t-56.5 -23.5z" />
    <glyph glyph-name="Lslash" unicode="&#x141;" horiz-adv-x="481" 
d="M54 0v274l-39 -22l-39 72l78 44v336h244v-192l56 33l41 -72l-97 -56v-192h175v-225h-419z" />
    <glyph glyph-name="lslash" unicode="&#x142;" horiz-adv-x="481" 
d="M54 0v274l-39 -22l-39 72l78 44v336h244v-192l56 33l41 -72l-97 -56v-192h175v-225h-419z" />
    <glyph glyph-name="Nacute" unicode="&#x143;" horiz-adv-x="690" 
d="M443 0l-178 274v-274h-223v704h234l149 -233v233h225v-704h-207zM284 747l-47 59l209 125l66 -91z" />
    <glyph glyph-name="nacute" unicode="&#x144;" horiz-adv-x="672" 
d="M391 0v435q0 30 -15 43t-45 13q-25 0 -38.5 -13t-13.5 -43v-435h-245v414q0 148 75.5 225t221.5 77q148 0 226 -77t78 -225v-414h-244zM275 747l-47 59l209 125l66 -91z" />
    <glyph glyph-name="Ncommaaccent" unicode="&#x145;" horiz-adv-x="690" 
d="M443 0l-178 274v-274h-223v704h234l149 -233v233h225v-704h-207zM317 -205q28 6 42 29q-13 -4 -26 -4t-26 5t-23.5 14.5t-17 24t-6.5 33.5q0 37 22 60.5t67 23.5q34 0 57 -21t23 -71q0 -24 -9 -46.5t-24.5 -40t-36 -28.5t-42.5 -13v34z" />
    <glyph glyph-name="ncommaaccent" unicode="&#x146;" horiz-adv-x="672" 
d="M391 0v435q0 30 -15 43t-45 13q-25 0 -38.5 -13t-13.5 -43v-435h-245v414q0 148 75.5 225t221.5 77q148 0 226 -77t78 -225v-414h-244zM308 -205q28 6 42 29q-13 -4 -26 -4t-26 5t-23.5 14.5t-17 24t-6.5 33.5q0 37 22 60.5t67 23.5q34 0 57 -21t23 -71q0 -24 -9 -46.5
t-24.5 -40t-36 -28.5t-42.5 -13v34z" />
    <glyph glyph-name="Ncaron" unicode="&#x147;" horiz-adv-x="690" 
d="M443 0l-178 274v-274h-223v704h234l149 -233v233h225v-704h-207zM385 747h-80l-158 142l50 42l148 -93l149 93l49 -42z" />
    <glyph glyph-name="ncaron" unicode="&#x148;" horiz-adv-x="672" 
d="M391 0v435q0 30 -15 43t-45 13q-25 0 -38.5 -13t-13.5 -43v-435h-245v414q0 148 75.5 225t221.5 77q148 0 226 -77t78 -225v-414h-244zM376 747h-80l-158 142l50 42l148 -93l149 93l49 -42z" />
    <glyph glyph-name="Eng" unicode="&#x14a;" horiz-adv-x="690" 
d="M331 -14q68 0 74 71l-140 217v-274h-223v704h234l149 -233v233h225v-704h-2q-5 -53 -25.5 -97t-58.5 -75.5t-96 -49t-137 -17.5v225z" />
    <glyph glyph-name="eng" unicode="&#x14b;" horiz-adv-x="672" 
d="M316 -14q75 0 75 87v362q0 30 -15 43t-45 13q-25 0 -38.5 -13t-13.5 -43v-435h-245v414q0 148 75.5 225t221.5 77q148 0 226 -77t78 -225v-414q0 -53 -20 -97t-60 -75.5t-100 -49t-139 -17.5v225z" />
    <glyph glyph-name="Omacron" unicode="&#x14c;" 
d="M351 -13q-80 0 -143 25t-107.5 72t-68 114.5t-23.5 153.5q0 83 23.5 150.5t68 115t107.5 73t143 25.5q79 0 142 -25.5t107 -73t67.5 -115t23.5 -150.5q0 -86 -23.5 -153.5t-67.5 -114.5t-107 -72t-142 -25zM351 213q43 0 70.5 32.5t27.5 106.5q0 75 -24.5 107.5
t-73.5 32.5q-50 0 -74.5 -32.5t-24.5 -107.5q0 -74 27.5 -106.5t71.5 -32.5zM172 773v134h356v-134h-356z" />
    <glyph glyph-name="omacron" unicode="&#x14d;" 
d="M351 -13q-80 0 -143 25t-107.5 72t-68 114.5t-23.5 153.5q0 83 23.5 150.5t68 115t107.5 73t143 25.5q79 0 142 -25.5t107 -73t67.5 -115t23.5 -150.5q0 -86 -23.5 -153.5t-67.5 -114.5t-107 -72t-142 -25zM351 213q43 0 70.5 32.5t27.5 106.5q0 75 -24.5 107.5
t-73.5 32.5q-50 0 -74.5 -32.5t-24.5 -107.5q0 -74 27.5 -106.5t71.5 -32.5zM172 773v134h356v-134h-356z" />
    <glyph glyph-name="Obreve" unicode="&#x14e;" 
d="M351 -13q-80 0 -143 25t-107.5 72t-68 114.5t-23.5 153.5q0 83 23.5 150.5t68 115t107.5 73t143 25.5q79 0 142 -25.5t107 -73t67.5 -115t23.5 -150.5q0 -86 -23.5 -153.5t-67.5 -114.5t-107 -72t-142 -25zM351 213q43 0 70.5 32.5t27.5 106.5q0 75 -24.5 107.5
t-73.5 32.5q-50 0 -74.5 -32.5t-24.5 -107.5q0 -74 27.5 -106.5t71.5 -32.5zM548 889q-7 -24 -23 -49.5t-41 -46t-58.5 -33.5t-75.5 -13q-41 0 -75.5 13t-60.5 33.5t-42 46t-20 49.5l68 42q16 -51 50 -72t78 -21q45 0 78 21t53 72z" />
    <glyph glyph-name="obreve" unicode="&#x14f;" 
d="M351 -13q-80 0 -143 25t-107.5 72t-68 114.5t-23.5 153.5q0 83 23.5 150.5t68 115t107.5 73t143 25.5q79 0 142 -25.5t107 -73t67.5 -115t23.5 -150.5q0 -86 -23.5 -153.5t-67.5 -114.5t-107 -72t-142 -25zM351 213q43 0 70.5 32.5t27.5 106.5q0 75 -24.5 107.5
t-73.5 32.5q-50 0 -74.5 -32.5t-24.5 -107.5q0 -74 27.5 -106.5t71.5 -32.5zM548 889q-7 -24 -23 -49.5t-41 -46t-58.5 -33.5t-75.5 -13q-41 0 -75.5 13t-60.5 33.5t-42 46t-20 49.5l68 42q16 -51 50 -72t78 -21q45 0 78 21t53 72z" />
    <glyph glyph-name="Ohungarumlaut" unicode="&#x150;" 
d="M351 -13q-80 0 -143 25t-107.5 72t-68 114.5t-23.5 153.5q0 83 23.5 150.5t68 115t107.5 73t143 25.5q79 0 142 -25.5t107 -73t67.5 -115t23.5 -150.5q0 -86 -23.5 -153.5t-67.5 -114.5t-107 -72t-142 -25zM351 213q43 0 70.5 32.5t27.5 106.5q0 75 -24.5 107.5
t-73.5 32.5q-50 0 -74.5 -32.5t-24.5 -107.5q0 -74 27.5 -106.5t71.5 -32.5zM184 748l78 183h121l-88 -183h-111zM363 748l90 183h123l-103 -183h-110z" />
    <glyph glyph-name="ohungarumlaut" unicode="&#x151;" 
d="M351 -13q-80 0 -143 25t-107.5 72t-68 114.5t-23.5 153.5q0 83 23.5 150.5t68 115t107.5 73t143 25.5q79 0 142 -25.5t107 -73t67.5 -115t23.5 -150.5q0 -86 -23.5 -153.5t-67.5 -114.5t-107 -72t-142 -25zM351 213q43 0 70.5 32.5t27.5 106.5q0 75 -24.5 107.5
t-73.5 32.5q-50 0 -74.5 -32.5t-24.5 -107.5q0 -74 27.5 -106.5t71.5 -32.5zM184 748l78 183h121l-88 -183h-111zM363 748l90 183h123l-103 -183h-110z" />
    <glyph glyph-name="OE" unicode="&#x152;" horiz-adv-x="1004" 
d="M351 213q43 0 70.5 32.5t27.5 106.5q0 75 -24.5 107.5t-73.5 32.5q-50 0 -74.5 -32.5t-24.5 -107.5q0 -74 27.5 -106.5t71.5 -32.5zM673 0q-82 0 -137 33q-78 -46 -185 -46h-1q-79 0 -142 25t-107.5 72t-68 114.5t-23.5 153.5q0 83 23.5 150.5t68 115t107.5 73t143 25.5
q52 0 97 -11.5t83 -33.5q50 33 127 33h318v-223h-260q-31 0 -31 -31q0 -30 31 -30h229v-121h-224q-27 0 -34 -16l-5 -28q4 -28 39 -28h256v-227h-304z" />
    <glyph glyph-name="oe" unicode="&#x153;" horiz-adv-x="1004" 
d="M351 213q43 0 70.5 32.5t27.5 106.5q0 75 -24.5 107.5t-73.5 32.5q-50 0 -74.5 -32.5t-24.5 -107.5q0 -74 27.5 -106.5t71.5 -32.5zM673 0q-82 0 -137 33q-78 -46 -185 -46h-1q-79 0 -142 25t-107.5 72t-68 114.5t-23.5 153.5q0 83 23.5 150.5t68 115t107.5 73t143 25.5
q52 0 97 -11.5t83 -33.5q50 33 127 33h318v-223h-260q-31 0 -31 -31q0 -30 31 -30h229v-121h-224q-27 0 -34 -16l-5 -28q4 -28 39 -28h256v-227h-304z" />
    <glyph glyph-name="Racute" unicode="&#x154;" horiz-adv-x="671" 
d="M344 396q39 0 39 42q0 41 -39 41h-59v-83h59zM411 0l-126 231v-231h-243v704h331q59 0 106.5 -13.5t80.5 -41t51 -70.5t18 -102q0 -75 -24 -124.5t-74 -83.5l151 -269h-271zM245 747l-47 59l209 125l66 -91z" />
    <glyph glyph-name="racute" unicode="&#x155;" horiz-adv-x="671" 
d="M344 396q39 0 39 42q0 41 -39 41h-59v-83h59zM411 0l-126 231v-231h-243v704h331q59 0 106.5 -13.5t80.5 -41t51 -70.5t18 -102q0 -75 -24 -124.5t-74 -83.5l151 -269h-271zM245 747l-47 59l209 125l66 -91z" />
    <glyph glyph-name="Rcommaaccent" unicode="&#x156;" horiz-adv-x="671" 
d="M344 396q39 0 39 42q0 41 -39 41h-59v-83h59zM411 0l-126 231v-231h-243v704h331q59 0 106.5 -13.5t80.5 -41t51 -70.5t18 -102q0 -75 -24 -124.5t-74 -83.5l151 -269h-271zM308 -205q28 6 42 29q-13 -4 -26 -4t-26 5t-23.5 14.5t-17 24t-6.5 33.5q0 37 22 60.5t67 23.5
q34 0 57 -21t23 -71q0 -24 -9 -46.5t-24.5 -40t-36 -28.5t-42.5 -13v34z" />
    <glyph glyph-name="rcommaaccent" unicode="&#x157;" horiz-adv-x="671" 
d="M344 396q39 0 39 42q0 41 -39 41h-59v-83h59zM411 0l-126 231v-231h-243v704h331q59 0 106.5 -13.5t80.5 -41t51 -70.5t18 -102q0 -75 -24 -124.5t-74 -83.5l151 -269h-271zM308 -205q28 6 42 29q-13 -4 -26 -4t-26 5t-23.5 14.5t-17 24t-6.5 33.5q0 37 22 60.5t67 23.5
q34 0 57 -21t23 -71q0 -24 -9 -46.5t-24.5 -40t-36 -28.5t-42.5 -13v34z" />
    <glyph glyph-name="Rcaron" unicode="&#x158;" horiz-adv-x="671" 
d="M344 396q39 0 39 42q0 41 -39 41h-59v-83h59zM411 0l-126 231v-231h-243v704h331q59 0 106.5 -13.5t80.5 -41t51 -70.5t18 -102q0 -75 -24 -124.5t-74 -83.5l151 -269h-271zM345 747h-80l-158 142l50 42l148 -93l149 93l49 -42z" />
    <glyph glyph-name="rcaron" unicode="&#x159;" horiz-adv-x="671" 
d="M344 396q39 0 39 42q0 41 -39 41h-59v-83h59zM411 0l-126 231v-231h-243v704h331q59 0 106.5 -13.5t80.5 -41t51 -70.5t18 -102q0 -75 -24 -124.5t-74 -83.5l151 -269h-271zM345 747h-80l-158 142l50 42l148 -93l149 93l49 -42z" />
    <glyph glyph-name="Sacute" unicode="&#x15a;" horiz-adv-x="646" 
d="M29 0v225h267q46 0 46 40t-46 40h-46q-60 0 -103 14.5t-70.5 40.5t-40.5 62t-13 79q0 91 55 147t161 56h345v-225h-245q-43 0 -43 -38q0 -41 43 -41h93q57 0 96 -16t62.5 -42.5t34 -61.5t10.5 -73q0 -43 -13 -80.5t-41.5 -65.5t-74 -44.5t-109.5 -16.5h-368zM262 747
l-47 59l209 125l66 -91z" />
    <glyph glyph-name="sacute" unicode="&#x15b;" horiz-adv-x="646" 
d="M29 0v225h267q46 0 46 40t-46 40h-46q-60 0 -103 14.5t-70.5 40.5t-40.5 62t-13 79q0 91 55 147t161 56h345v-225h-245q-43 0 -43 -38q0 -41 43 -41h93q57 0 96 -16t62.5 -42.5t34 -61.5t10.5 -73q0 -43 -13 -80.5t-41.5 -65.5t-74 -44.5t-109.5 -16.5h-368zM262 747
l-47 59l209 125l66 -91z" />
    <glyph glyph-name="Scircumflex" unicode="&#x15c;" horiz-adv-x="646" 
d="M29 0v225h267q46 0 46 40t-46 40h-46q-60 0 -103 14.5t-70.5 40.5t-40.5 62t-13 79q0 91 55 147t161 56h345v-225h-245q-43 0 -43 -38q0 -41 43 -41h93q57 0 96 -16t62.5 -42.5t34 -61.5t10.5 -73q0 -43 -13 -80.5t-41.5 -65.5t-74 -44.5t-109.5 -16.5h-368zM462 747
l-149 93l-148 -93l-50 42l158 142h80l158 -142z" />
    <glyph glyph-name="scircumflex" unicode="&#x15d;" horiz-adv-x="646" 
d="M29 0v225h267q46 0 46 40t-46 40h-46q-60 0 -103 14.5t-70.5 40.5t-40.5 62t-13 79q0 91 55 147t161 56h345v-225h-245q-43 0 -43 -38q0 -41 43 -41h93q57 0 96 -16t62.5 -42.5t34 -61.5t10.5 -73q0 -43 -13 -80.5t-41.5 -65.5t-74 -44.5t-109.5 -16.5h-368zM462 747
l-149 93l-148 -93l-50 42l158 142h80l158 -142z" />
    <glyph glyph-name="Scedilla" unicode="&#x15e;" horiz-adv-x="646" 
d="M29 0v225h267q46 0 46 40t-46 40h-46q-60 0 -103 14.5t-70.5 40.5t-40.5 62t-13 79q0 91 55 147t161 56h345v-225h-245q-43 0 -43 -38q0 -41 43 -41h93q57 0 96 -16t62.5 -42.5t34 -61.5t10.5 -73q0 -43 -13 -80.5t-41.5 -65.5t-74 -44.5t-109.5 -16.5h-368zM295 -205
q28 6 42 29q-13 -4 -26 -4t-26 5t-23.5 14.5t-17 24t-6.5 33.5q0 37 22 60.5t67 23.5q34 0 57 -21t23 -71q0 -24 -9 -46.5t-24.5 -40t-36 -28.5t-42.5 -13v34z" />
    <glyph glyph-name="scedilla" unicode="&#x15f;" horiz-adv-x="646" 
d="M29 0v225h267q46 0 46 40t-46 40h-46q-60 0 -103 14.5t-70.5 40.5t-40.5 62t-13 79q0 91 55 147t161 56h345v-225h-245q-43 0 -43 -38q0 -41 43 -41h93q57 0 96 -16t62.5 -42.5t34 -61.5t10.5 -73q0 -43 -13 -80.5t-41.5 -65.5t-74 -44.5t-109.5 -16.5h-368zM295 -205
q28 6 42 29q-13 -4 -26 -4t-26 5t-23.5 14.5t-17 24t-6.5 33.5q0 37 22 60.5t67 23.5q34 0 57 -21t23 -71q0 -24 -9 -46.5t-24.5 -40t-36 -28.5t-42.5 -13v34z" />
    <glyph glyph-name="Scaron" unicode="&#x160;" horiz-adv-x="646" 
d="M29 0v225h267q46 0 46 40t-46 40h-46q-60 0 -103 14.5t-70.5 40.5t-40.5 62t-13 79q0 91 55 147t161 56h345v-225h-245q-43 0 -43 -38q0 -41 43 -41h93q57 0 96 -16t62.5 -42.5t34 -61.5t10.5 -73q0 -43 -13 -80.5t-41.5 -65.5t-74 -44.5t-109.5 -16.5h-368zM353 747h-80
l-158 142l50 42l148 -93l149 93l49 -42z" />
    <glyph glyph-name="scaron" unicode="&#x161;" horiz-adv-x="646" 
d="M29 0v225h267q46 0 46 40t-46 40h-46q-60 0 -103 14.5t-70.5 40.5t-40.5 62t-13 79q0 91 55 147t161 56h345v-225h-245q-43 0 -43 -38q0 -41 43 -41h93q57 0 96 -16t62.5 -42.5t34 -61.5t10.5 -73q0 -43 -13 -80.5t-41.5 -65.5t-74 -44.5t-109.5 -16.5h-368zM353 747h-80
l-158 142l50 42l148 -93l149 93l49 -42z" />
    <glyph glyph-name="Tcommaaccent" unicode="&#x162;" horiz-adv-x="613" 
d="M180 0v479h-176v225h604v-225h-173v-479h-255zM279 -205q28 6 42 29q-13 -4 -26 -4t-26 5t-23.5 14.5t-17 24t-6.5 33.5q0 37 22 60.5t67 23.5q34 0 57 -21t23 -71q0 -24 -9 -46.5t-24.5 -40t-36 -28.5t-42.5 -13v34z" />
    <glyph glyph-name="tcommaaccent" unicode="&#x163;" horiz-adv-x="613" 
d="M180 0v479h-176v225h604v-225h-173v-479h-255zM279 -205q28 6 42 29q-13 -4 -26 -4t-26 5t-23.5 14.5t-17 24t-6.5 33.5q0 37 22 60.5t67 23.5q34 0 57 -21t23 -71q0 -24 -9 -46.5t-24.5 -40t-36 -28.5t-42.5 -13v34z" />
    <glyph glyph-name="Tcaron" unicode="&#x164;" horiz-adv-x="613" 
d="M180 0v479h-176v225h604v-225h-173v-479h-255zM346 747h-80l-158 142l50 42l148 -93l149 93l49 -42z" />
    <glyph glyph-name="tcaron" unicode="&#x165;" horiz-adv-x="613" 
d="M180 0v479h-176v225h604v-225h-173v-479h-255zM346 747h-80l-158 142l50 42l148 -93l149 93l49 -42z" />
    <glyph glyph-name="Tbar" unicode="&#x166;" horiz-adv-x="613" 
d="M180 0v182h-63v144h63v153h-176v225h604v-225h-173v-153h61v-144h-61v-182h-255z" />
    <glyph glyph-name="tbar" unicode="&#x167;" horiz-adv-x="613" 
d="M180 0v182h-63v144h63v153h-176v225h604v-225h-173v-153h61v-144h-61v-182h-255z" />
    <glyph glyph-name="Utilde" unicode="&#x168;" horiz-adv-x="667" 
d="M386 704h244v-415q0 -148 -74.5 -225t-218.5 -77q-146 0 -224 76.5t-78 224.5v416h244v-440q0 -52 55 -52q28 0 40 13t12 39v440zM536 870q-4 -18 -14.5 -35.5t-26.5 -32t-36.5 -23.5t-45.5 -9q-29 0 -48 5.5t-35.5 12t-33.5 12t-41 5.5q-14 0 -27 -8t-21 -32l-76 38
q4 18 15 35.5t26.5 31.5t36.5 22.5t46 8.5q28 0 48.5 -5.5t38 -12t34 -12t37.5 -5.5q32 0 45 43z" />
    <glyph glyph-name="utilde" unicode="&#x169;" horiz-adv-x="667" 
d="M386 704h244v-415q0 -148 -74.5 -225t-218.5 -77q-146 0 -224 76.5t-78 224.5v416h244v-440q0 -52 55 -52q28 0 40 13t12 39v440zM536 870q-4 -18 -14.5 -35.5t-26.5 -32t-36.5 -23.5t-45.5 -9q-29 0 -48 5.5t-35.5 12t-33.5 12t-41 5.5q-14 0 -27 -8t-21 -32l-76 38
q4 18 15 35.5t26.5 31.5t36.5 22.5t46 8.5q28 0 48.5 -5.5t38 -12t34 -12t37.5 -5.5q32 0 45 43z" />
    <glyph glyph-name="Umacron" unicode="&#x16a;" horiz-adv-x="667" 
d="M386 704h244v-415q0 -148 -74.5 -225t-218.5 -77q-146 0 -224 76.5t-78 224.5v416h244v-440q0 -52 55 -52q28 0 40 13t12 39v440zM155 773v134h356v-134h-356z" />
    <glyph glyph-name="umacron" unicode="&#x16b;" horiz-adv-x="667" 
d="M386 704h244v-415q0 -148 -74.5 -225t-218.5 -77q-146 0 -224 76.5t-78 224.5v416h244v-440q0 -52 55 -52q28 0 40 13t12 39v440zM155 773v134h356v-134h-356z" />
    <glyph glyph-name="Ubreve" unicode="&#x16c;" horiz-adv-x="667" 
d="M386 704h244v-415q0 -148 -74.5 -225t-218.5 -77q-146 0 -224 76.5t-78 224.5v416h244v-440q0 -52 55 -52q28 0 40 13t12 39v440zM531 889q-7 -24 -23 -49.5t-41 -46t-58.5 -33.5t-75.5 -13q-41 0 -75.5 13t-60.5 33.5t-42 46t-20 49.5l68 42q16 -51 50 -72t78 -21
q45 0 78 21t53 72z" />
    <glyph glyph-name="ubreve" unicode="&#x16d;" horiz-adv-x="667" 
d="M386 704h244v-415q0 -148 -74.5 -225t-218.5 -77q-146 0 -224 76.5t-78 224.5v416h244v-440q0 -52 55 -52q28 0 40 13t12 39v440zM531 889q-7 -24 -23 -49.5t-41 -46t-58.5 -33.5t-75.5 -13q-41 0 -75.5 13t-60.5 33.5t-42 46t-20 49.5l68 42q16 -51 50 -72t78 -21
q45 0 78 21t53 72z" />
    <glyph glyph-name="Uring" unicode="&#x16e;" horiz-adv-x="667" 
d="M386 704h244v-415q0 -148 -74.5 -225t-218.5 -77q-146 0 -224 76.5t-78 224.5v416h244v-440q0 -52 55 -52q28 0 40 13t12 39v440zM397 833q0 25 -14.5 40t-50.5 15q-35 0 -49 -15t-14 -40q0 -26 14 -42t49 -16q36 0 50.5 16t14.5 42zM482 833q0 -60 -34.5 -94.5
t-115.5 -34.5q-80 0 -113.5 35t-33.5 94q0 58 33.5 93t113.5 35q81 0 115.5 -34.5t34.5 -93.5z" />
    <glyph glyph-name="uring" unicode="&#x16f;" horiz-adv-x="667" 
d="M386 704h244v-415q0 -148 -74.5 -225t-218.5 -77q-146 0 -224 76.5t-78 224.5v416h244v-440q0 -52 55 -52q28 0 40 13t12 39v440zM397 833q0 25 -14.5 40t-50.5 15q-35 0 -49 -15t-14 -40q0 -26 14 -42t49 -16q36 0 50.5 16t14.5 42zM482 833q0 -60 -34.5 -94.5
t-115.5 -34.5q-80 0 -113.5 35t-33.5 94q0 58 33.5 93t113.5 35q81 0 115.5 -34.5t34.5 -93.5z" />
    <glyph glyph-name="Uhungarumlaut" unicode="&#x170;" horiz-adv-x="667" 
d="M386 704h244v-415q0 -148 -74.5 -225t-218.5 -77q-146 0 -224 76.5t-78 224.5v416h244v-440q0 -52 55 -52q28 0 40 13t12 39v440zM194 748l78 183h121l-88 -183h-111zM373 748l90 183h123l-103 -183h-110z" />
    <glyph glyph-name="uhungarumlaut" unicode="&#x171;" horiz-adv-x="667" 
d="M386 704h244v-415q0 -148 -74.5 -225t-218.5 -77q-146 0 -224 76.5t-78 224.5v416h244v-440q0 -52 55 -52q28 0 40 13t12 39v440zM194 748l78 183h121l-88 -183h-111zM373 748l90 183h123l-103 -183h-110z" />
    <glyph glyph-name="Uogonek" unicode="&#x172;" horiz-adv-x="667" 
d="M321 -239q-51 0 -81 25t-30 76q0 33 23 60t72 49l36 16h-4q-146 0 -224 76.5t-78 224.5v416h244v-440q0 -52 55 -52q28 0 40 13t12 39v440h244v-415q0 -118 -47.5 -191t-141.5 -98l-100 -49q-11 -6 -11 -14q0 -14 20 -14h92v-162h-121z" />
    <glyph glyph-name="uogonek" unicode="&#x173;" horiz-adv-x="667" 
d="M321 -239q-51 0 -81 25t-30 76q0 33 23 60t72 49l36 16h-4q-146 0 -224 76.5t-78 224.5v416h244v-440q0 -52 55 -52q28 0 40 13t12 39v440h244v-415q0 -118 -47.5 -191t-141.5 -98l-100 -49q-11 -6 -11 -14q0 -14 20 -14h92v-162h-121z" />
    <glyph glyph-name="Wcircumflex" unicode="&#x174;" horiz-adv-x="945" 
d="M530 0l-58 275l-58 -275h-244l-166 704h275l77 -379l74 379h210l77 -379l75 379h149l-165 -704h-246zM641 747l-149 93l-148 -93l-50 42l158 142h80l158 -142z" />
    <glyph glyph-name="wcircumflex" unicode="&#x175;" horiz-adv-x="855" 
d="M597 704h220v-484q0 -63 -20.5 -107.5t-53 -72.5t-73.5 -40.5t-82 -12.5q-51 0 -93 15.5t-65 47.5q-29 -32 -69 -47.5t-96 -15.5q-32 0 -72 13t-75 40t-59 69t-24 101v494h221v-452q0 -39 34 -39q36 0 36 39v452h202v-452q0 -39 35 -39q34 0 34 39v452zM576 747l-149 93
l-148 -93l-50 42l158 142h80l158 -142z" />
    <glyph glyph-name="Ycircumflex" unicode="&#x176;" horiz-adv-x="649" 
d="M36 0v225h264q38 0 52 14.5t14 39.5h-102q-110 0 -169.5 57t-59.5 171v197h245v-192q0 -45 16 -60.5t49 -15.5h25v268h243v-432q0 -58 -16.5 -107.5t-47.5 -86t-75 -57.5t-99 -21h-339zM473 747l-149 93l-148 -93l-50 42l158 142h80l158 -142z" />
    <glyph glyph-name="ycircumflex" unicode="&#x177;" horiz-adv-x="649" 
d="M36 0v225h264q38 0 52 14.5t14 39.5h-102q-110 0 -169.5 57t-59.5 171v197h245v-192q0 -45 16 -60.5t49 -15.5h25v268h243v-432q0 -58 -16.5 -107.5t-47.5 -86t-75 -57.5t-99 -21h-339zM473 747l-149 93l-148 -93l-50 42l158 142h80l158 -142z" />
    <glyph glyph-name="Ydieresis" unicode="&#x178;" horiz-adv-x="649" 
d="M36 0v225h264q38 0 52 14.5t14 39.5h-102q-110 0 -169.5 57t-59.5 171v197h245v-192q0 -45 16 -60.5t49 -15.5h25v268h243v-432q0 -58 -16.5 -107.5t-47.5 -86t-75 -57.5t-99 -21h-339zM438 756q-38 0 -60.5 22.5t-22.5 60.5q0 35 23.5 58.5t59.5 23.5q33 0 56.5 -23.5
t23.5 -58.5q0 -36 -23.5 -59.5t-56.5 -23.5zM214 756q-38 0 -61 22.5t-23 60.5q0 35 24 58.5t60 23.5q33 0 56.5 -23.5t23.5 -58.5q0 -36 -23.5 -59.5t-56.5 -23.5z" />
    <glyph glyph-name="Zacute" unicode="&#x179;" horiz-adv-x="628" 
d="M31 0v186l241 293h-241v225h562v-189l-242 -290h243v-225h-563zM253 747l-47 59l209 125l66 -91z" />
    <glyph glyph-name="zacute" unicode="&#x17a;" horiz-adv-x="628" 
d="M31 0v186l241 293h-241v225h562v-189l-242 -290h243v-225h-563zM253 747l-47 59l209 125l66 -91z" />
    <glyph glyph-name="Zdotaccent" unicode="&#x17b;" horiz-adv-x="628" 
d="M31 0v186l241 293h-241v225h562v-189l-242 -290h243v-225h-563zM316 756q-38 0 -61 22.5t-23 60.5q0 35 24 58.5t60 23.5q33 0 56.5 -23.5t23.5 -58.5q0 -36 -23.5 -59.5t-56.5 -23.5z" />
    <glyph glyph-name="zdotaccent" unicode="&#x17c;" horiz-adv-x="628" 
d="M31 0v186l241 293h-241v225h562v-189l-242 -290h243v-225h-563zM316 756q-38 0 -61 22.5t-23 60.5q0 35 24 58.5t60 23.5q33 0 56.5 -23.5t23.5 -58.5q0 -36 -23.5 -59.5t-56.5 -23.5z" />
    <glyph glyph-name="Zcaron" unicode="&#x17d;" horiz-adv-x="628" 
d="M31 0v186l241 293h-241v225h562v-189l-242 -290h243v-225h-563zM354 747h-80l-158 142l50 42l148 -93l149 93l49 -42z" />
    <glyph glyph-name="zcaron" unicode="&#x17e;" horiz-adv-x="628" 
d="M31 0v186l241 293h-241v225h562v-189l-242 -290h243v-225h-563zM354 747h-80l-158 142l50 42l148 -93l149 93l49 -42z" />
    <glyph glyph-name="florin" unicode="&#x192;" horiz-adv-x="594" 
d="M23 -91q31 -18 67 -18q28 0 46 14.5t23 49.5l67 377h-62v112h82l16 86q9 56 29.5 92t49.5 57t67 29t82 8q28 0 46.5 -2.5t32.5 -7.5v-138q-32 18 -67 18q-27 0 -46 -14.5t-24 -49.5l-12 -78h85v-112h-106l-68 -385q-10 -56 -30.5 -92t-49.5 -57t-67 -29t-82 -8
q-28 0 -46.5 2.5t-32.5 7.5v138z" />
    <glyph glyph-name="Ohorn" unicode="&#x1a0;" horiz-adv-x="841" 
d="M841 615q0 -51 -25 -81t-76 -30q-40 0 -80 17q31 -76 31 -169q0 -86 -23.5 -153.5t-67.5 -114.5t-107 -72t-142 -25q-80 0 -143 25t-107.5 72t-68 114.5t-23.5 153.5q0 83 23.5 150.5t68 115t107.5 73t143 25.5q72 0 129 -21.5t102 -59.5q14 -12 30 -18t30 -6
q16 0 26.5 8t10.5 25v92h162v-121zM351 213q43 0 70.5 32.5t27.5 106.5q0 75 -24.5 107.5t-73.5 32.5q-50 0 -74.5 -32.5t-24.5 -107.5q0 -74 27.5 -106.5t71.5 -32.5z" />
    <glyph glyph-name="ohorn" unicode="&#x1a1;" horiz-adv-x="841" 
d="M841 615q0 -51 -25 -81t-76 -30q-40 0 -80 17q31 -76 31 -169q0 -86 -23.5 -153.5t-67.5 -114.5t-107 -72t-142 -25q-80 0 -143 25t-107.5 72t-68 114.5t-23.5 153.5q0 83 23.5 150.5t68 115t107.5 73t143 25.5q72 0 129 -21.5t102 -59.5q14 -12 30 -18t30 -6
q16 0 26.5 8t10.5 25v92h162v-121zM351 213q43 0 70.5 32.5t27.5 106.5q0 75 -24.5 107.5t-73.5 32.5q-50 0 -74.5 -32.5t-24.5 -107.5q0 -74 27.5 -106.5t71.5 -32.5z" />
    <glyph glyph-name="Uhorn" unicode="&#x1af;" horiz-adv-x="861" 
d="M861 615q0 -51 -25 -81t-76 -30q-34 0 -67.5 12.5t-62.5 32.5v-260q0 -148 -74.5 -225t-218.5 -77q-146 0 -224 76.5t-78 224.5v416h244v-440q0 -52 55 -52q28 0 40 13t12 39v440h244v-84q17 -7 34 -7q15 0 25 7t10 24v92h162v-121z" />
    <glyph glyph-name="uhorn" unicode="&#x1b0;" horiz-adv-x="861" 
d="M861 615q0 -51 -25 -81t-76 -30q-34 0 -67.5 12.5t-62.5 32.5v-260q0 -148 -74.5 -225t-218.5 -77q-146 0 -224 76.5t-78 224.5v416h244v-440q0 -52 55 -52q28 0 40 13t12 39v440h244v-84q17 -7 34 -7q15 0 25 7t10 24v92h162v-121z" />
    <glyph glyph-name="AEacute" unicode="&#x1fc;" horiz-adv-x="925" 
d="M391 479h-47l-61 -290h108v290zM391 0v58h-139l-13 -58h-239l216 704h689v-225h-287v-61h258v-121h-262v-72h291v-225h-514zM411 747l-47 59l209 125l66 -91z" />
    <glyph glyph-name="aeacute" unicode="&#x1fd;" horiz-adv-x="925" 
d="M391 479h-47l-61 -290h108v290zM391 0v58h-139l-13 -58h-239l216 704h689v-225h-287v-61h258v-121h-262v-72h291v-225h-514zM411 747l-47 59l209 125l66 -91z" />
    <glyph glyph-name="Oslashacute" unicode="&#x1fe;" 
d="M391 484q-8 4 -18.5 6t-21.5 2q-50 0 -74.5 -32.5t-24.5 -107.5q0 -47 10 -74zM301 226q20 -13 50 -13q43 0 70.5 32.5t27.5 106.5q0 27 -3.5 48t-9.5 38zM350 -13q-51 0 -94.5 10t-80.5 29l-55 -88l-55 30l58 93q-54 47 -84 120.5t-30 170.5q0 83 23.5 150.5t68 115
t107.5 73t143 25.5q93 0 165 -37l58 94l54 -30l-60 -96q60 -48 91.5 -122.5t31.5 -172.5q0 -86 -23.5 -153.5t-67.5 -114.5t-107 -72t-142 -25h-1zM289 747l-47 59l209 125l66 -91z" />
    <glyph glyph-name="oslashacute" unicode="&#x1ff;" 
d="M391 484q-8 4 -18.5 6t-21.5 2q-50 0 -74.5 -32.5t-24.5 -107.5q0 -47 10 -74zM301 226q20 -13 50 -13q43 0 70.5 32.5t27.5 106.5q0 27 -3.5 48t-9.5 38zM350 -13q-51 0 -94.5 10t-80.5 29l-55 -88l-55 30l58 93q-54 47 -84 120.5t-30 170.5q0 83 23.5 150.5t68 115
t107.5 73t143 25.5q93 0 165 -37l58 94l54 -30l-60 -96q60 -48 91.5 -122.5t31.5 -172.5q0 -86 -23.5 -153.5t-67.5 -114.5t-107 -72t-142 -25h-1zM289 747l-47 59l209 125l66 -91z" />
    <glyph glyph-name="Scommaaccent" unicode="&#x218;" horiz-adv-x="646" 
d="M29 0v225h267q46 0 46 40t-46 40h-46q-60 0 -103 14.5t-70.5 40.5t-40.5 62t-13 79q0 91 55 147t161 56h345v-225h-245q-43 0 -43 -38q0 -41 43 -41h93q57 0 96 -16t62.5 -42.5t34 -61.5t10.5 -73q0 -43 -13 -80.5t-41.5 -65.5t-74 -44.5t-109.5 -16.5h-368zM295 -205
q28 6 42 29q-13 -4 -26 -4t-26 5t-23.5 14.5t-17 24t-6.5 33.5q0 37 22 60.5t67 23.5q34 0 57 -21t23 -71q0 -24 -9 -46.5t-24.5 -40t-36 -28.5t-42.5 -13v34z" />
    <glyph glyph-name="scommaaccent" unicode="&#x219;" horiz-adv-x="646" 
d="M29 0v225h267q46 0 46 40t-46 40h-46q-60 0 -103 14.5t-70.5 40.5t-40.5 62t-13 79q0 91 55 147t161 56h345v-225h-245q-43 0 -43 -38q0 -41 43 -41h93q57 0 96 -16t62.5 -42.5t34 -61.5t10.5 -73q0 -43 -13 -80.5t-41.5 -65.5t-74 -44.5t-109.5 -16.5h-368zM295 -205
q28 6 42 29q-13 -4 -26 -4t-26 5t-23.5 14.5t-17 24t-6.5 33.5q0 37 22 60.5t67 23.5q34 0 57 -21t23 -71q0 -24 -9 -46.5t-24.5 -40t-36 -28.5t-42.5 -13v34z" />
    <glyph glyph-name="uni021A" unicode="&#x21a;" horiz-adv-x="613" 
d="M180 0v479h-176v225h604v-225h-173v-479h-255zM279 -205q28 6 42 29q-13 -4 -26 -4t-26 5t-23.5 14.5t-17 24t-6.5 33.5q0 37 22 60.5t67 23.5q34 0 57 -21t23 -71q0 -24 -9 -46.5t-24.5 -40t-36 -28.5t-42.5 -13v34z" />
    <glyph glyph-name="uni021B" unicode="&#x21b;" horiz-adv-x="613" 
d="M180 0v479h-176v225h604v-225h-173v-479h-255zM279 -205q28 6 42 29q-13 -4 -26 -4t-26 5t-23.5 14.5t-17 24t-6.5 33.5q0 37 22 60.5t67 23.5q34 0 57 -21t23 -71q0 -24 -9 -46.5t-24.5 -40t-36 -28.5t-42.5 -13v34z" />
    <glyph glyph-name="circumflex" unicode="&#x2c6;" horiz-adv-x="485" 
d="M391 747l-149 93l-148 -93l-50 42l158 142h80l158 -142z" />
    <glyph glyph-name="caron" unicode="&#x2c7;" horiz-adv-x="485" 
d="M282 747h-80l-158 142l50 42l148 -93l149 93l49 -42z" />
    <glyph glyph-name="breve" unicode="&#x2d8;" horiz-adv-x="485" 
d="M440 889q-7 -24 -23 -49.5t-41 -46t-58.5 -33.5t-75.5 -13q-41 0 -75.5 13t-60.5 33.5t-42 46t-20 49.5l68 42q16 -51 50 -72t78 -21q45 0 78 21t53 72z" />
    <glyph glyph-name="dotaccent" unicode="&#x2d9;" horiz-adv-x="253" 
d="M128 756q-38 0 -61 22.5t-23 60.5q0 35 24 58.5t60 23.5q33 0 56.5 -23.5t23.5 -58.5q0 -36 -23.5 -59.5t-56.5 -23.5z" />
    <glyph glyph-name="ring" unicode="&#x2da;" horiz-adv-x="385" 
d="M256 833q0 25 -14.5 40t-50.5 15q-35 0 -49 -15t-14 -40q0 -26 14 -42t49 -16q36 0 50.5 16t14.5 42zM341 833q0 -60 -34.5 -94.5t-115.5 -34.5q-80 0 -113.5 35t-33.5 94q0 58 33.5 93t113.5 35q81 0 115.5 -34.5t34.5 -93.5z" />
    <glyph glyph-name="ogonek" unicode="&#x2db;" horiz-adv-x="321" 
d="M155 -239q-51 0 -81 25t-30 76q0 33 23 60t72 49l65 29h72l-101 -49q-11 -6 -11 -14q0 -14 20 -14h92v-162h-121z" />
    <glyph glyph-name="tilde" unicode="&#x2dc;" horiz-adv-x="494" 
d="M449 870q-4 -18 -14.5 -35.5t-26.5 -32t-36.5 -23.5t-45.5 -9q-29 0 -48 5.5t-35.5 12t-33.5 12t-41 5.5q-14 0 -27 -8t-21 -32l-76 38q4 18 15 35.5t26.5 31.5t36.5 22.5t46 8.5q28 0 48.5 -5.5t38 -12t34 -12t37.5 -5.5q32 0 45 43z" />
    <glyph glyph-name="hungarumlaut" unicode="&#x2dd;" horiz-adv-x="480" 
d="M44 748l78 183h121l-88 -183h-111zM223 748l90 183h123l-103 -183h-110z" />
    <glyph glyph-name="tildecomb" unicode="&#x303;" horiz-adv-x="426" 
d="M337 716l-125 69l-124 -69l-41 31l132 106h67l131 -106zM381 932q-3 -13 -12 -26.5t-22 -24t-30 -17t-38 -6.5q-24 0 -40.5 4t-30 8.5t-27.5 8.5t-34 4q-11 0 -22 -6t-18 -24l-63 29q4 13 12.5 26t21.5 23.5t30.5 17t38.5 6.5q24 0 41 -4t31 -9t28 -9t32 -4q26 0 38 32z
" />
    <glyph glyph-name="hookabovecomb" unicode="&#x309;" horiz-adv-x="336" 
d="M76 720q0 38 15.5 53.5t46.5 15.5q24 0 24 21q0 19 -20 19h-98v132h147q100 0 100 -105q0 -106 -101 -106q-13 0 -19.5 -5t-6.5 -25h-88z" />
    <glyph glyph-name="dotbelowcomb" unicode="&#x323;" horiz-adv-x="253" 
d="M128 -239q-38 0 -61 22.5t-23 60.5q0 35 24 58.5t60 23.5q33 0 56.5 -23.5t23.5 -58.5q0 -36 -23.5 -59.5t-56.5 -23.5z" />
    <glyph glyph-name="Delta" unicode="&#x394;" horiz-adv-x="676" 
d="M313 336l-46 -205h94zM0 0l216 704h244l216 -704h-676z" />
    <glyph glyph-name="Delta" unicode="&#x2206;" horiz-adv-x="676" 
d="M313 336l-46 -205h94zM0 0l216 704h244l216 -704h-676z" />
    <glyph glyph-name="Omega" unicode="&#x3a9;" horiz-adv-x="707" 
d="M398 0v190q26 22 39 62t13 115q0 37 -8 63t-20.5 43t-29 25t-33.5 8q-18 0 -35 -8t-29.5 -25t-20.5 -43t-8 -63q0 -75 13 -115t40 -62v-190h-291v157h105q-15 12 -31 33.5t-30 52.5t-23 73.5t-9 96.5q0 69 19 124.5t58.5 95.5t99.5 61.5t142 21.5q81 0 141 -21.5
t99.5 -61.5t59 -95.5t19.5 -124.5q0 -54 -9 -96.5t-23 -73.5t-31 -52.5t-32 -33.5h106v-157h-291z" />
    <glyph glyph-name="Omega" unicode="&#x2126;" horiz-adv-x="707" 
d="M398 0v190q26 22 39 62t13 115q0 37 -8 63t-20.5 43t-29 25t-33.5 8q-18 0 -35 -8t-29.5 -25t-20.5 -43t-8 -63q0 -75 13 -115t40 -62v-190h-291v157h105q-15 12 -31 33.5t-30 52.5t-23 73.5t-9 96.5q0 69 19 124.5t58.5 95.5t99.5 61.5t142 21.5q81 0 141 -21.5
t99.5 -61.5t59 -95.5t19.5 -124.5q0 -54 -9 -96.5t-23 -73.5t-31 -52.5t-32 -33.5h106v-157h-291z" />
    <glyph glyph-name="pi" unicode="&#x3c0;" horiz-adv-x="690" 
d="M414 0v425h-142v-425h-175v425h-69v121h632v-121h-72v-425h-174z" />
    <glyph glyph-name="Wgrave" unicode="&#x1e80;" horiz-adv-x="945" 
d="M530 0l-58 275l-58 -275h-244l-166 704h275l77 -379l74 379h210l77 -379l75 379h149l-165 -704h-246zM335 840l66 91l209 -125l-47 -59z" />
    <glyph glyph-name="wgrave" unicode="&#x1e81;" horiz-adv-x="855" 
d="M597 704h220v-484q0 -63 -20.5 -107.5t-53 -72.5t-73.5 -40.5t-82 -12.5q-51 0 -93 15.5t-65 47.5q-29 -32 -69 -47.5t-96 -15.5q-32 0 -72 13t-75 40t-59 69t-24 101v494h221v-452q0 -39 34 -39q36 0 36 39v452h202v-452q0 -39 35 -39q34 0 34 39v452zM260 840l66 91
l209 -125l-47 -59z" />
    <glyph glyph-name="Wacute" unicode="&#x1e82;" horiz-adv-x="945" 
d="M530 0l-58 275l-58 -275h-244l-166 704h275l77 -379l74 379h210l77 -379l75 379h149l-165 -704h-246zM442 747l-47 59l209 125l66 -91z" />
    <glyph glyph-name="wacute" unicode="&#x1e83;" horiz-adv-x="855" 
d="M597 704h220v-484q0 -63 -20.5 -107.5t-53 -72.5t-73.5 -40.5t-82 -12.5q-51 0 -93 15.5t-65 47.5q-29 -32 -69 -47.5t-96 -15.5q-32 0 -72 13t-75 40t-59 69t-24 101v494h221v-452q0 -39 34 -39q36 0 36 39v452h202v-452q0 -39 35 -39q34 0 34 39v452zM367 747l-47 59
l209 125l66 -91z" />
    <glyph glyph-name="Wdieresis" unicode="&#x1e84;" horiz-adv-x="945" 
d="M530 0l-58 275l-58 -275h-244l-166 704h275l77 -379l74 379h210l77 -379l75 379h149l-165 -704h-246zM606 756q-38 0 -60.5 22.5t-22.5 60.5q0 35 23.5 58.5t59.5 23.5q33 0 56.5 -23.5t23.5 -58.5q0 -36 -23.5 -59.5t-56.5 -23.5zM382 756q-38 0 -61 22.5t-23 60.5
q0 35 24 58.5t60 23.5q33 0 56.5 -23.5t23.5 -58.5q0 -36 -23.5 -59.5t-56.5 -23.5z" />
    <glyph glyph-name="wdieresis" unicode="&#x1e85;" horiz-adv-x="855" 
d="M597 704h220v-484q0 -63 -20.5 -107.5t-53 -72.5t-73.5 -40.5t-82 -12.5q-51 0 -93 15.5t-65 47.5q-29 -32 -69 -47.5t-96 -15.5q-32 0 -72 13t-75 40t-59 69t-24 101v494h221v-452q0 -39 34 -39q36 0 36 39v452h202v-452q0 -39 35 -39q34 0 34 39v452zM541 756
q-38 0 -60.5 22.5t-22.5 60.5q0 35 23.5 58.5t59.5 23.5q33 0 56.5 -23.5t23.5 -58.5q0 -36 -23.5 -59.5t-56.5 -23.5zM317 756q-38 0 -61 22.5t-23 60.5q0 35 24 58.5t60 23.5q33 0 56.5 -23.5t23.5 -58.5q0 -36 -23.5 -59.5t-56.5 -23.5z" />
    <glyph glyph-name="uni1EA0" unicode="&#x1ea0;" horiz-adv-x="676" 
d="M313 336l-30 -147h61zM391 0l-15 58h-124l-13 -58h-239l216 704h244l216 -704h-285zM340 -239q-38 0 -61 22.5t-23 60.5q0 35 24 58.5t60 23.5q33 0 56.5 -23.5t23.5 -58.5q0 -36 -23.5 -59.5t-56.5 -23.5z" />
    <glyph glyph-name="uni1EA1" unicode="&#x1ea1;" horiz-adv-x="671" 
d="M410 0v57q-18 -32 -60 -51t-107 -19q-45 0 -87 12t-75 40.5t-52.5 75t-19.5 114.5q0 64 19 107t53 69t81.5 37t105.5 11h56q6 -2 13 -6.5t12.5 -15.5t9 -29.5t3.5 -48.5q0 -32 -2.5 -50t-7.5 -32h-74q-20 0 -29 -9t-9 -23q0 -13 9 -23.5t29 -10.5q31 0 52.5 6t34.5 22.5
t18.5 45.5t5.5 74q0 38 -5 62.5t-16 38.5t-27.5 19.5t-38.5 5.5h-213v225h309q46 0 89 -16.5t76 -50.5t53 -85t20 -120v-432h-226zM337 -239q-38 0 -61 22.5t-23 60.5q0 35 24 58.5t60 23.5q33 0 56.5 -23.5t23.5 -58.5q0 -36 -23.5 -59.5t-56.5 -23.5z" />
    <glyph glyph-name="uni1EA2" unicode="&#x1ea2;" horiz-adv-x="676" 
d="M313 336l-30 -147h61zM391 0l-15 58h-124l-13 -58h-239l216 704h244l216 -704h-285zM246 720q0 38 15.5 53.5t46.5 15.5q24 0 24 21q0 19 -20 19h-98v132h147q100 0 100 -105q0 -106 -101 -106q-13 0 -19.5 -5t-6.5 -25h-88z" />
    <glyph glyph-name="uni1EA3" unicode="&#x1ea3;" horiz-adv-x="671" 
d="M410 0v57q-18 -32 -60 -51t-107 -19q-45 0 -87 12t-75 40.5t-52.5 75t-19.5 114.5q0 64 19 107t53 69t81.5 37t105.5 11h56q6 -2 13 -6.5t12.5 -15.5t9 -29.5t3.5 -48.5q0 -32 -2.5 -50t-7.5 -32h-74q-20 0 -29 -9t-9 -23q0 -13 9 -23.5t29 -10.5q31 0 52.5 6t34.5 22.5
t18.5 45.5t5.5 74q0 38 -5 62.5t-16 38.5t-27.5 19.5t-38.5 5.5h-213v225h309q46 0 89 -16.5t76 -50.5t53 -85t20 -120v-432h-226zM254 720q0 38 15.5 53.5t46.5 15.5q24 0 24 21q0 19 -20 19h-98v132h147q100 0 100 -105q0 -106 -101 -106q-13 0 -19.5 -5t-6.5 -25h-88z
" />
    <glyph glyph-name="uni1EA4" unicode="&#x1ea4;" horiz-adv-x="676" 
d="M313 336l-30 -147h61zM391 0l-15 58h-124l-13 -58h-239l216 704h244l216 -704h-285zM522 772l-34 43l149 91l47 -66zM189 803l112 103h58l112 -103l-36 -31l-106 68l-105 -68z" />
    <glyph glyph-name="uni1EA5" unicode="&#x1ea5;" horiz-adv-x="671" 
d="M410 0v57q-18 -32 -60 -51t-107 -19q-45 0 -87 12t-75 40.5t-52.5 75t-19.5 114.5q0 64 19 107t53 69t81.5 37t105.5 11h56q6 -2 13 -6.5t12.5 -15.5t9 -29.5t3.5 -48.5q0 -32 -2.5 -50t-7.5 -32h-74q-20 0 -29 -9t-9 -23q0 -13 9 -23.5t29 -10.5q31 0 52.5 6t34.5 22.5
t18.5 45.5t5.5 74q0 38 -5 62.5t-16 38.5t-27.5 19.5t-38.5 5.5h-213v225h309q46 0 89 -16.5t76 -50.5t53 -85t20 -120v-432h-226zM535 772l-34 43l149 91l47 -66zM202 803l112 103h58l112 -103l-36 -31l-106 68l-105 -68z" />
    <glyph glyph-name="uni1EA6" unicode="&#x1ea6;" horiz-adv-x="676" 
d="M313 336l-30 -147h61zM391 0l-15 58h-124l-13 -58h-239l216 704h244l216 -704h-285zM-15 840l47 66l149 -91l-34 -43zM445 772l-105 68l-106 -68l-36 31l112 103h58l112 -103z" />
    <glyph glyph-name="uni1EA7" unicode="&#x1ea7;" horiz-adv-x="671" 
d="M410 0v57q-18 -32 -60 -51t-107 -19q-45 0 -87 12t-75 40.5t-52.5 75t-19.5 114.5q0 64 19 107t53 69t81.5 37t105.5 11h56q6 -2 13 -6.5t12.5 -15.5t9 -29.5t3.5 -48.5q0 -32 -2.5 -50t-7.5 -32h-74q-20 0 -29 -9t-9 -23q0 -13 9 -23.5t29 -10.5q31 0 52.5 6t34.5 22.5
t18.5 45.5t5.5 74q0 38 -5 62.5t-16 38.5t-27.5 19.5t-38.5 5.5h-213v225h309q46 0 89 -16.5t76 -50.5t53 -85t20 -120v-432h-226zM-30 840l47 66l149 -91l-34 -43zM430 772l-105 68l-106 -68l-36 31l112 103h58l112 -103z" />
    <glyph glyph-name="uni1EA8" unicode="&#x1ea8;" horiz-adv-x="676" 
d="M313 336l-30 -147h61zM391 0l-15 58h-124l-13 -58h-239l216 704h244l216 -704h-285zM500 766q0 55 44 55q17 0 17 15q0 13 -14 13h-69v92h103q70 0 70 -73q0 -74 -71 -74q-18 0 -18 -28h-62zM184 803l112 103h58l112 -103l-36 -31l-106 68l-105 -68z" />
    <glyph glyph-name="uni1EA9" unicode="&#x1ea9;" horiz-adv-x="671" 
d="M410 0v57q-18 -32 -60 -51t-107 -19q-45 0 -87 12t-75 40.5t-52.5 75t-19.5 114.5q0 64 19 107t53 69t81.5 37t105.5 11h56q6 -2 13 -6.5t12.5 -15.5t9 -29.5t3.5 -48.5q0 -32 -2.5 -50t-7.5 -32h-74q-20 0 -29 -9t-9 -23q0 -13 9 -23.5t29 -10.5q31 0 52.5 6t34.5 22.5
t18.5 45.5t5.5 74q0 38 -5 62.5t-16 38.5t-27.5 19.5t-38.5 5.5h-213v225h309q46 0 89 -16.5t76 -50.5t53 -85t20 -120v-432h-226zM498 766q0 55 44 55q17 0 17 15q0 13 -14 13h-69v92h103q70 0 70 -73q0 -74 -71 -74q-18 0 -18 -28h-62zM182 803l112 103h58l112 -103
l-36 -31l-106 68l-105 -68z" />
    <glyph glyph-name="uni1EAA" unicode="&#x1eaa;" horiz-adv-x="676" 
d="M313 336l-30 -147h61zM391 0l-15 58h-124l-13 -58h-239l216 704h244l216 -704h-285zM462 716l-125 69l-124 -69l-41 31l132 106h67l131 -106zM506 932q-3 -13 -12 -26.5t-22 -24t-30 -17t-38 -6.5q-24 0 -40.5 4t-30 8.5t-27.5 8.5t-34 4q-11 0 -22 -6t-18 -24l-63 29
q4 13 12.5 26t21.5 23.5t30.5 17t38.5 6.5q24 0 41 -4t31 -9t28 -9t32 -4q26 0 38 32z" />
    <glyph glyph-name="uni1EAB" unicode="&#x1eab;" horiz-adv-x="671" 
d="M410 0v57q-18 -32 -60 -51t-107 -19q-45 0 -87 12t-75 40.5t-52.5 75t-19.5 114.5q0 64 19 107t53 69t81.5 37t105.5 11h56q6 -2 13 -6.5t12.5 -15.5t9 -29.5t3.5 -48.5q0 -32 -2.5 -50t-7.5 -32h-74q-20 0 -29 -9t-9 -23q0 -13 9 -23.5t29 -10.5q31 0 52.5 6t34.5 22.5
t18.5 45.5t5.5 74q0 38 -5 62.5t-16 38.5t-27.5 19.5t-38.5 5.5h-213v225h309q46 0 89 -16.5t76 -50.5t53 -85t20 -120v-432h-226zM460 716l-125 69l-124 -69l-41 31l132 106h67l131 -106zM504 932q-3 -13 -12 -26.5t-22 -24t-30 -17t-38 -6.5q-24 0 -40.5 4t-30 8.5
t-27.5 8.5t-34 4q-11 0 -22 -6t-18 -24l-63 29q4 13 12.5 26t21.5 23.5t30.5 17t38.5 6.5q24 0 41 -4t31 -9t28 -9t32 -4q26 0 38 32z" />
    <glyph glyph-name="uni1EAC" unicode="&#x1eac;" horiz-adv-x="676" 
d="M313 336l-30 -147h61zM391 0l-15 58h-124l-13 -58h-239l216 704h244l216 -704h-285zM487 747l-149 93l-148 -93l-50 42l158 142h80l158 -142zM340 -239q-38 0 -61 22.5t-23 60.5q0 35 24 58.5t60 23.5q33 0 56.5 -23.5t23.5 -58.5q0 -36 -23.5 -59.5t-56.5 -23.5z" />
    <glyph glyph-name="uni1EAD" unicode="&#x1ead;" horiz-adv-x="671" 
d="M410 0v57q-18 -32 -60 -51t-107 -19q-45 0 -87 12t-75 40.5t-52.5 75t-19.5 114.5q0 64 19 107t53 69t81.5 37t105.5 11h56q6 -2 13 -6.5t12.5 -15.5t9 -29.5t3.5 -48.5q0 -32 -2.5 -50t-7.5 -32h-74q-20 0 -29 -9t-9 -23q0 -13 9 -23.5t29 -10.5q31 0 52.5 6t34.5 22.5
t18.5 45.5t5.5 74q0 38 -5 62.5t-16 38.5t-27.5 19.5t-38.5 5.5h-213v225h309q46 0 89 -16.5t76 -50.5t53 -85t20 -120v-432h-226zM484 747l-149 93l-148 -93l-50 42l158 142h80l158 -142zM337 -239q-38 0 -61 22.5t-23 60.5q0 35 24 58.5t60 23.5q33 0 56.5 -23.5
t23.5 -58.5q0 -36 -23.5 -59.5t-56.5 -23.5z" />
    <glyph glyph-name="uni1EAE" unicode="&#x1eae;" horiz-adv-x="676" 
d="M313 336l-30 -147h61zM391 0l-15 58h-124l-13 -58h-239l216 704h244l216 -704h-285zM284 840l-28 39l124 82l40 -60zM492 842q-5 -21 -18 -43.5t-32.5 -40.5t-45.5 -29.5t-59 -11.5q-32 0 -59 11.5t-47 29.5t-32.5 40.5t-15.5 43.5l53 37q12 -45 39 -63.5t61 -18.5
q35 0 61 18.5t41 63.5z" />
    <glyph glyph-name="uni1EAF" unicode="&#x1eaf;" horiz-adv-x="671" 
d="M410 0v57q-18 -32 -60 -51t-107 -19q-45 0 -87 12t-75 40.5t-52.5 75t-19.5 114.5q0 64 19 107t53 69t81.5 37t105.5 11h56q6 -2 13 -6.5t12.5 -15.5t9 -29.5t3.5 -48.5q0 -32 -2.5 -50t-7.5 -32h-74q-20 0 -29 -9t-9 -23q0 -13 9 -23.5t29 -10.5q31 0 52.5 6t34.5 22.5
t18.5 45.5t5.5 74q0 38 -5 62.5t-16 38.5t-27.5 19.5t-38.5 5.5h-213v225h309q46 0 89 -16.5t76 -50.5t53 -85t20 -120v-432h-226zM282 840l-28 39l124 82l40 -60zM490 842q-5 -21 -18 -43.5t-32.5 -40.5t-45.5 -29.5t-59 -11.5q-32 0 -59 11.5t-47 29.5t-32.5 40.5
t-15.5 43.5l53 37q12 -45 39 -63.5t61 -18.5q35 0 61 18.5t41 63.5z" />
    <glyph glyph-name="uni1EB0" unicode="&#x1eb0;" horiz-adv-x="676" 
d="M313 336l-30 -147h61zM391 0l-15 58h-124l-13 -58h-239l216 704h244l216 -704h-285zM255 901l40 60l124 -82l-28 -39zM237 879q15 -45 41 -63.5t61 -18.5q34 0 61 18.5t39 63.5l53 -37q-3 -21 -15.5 -43.5t-32.5 -40.5t-47 -29.5t-59 -11.5q-33 0 -59 11.5t-45.5 29.5
t-32.5 40.5t-18 43.5z" />
    <glyph glyph-name="uni1EB1" unicode="&#x1eb1;" horiz-adv-x="671" 
d="M410 0v57q-18 -32 -60 -51t-107 -19q-45 0 -87 12t-75 40.5t-52.5 75t-19.5 114.5q0 64 19 107t53 69t81.5 37t105.5 11h56q6 -2 13 -6.5t12.5 -15.5t9 -29.5t3.5 -48.5q0 -32 -2.5 -50t-7.5 -32h-74q-20 0 -29 -9t-9 -23q0 -13 9 -23.5t29 -10.5q31 0 52.5 6t34.5 22.5
t18.5 45.5t5.5 74q0 38 -5 62.5t-16 38.5t-27.5 19.5t-38.5 5.5h-213v225h309q46 0 89 -16.5t76 -50.5t53 -85t20 -120v-432h-226zM253 901l40 60l124 -82l-28 -39zM235 879q15 -45 41 -63.5t61 -18.5q34 0 61 18.5t39 63.5l53 -37q-3 -21 -15.5 -43.5t-32.5 -40.5
t-47 -29.5t-59 -11.5q-33 0 -59 11.5t-45.5 29.5t-32.5 40.5t-18 43.5z" />
    <glyph glyph-name="uni1EB2" unicode="&#x1eb2;" horiz-adv-x="676" 
d="M313 336l-30 -147h61zM391 0l-15 58h-124l-13 -58h-239l216 704h244l216 -704h-285zM291 828q0 42 38 42q14 0 14 11q0 10 -12 10h-59v70h89q60 0 60 -56t-61 -56q-16 0 -16 -21h-53zM237 879q15 -45 41 -63.5t61 -18.5q34 0 61 18.5t39 63.5l53 -37q-3 -21 -15.5 -43.5
t-32.5 -40.5t-47 -29.5t-59 -11.5q-33 0 -59 11.5t-45.5 29.5t-32.5 40.5t-18 43.5z" />
    <glyph glyph-name="uni1EB3" unicode="&#x1eb3;" horiz-adv-x="671" 
d="M410 0v57q-18 -32 -60 -51t-107 -19q-45 0 -87 12t-75 40.5t-52.5 75t-19.5 114.5q0 64 19 107t53 69t81.5 37t105.5 11h56q6 -2 13 -6.5t12.5 -15.5t9 -29.5t3.5 -48.5q0 -32 -2.5 -50t-7.5 -32h-74q-20 0 -29 -9t-9 -23q0 -13 9 -23.5t29 -10.5q31 0 52.5 6t34.5 22.5
t18.5 45.5t5.5 74q0 38 -5 62.5t-16 38.5t-27.5 19.5t-38.5 5.5h-213v225h309q46 0 89 -16.5t76 -50.5t53 -85t20 -120v-432h-226zM289 828q0 42 38 42q14 0 14 11q0 10 -12 10h-59v70h89q60 0 60 -56t-61 -56q-16 0 -16 -21h-53zM235 879q15 -45 41 -63.5t61 -18.5
q34 0 61 18.5t39 63.5l53 -37q-3 -21 -15.5 -43.5t-32.5 -40.5t-47 -29.5t-59 -11.5q-33 0 -59 11.5t-45.5 29.5t-32.5 40.5t-18 43.5z" />
    <glyph glyph-name="uni1EB4" unicode="&#x1eb4;" horiz-adv-x="676" 
d="M313 336l-30 -147h61zM391 0l-15 58h-124l-13 -58h-239l216 704h244l216 -704h-285zM492 842q-5 -21 -18 -43.5t-32.5 -40.5t-45.5 -29.5t-59 -11.5q-32 0 -59 11.5t-47 29.5t-32.5 40.5t-15.5 43.5l53 37q12 -45 39 -63.5t61 -18.5q35 0 61 18.5t41 63.5zM449 938
q-5 -21 -22 -40t-43 -19q-15 0 -24.5 3t-18 7t-17.5 7t-22 3q-7 0 -13 -4.5t-11 -18.5l-40 23q5 20 21.5 38.5t42.5 18.5q15 0 25.5 -3.5t19.5 -7t17.5 -7t19.5 -3.5q16 0 24 26z" />
    <glyph glyph-name="uni1EB5" unicode="&#x1eb5;" horiz-adv-x="671" 
d="M410 0v57q-18 -32 -60 -51t-107 -19q-45 0 -87 12t-75 40.5t-52.5 75t-19.5 114.5q0 64 19 107t53 69t81.5 37t105.5 11h56q6 -2 13 -6.5t12.5 -15.5t9 -29.5t3.5 -48.5q0 -32 -2.5 -50t-7.5 -32h-74q-20 0 -29 -9t-9 -23q0 -13 9 -23.5t29 -10.5q31 0 52.5 6t34.5 22.5
t18.5 45.5t5.5 74q0 38 -5 62.5t-16 38.5t-27.5 19.5t-38.5 5.5h-213v225h309q46 0 89 -16.5t76 -50.5t53 -85t20 -120v-432h-226zM490 842q-5 -21 -18 -43.5t-32.5 -40.5t-45.5 -29.5t-59 -11.5q-32 0 -59 11.5t-47 29.5t-32.5 40.5t-15.5 43.5l53 37q12 -45 39 -63.5
t61 -18.5q35 0 61 18.5t41 63.5zM447 938q-5 -21 -22 -40t-43 -19q-15 0 -24.5 3t-18 7t-17.5 7t-22 3q-7 0 -13 -4.5t-11 -18.5l-40 23q5 20 21.5 38.5t42.5 18.5q15 0 25.5 -3.5t19.5 -7t17.5 -7t19.5 -3.5q16 0 24 26z" />
    <glyph glyph-name="uni1EB6" unicode="&#x1eb6;" horiz-adv-x="676" 
d="M313 336l-30 -147h61zM391 0l-15 58h-124l-13 -58h-239l216 704h244l216 -704h-285zM536 889q-7 -24 -23 -49.5t-41 -46t-58.5 -33.5t-75.5 -13q-41 0 -75.5 13t-60.5 33.5t-42 46t-20 49.5l68 42q16 -51 50 -72t78 -21q45 0 78 21t53 72zM340 -239q-38 0 -61 22.5
t-23 60.5q0 35 24 58.5t60 23.5q33 0 56.5 -23.5t23.5 -58.5q0 -36 -23.5 -59.5t-56.5 -23.5z" />
    <glyph glyph-name="uni1EB7" unicode="&#x1eb7;" horiz-adv-x="671" 
d="M410 0v57q-18 -32 -60 -51t-107 -19q-45 0 -87 12t-75 40.5t-52.5 75t-19.5 114.5q0 64 19 107t53 69t81.5 37t105.5 11h56q6 -2 13 -6.5t12.5 -15.5t9 -29.5t3.5 -48.5q0 -32 -2.5 -50t-7.5 -32h-74q-20 0 -29 -9t-9 -23q0 -13 9 -23.5t29 -10.5q31 0 52.5 6t34.5 22.5
t18.5 45.5t5.5 74q0 38 -5 62.5t-16 38.5t-27.5 19.5t-38.5 5.5h-213v225h309q46 0 89 -16.5t76 -50.5t53 -85t20 -120v-432h-226zM543 889q-7 -24 -23 -49.5t-41 -46t-58.5 -33.5t-75.5 -13q-41 0 -75.5 13t-60.5 33.5t-42 46t-20 49.5l68 42q16 -51 50 -72t78 -21
q45 0 78 21t53 72zM337 -239q-38 0 -61 22.5t-23 60.5q0 35 24 58.5t60 23.5q33 0 56.5 -23.5t23.5 -58.5q0 -36 -23.5 -59.5t-56.5 -23.5z" />
    <glyph glyph-name="uni1EB8" unicode="&#x1eb8;" horiz-adv-x="568" 
d="M237 0q-50 0 -92 13t-72 40t-47 67.5t-17 96.5q0 24 5 48t15.5 45t27 38t39.5 28q-38 20 -55 60.5t-17 86.5q0 39 12 72.5t36.5 57.5t62 37.5t87.5 13.5h317v-223h-260q-30 0 -30 -31q0 -30 30 -30h230v-121h-224q-39 0 -39 -37q0 -35 39 -35h255v-227h-303zM288 -239
q-38 0 -61 22.5t-23 60.5q0 35 24 58.5t60 23.5q33 0 56.5 -23.5t23.5 -58.5q0 -36 -23.5 -59.5t-56.5 -23.5z" />
    <glyph glyph-name="uni1EB9" unicode="&#x1eb9;" horiz-adv-x="640" 
d="M356 0q-75 0 -138.5 23.5t-110 68.5t-72.5 109.5t-26 146.5q0 79 22.5 146.5t65 117t104.5 77t140 27.5q65 0 118.5 -15t91.5 -45.5t59 -76t21 -105.5q0 -53 -13 -95t-40.5 -70.5t-71.5 -43.5t-106 -15h-80q-16 12 -26.5 34.5t-10.5 63.5q0 29 3.5 48t12.5 38h57
q26 0 37 7.5t11 23.5q0 29 -44 29q-51 0 -78 -35.5t-27 -110.5q0 -63 23 -93t54 -30h274v-225h-250zM322 -239q-38 0 -61 22.5t-23 60.5q0 35 24 58.5t60 23.5q33 0 56.5 -23.5t23.5 -58.5q0 -36 -23.5 -59.5t-56.5 -23.5z" />
    <glyph glyph-name="uni1EBA" unicode="&#x1eba;" horiz-adv-x="568" 
d="M237 0q-50 0 -92 13t-72 40t-47 67.5t-17 96.5q0 24 5 48t15.5 45t27 38t39.5 28q-38 20 -55 60.5t-17 86.5q0 39 12 72.5t36.5 57.5t62 37.5t87.5 13.5h317v-223h-260q-30 0 -30 -31q0 -30 30 -30h230v-121h-224q-39 0 -39 -37q0 -35 39 -35h255v-227h-303zM246 720
q0 38 15.5 53.5t46.5 15.5q24 0 24 21q0 19 -20 19h-98v132h147q100 0 100 -105q0 -106 -101 -106q-13 0 -19.5 -5t-6.5 -25h-88z" />
    <glyph glyph-name="uni1EBB" unicode="&#x1ebb;" horiz-adv-x="640" 
d="M356 0q-75 0 -138.5 23.5t-110 68.5t-72.5 109.5t-26 146.5q0 79 22.5 146.5t65 117t104.5 77t140 27.5q65 0 118.5 -15t91.5 -45.5t59 -76t21 -105.5q0 -53 -13 -95t-40.5 -70.5t-71.5 -43.5t-106 -15h-80q-16 12 -26.5 34.5t-10.5 63.5q0 29 3.5 48t12.5 38h57
q26 0 37 7.5t11 23.5q0 29 -44 29q-51 0 -78 -35.5t-27 -110.5q0 -63 23 -93t54 -30h274v-225h-250zM296 720q0 38 15.5 53.5t46.5 15.5q24 0 24 21q0 19 -20 19h-98v132h147q100 0 100 -105q0 -106 -101 -106q-13 0 -19.5 -5t-6.5 -25h-88z" />
    <glyph glyph-name="uni1EBC" unicode="&#x1ebc;" horiz-adv-x="568" 
d="M237 0q-50 0 -92 13t-72 40t-47 67.5t-17 96.5q0 24 5 48t15.5 45t27 38t39.5 28q-38 20 -55 60.5t-17 86.5q0 39 12 72.5t36.5 57.5t62 37.5t87.5 13.5h317v-223h-260q-30 0 -30 -31q0 -30 30 -30h230v-121h-224q-39 0 -39 -37q0 -35 39 -35h255v-227h-303zM489 870
q-4 -18 -14.5 -35.5t-26.5 -32t-36.5 -23.5t-45.5 -9q-29 0 -48 5.5t-35.5 12t-33.5 12t-41 5.5q-14 0 -27 -8t-21 -32l-76 38q4 18 15 35.5t26.5 31.5t36.5 22.5t46 8.5q28 0 48.5 -5.5t38 -12t34 -12t37.5 -5.5q32 0 45 43z" />
    <glyph glyph-name="uni1EBD" unicode="&#x1ebd;" horiz-adv-x="640" 
d="M356 0q-75 0 -138.5 23.5t-110 68.5t-72.5 109.5t-26 146.5q0 79 22.5 146.5t65 117t104.5 77t140 27.5q65 0 118.5 -15t91.5 -45.5t59 -76t21 -105.5q0 -53 -13 -95t-40.5 -70.5t-71.5 -43.5t-106 -15h-80q-16 12 -26.5 34.5t-10.5 63.5q0 29 3.5 48t12.5 38h57
q26 0 37 7.5t11 23.5q0 29 -44 29q-51 0 -78 -35.5t-27 -110.5q0 -63 23 -93t54 -30h274v-225h-250zM532 870q-4 -18 -14.5 -35.5t-26.5 -32t-36.5 -23.5t-45.5 -9q-29 0 -48 5.5t-35.5 12t-33.5 12t-41 5.5q-14 0 -27 -8t-21 -32l-76 38q4 18 15 35.5t26.5 31.5t36.5 22.5
t46 8.5q28 0 48.5 -5.5t38 -12t34 -12t37.5 -5.5q32 0 45 43z" />
    <glyph glyph-name="uni1EBE" unicode="&#x1ebe;" horiz-adv-x="568" 
d="M237 0q-50 0 -92 13t-72 40t-47 67.5t-17 96.5q0 24 5 48t15.5 45t27 38t39.5 28q-38 20 -55 60.5t-17 86.5q0 39 12 72.5t36.5 57.5t62 37.5t87.5 13.5h317v-223h-260q-30 0 -30 -31q0 -30 30 -30h230v-121h-224q-39 0 -39 -37q0 -35 39 -35h255v-227h-303zM508 772
l-34 43l149 91l47 -66zM175 803l112 103h58l112 -103l-36 -31l-106 68l-105 -68z" />
    <glyph glyph-name="uni1EBF" unicode="&#x1ebf;" horiz-adv-x="640" 
d="M356 0q-75 0 -138.5 23.5t-110 68.5t-72.5 109.5t-26 146.5q0 79 22.5 146.5t65 117t104.5 77t140 27.5q65 0 118.5 -15t91.5 -45.5t59 -76t21 -105.5q0 -53 -13 -95t-40.5 -70.5t-71.5 -43.5t-106 -15h-80q-16 12 -26.5 34.5t-10.5 63.5q0 29 3.5 48t12.5 38h57
q26 0 37 7.5t11 23.5q0 29 -44 29q-51 0 -78 -35.5t-27 -110.5q0 -63 23 -93t54 -30h274v-225h-250zM539 772l-34 43l149 91l47 -66zM206 803l112 103h58l112 -103l-36 -31l-106 68l-105 -68z" />
    <glyph glyph-name="uni1EC0" unicode="&#x1ec0;" horiz-adv-x="568" 
d="M237 0q-50 0 -92 13t-72 40t-47 67.5t-17 96.5q0 24 5 48t15.5 45t27 38t39.5 28q-38 20 -55 60.5t-17 86.5q0 39 12 72.5t36.5 57.5t62 37.5t87.5 13.5h317v-223h-260q-30 0 -30 -31q0 -30 30 -30h230v-121h-224q-39 0 -39 -37q0 -35 39 -35h255v-227h-303zM-60 840
l47 66l149 -91l-34 -43zM400 772l-105 68l-106 -68l-36 31l112 103h58l112 -103z" />
    <glyph glyph-name="uni1EC1" unicode="&#x1ec1;" horiz-adv-x="640" 
d="M356 0q-75 0 -138.5 23.5t-110 68.5t-72.5 109.5t-26 146.5q0 79 22.5 146.5t65 117t104.5 77t140 27.5q65 0 118.5 -15t91.5 -45.5t59 -76t21 -105.5q0 -53 -13 -95t-40.5 -70.5t-71.5 -43.5t-106 -15h-80q-16 12 -26.5 34.5t-10.5 63.5q0 29 3.5 48t12.5 38h57
q26 0 37 7.5t11 23.5q0 29 -44 29q-51 0 -78 -35.5t-27 -110.5q0 -63 23 -93t54 -30h274v-225h-250zM-10 840l47 66l149 -91l-34 -43zM450 772l-105 68l-106 -68l-36 31l112 103h58l112 -103z" />
    <glyph glyph-name="uni1EC2" unicode="&#x1ec2;" horiz-adv-x="568" 
d="M237 0q-50 0 -92 13t-72 40t-47 67.5t-17 96.5q0 24 5 48t15.5 45t27 38t39.5 28q-38 20 -55 60.5t-17 86.5q0 39 12 72.5t36.5 57.5t62 37.5t87.5 13.5h317v-223h-260q-30 0 -30 -31q0 -30 30 -30h230v-121h-224q-39 0 -39 -37q0 -35 39 -35h255v-227h-303zM480 766
q0 55 44 55q17 0 17 15q0 13 -14 13h-69v92h103q70 0 70 -73q0 -74 -71 -74q-18 0 -18 -28h-62zM164 803l112 103h58l112 -103l-36 -31l-106 68l-105 -68z" />
    <glyph glyph-name="uni1EC3" unicode="&#x1ec3;" horiz-adv-x="640" 
d="M356 0q-75 0 -138.5 23.5t-110 68.5t-72.5 109.5t-26 146.5q0 79 22.5 146.5t65 117t104.5 77t140 27.5q65 0 118.5 -15t91.5 -45.5t59 -76t21 -105.5q0 -53 -13 -95t-40.5 -70.5t-71.5 -43.5t-106 -15h-80q-16 12 -26.5 34.5t-10.5 63.5q0 29 3.5 48t12.5 38h57
q26 0 37 7.5t11 23.5q0 29 -44 29q-51 0 -78 -35.5t-27 -110.5q0 -63 23 -93t54 -30h274v-225h-250zM522 766q0 55 44 55q17 0 17 15q0 13 -14 13h-69v92h103q70 0 70 -73q0 -74 -71 -74q-18 0 -18 -28h-62zM206 803l112 103h58l112 -103l-36 -31l-106 68l-105 -68z" />
    <glyph glyph-name="uni1EC4" unicode="&#x1ec4;" horiz-adv-x="568" 
d="M237 0q-50 0 -92 13t-72 40t-47 67.5t-17 96.5q0 24 5 48t15.5 45t27 38t39.5 28q-38 20 -55 60.5t-17 86.5q0 39 12 72.5t36.5 57.5t62 37.5t87.5 13.5h317v-223h-260q-30 0 -30 -31q0 -30 30 -30h230v-121h-224q-39 0 -39 -37q0 -35 39 -35h255v-227h-303zM407 716
l-125 69l-124 -69l-41 31l132 106h67l131 -106zM451 932q-3 -13 -12 -26.5t-22 -24t-30 -17t-38 -6.5q-24 0 -40.5 4t-30 8.5t-27.5 8.5t-34 4q-11 0 -22 -6t-18 -24l-63 29q4 13 12.5 26t21.5 23.5t30.5 17t38.5 6.5q24 0 41 -4t31 -9t28 -9t32 -4q26 0 38 32z" />
    <glyph glyph-name="uni1EC5" unicode="&#x1ec5;" horiz-adv-x="640" 
d="M356 0q-75 0 -138.5 23.5t-110 68.5t-72.5 109.5t-26 146.5q0 79 22.5 146.5t65 117t104.5 77t140 27.5q65 0 118.5 -15t91.5 -45.5t59 -76t21 -105.5q0 -53 -13 -95t-40.5 -70.5t-71.5 -43.5t-106 -15h-80q-16 12 -26.5 34.5t-10.5 63.5q0 29 3.5 48t12.5 38h57
q26 0 37 7.5t11 23.5q0 29 -44 29q-51 0 -78 -35.5t-27 -110.5q0 -63 23 -93t54 -30h274v-225h-250zM454 716l-125 69l-124 -69l-41 31l132 106h67l131 -106zM498 932q-3 -13 -12 -26.5t-22 -24t-30 -17t-38 -6.5q-24 0 -40.5 4t-30 8.5t-27.5 8.5t-34 4q-11 0 -22 -6
t-18 -24l-63 29q4 13 12.5 26t21.5 23.5t30.5 17t38.5 6.5q24 0 41 -4t31 -9t28 -9t32 -4q26 0 38 32z" />
    <glyph glyph-name="uni1EC6" unicode="&#x1ec6;" horiz-adv-x="568" 
d="M237 0q-50 0 -92 13t-72 40t-47 67.5t-17 96.5q0 24 5 48t15.5 45t27 38t39.5 28q-38 20 -55 60.5t-17 86.5q0 39 12 72.5t36.5 57.5t62 37.5t87.5 13.5h317v-223h-260q-30 0 -30 -31q0 -30 30 -30h230v-121h-224q-39 0 -39 -37q0 -35 39 -35h255v-227h-303zM441 747
l-149 93l-148 -93l-50 42l158 142h80l158 -142zM286 -239q-38 0 -61 22.5t-23 60.5q0 35 24 58.5t60 23.5q33 0 56.5 -23.5t23.5 -58.5q0 -36 -23.5 -59.5t-56.5 -23.5z" />
    <glyph glyph-name="uni1EC7" unicode="&#x1ec7;" horiz-adv-x="640" 
d="M356 0q-75 0 -138.5 23.5t-110 68.5t-72.5 109.5t-26 146.5q0 79 22.5 146.5t65 117t104.5 77t140 27.5q65 0 118.5 -15t91.5 -45.5t59 -76t21 -105.5q0 -53 -13 -95t-40.5 -70.5t-71.5 -43.5t-106 -15h-80q-16 12 -26.5 34.5t-10.5 63.5q0 29 3.5 48t12.5 38h57
q26 0 37 7.5t11 23.5q0 29 -44 29q-51 0 -78 -35.5t-27 -110.5q0 -63 23 -93t54 -30h274v-225h-250zM479 747l-149 93l-148 -93l-50 42l158 142h80l158 -142zM322 -239q-38 0 -61 22.5t-23 60.5q0 35 24 58.5t60 23.5q33 0 56.5 -23.5t23.5 -58.5q0 -36 -23.5 -59.5
t-56.5 -23.5z" />
    <glyph glyph-name="uni1EC8" unicode="&#x1ec8;" horiz-adv-x="332" 
d="M44 0v704h244v-704h-244zM76 720q0 38 15.5 53.5t46.5 15.5q24 0 24 21q0 19 -20 19h-98v132h147q100 0 100 -105q0 -106 -101 -106q-13 0 -19.5 -5t-6.5 -25h-88z" />
    <glyph glyph-name="uni1EC9" unicode="&#x1ec9;" horiz-adv-x="332" 
d="M44 0v704h244v-704h-244zM76 720q0 38 15.5 53.5t46.5 15.5q24 0 24 21q0 19 -20 19h-98v132h147q100 0 100 -105q0 -106 -101 -106q-13 0 -19.5 -5t-6.5 -25h-88z" />
    <glyph glyph-name="uni1ECA" unicode="&#x1eca;" horiz-adv-x="332" 
d="M44 0v704h244v-704h-244zM168 -239q-38 0 -61 22.5t-23 60.5q0 35 24 58.5t60 23.5q33 0 56.5 -23.5t23.5 -58.5q0 -36 -23.5 -59.5t-56.5 -23.5z" />
    <glyph glyph-name="uni1ECB" unicode="&#x1ecb;" horiz-adv-x="332" 
d="M44 0v704h244v-704h-244zM168 -239q-38 0 -61 22.5t-23 60.5q0 35 24 58.5t60 23.5q33 0 56.5 -23.5t23.5 -58.5q0 -36 -23.5 -59.5t-56.5 -23.5z" />
    <glyph glyph-name="uni1ECC" unicode="&#x1ecc;" 
d="M351 -13q-80 0 -143 25t-107.5 72t-68 114.5t-23.5 153.5q0 83 23.5 150.5t68 115t107.5 73t143 25.5q79 0 142 -25.5t107 -73t67.5 -115t23.5 -150.5q0 -86 -23.5 -153.5t-67.5 -114.5t-107 -72t-142 -25zM351 213q43 0 70.5 32.5t27.5 106.5q0 75 -24.5 107.5
t-73.5 32.5q-50 0 -74.5 -32.5t-24.5 -107.5q0 -74 27.5 -106.5t71.5 -32.5zM352 -239q-38 0 -61 22.5t-23 60.5q0 35 24 58.5t60 23.5q33 0 56.5 -23.5t23.5 -58.5q0 -36 -23.5 -59.5t-56.5 -23.5z" />
    <glyph glyph-name="uni1ECD" unicode="&#x1ecd;" 
d="M351 -13q-80 0 -143 25t-107.5 72t-68 114.5t-23.5 153.5q0 83 23.5 150.5t68 115t107.5 73t143 25.5q79 0 142 -25.5t107 -73t67.5 -115t23.5 -150.5q0 -86 -23.5 -153.5t-67.5 -114.5t-107 -72t-142 -25zM351 213q43 0 70.5 32.5t27.5 106.5q0 75 -24.5 107.5
t-73.5 32.5q-50 0 -74.5 -32.5t-24.5 -107.5q0 -74 27.5 -106.5t71.5 -32.5zM352 -239q-38 0 -61 22.5t-23 60.5q0 35 24 58.5t60 23.5q33 0 56.5 -23.5t23.5 -58.5q0 -36 -23.5 -59.5t-56.5 -23.5z" />
    <glyph glyph-name="uni1ECE" unicode="&#x1ece;" 
d="M351 -13q-80 0 -143 25t-107.5 72t-68 114.5t-23.5 153.5q0 83 23.5 150.5t68 115t107.5 73t143 25.5q79 0 142 -25.5t107 -73t67.5 -115t23.5 -150.5q0 -86 -23.5 -153.5t-67.5 -114.5t-107 -72t-142 -25zM351 213q43 0 70.5 32.5t27.5 106.5q0 75 -24.5 107.5
t-73.5 32.5q-50 0 -74.5 -32.5t-24.5 -107.5q0 -74 27.5 -106.5t71.5 -32.5zM288 720q0 38 15.5 53.5t46.5 15.5q24 0 24 21q0 19 -20 19h-98v132h147q100 0 100 -105q0 -106 -101 -106q-13 0 -19.5 -5t-6.5 -25h-88z" />
    <glyph glyph-name="uni1ECF" unicode="&#x1ecf;" 
d="M351 -13q-80 0 -143 25t-107.5 72t-68 114.5t-23.5 153.5q0 83 23.5 150.5t68 115t107.5 73t143 25.5q79 0 142 -25.5t107 -73t67.5 -115t23.5 -150.5q0 -86 -23.5 -153.5t-67.5 -114.5t-107 -72t-142 -25zM351 213q43 0 70.5 32.5t27.5 106.5q0 75 -24.5 107.5
t-73.5 32.5q-50 0 -74.5 -32.5t-24.5 -107.5q0 -74 27.5 -106.5t71.5 -32.5zM288 720q0 38 15.5 53.5t46.5 15.5q24 0 24 21q0 19 -20 19h-98v132h147q100 0 100 -105q0 -106 -101 -106q-13 0 -19.5 -5t-6.5 -25h-88z" />
    <glyph glyph-name="uni1ED0" unicode="&#x1ed0;" 
d="M351 -13q-80 0 -143 25t-107.5 72t-68 114.5t-23.5 153.5q0 83 23.5 150.5t68 115t107.5 73t143 25.5q79 0 142 -25.5t107 -73t67.5 -115t23.5 -150.5q0 -86 -23.5 -153.5t-67.5 -114.5t-107 -72t-142 -25zM351 213q43 0 70.5 32.5t27.5 106.5q0 75 -24.5 107.5
t-73.5 32.5q-50 0 -74.5 -32.5t-24.5 -107.5q0 -74 27.5 -106.5t71.5 -32.5zM548 772l-34 43l149 91l47 -66zM215 803l112 103h58l112 -103l-36 -31l-106 68l-105 -68z" />
    <glyph glyph-name="uni1ED1" unicode="&#x1ed1;" 
d="M351 -13q-80 0 -143 25t-107.5 72t-68 114.5t-23.5 153.5q0 83 23.5 150.5t68 115t107.5 73t143 25.5q79 0 142 -25.5t107 -73t67.5 -115t23.5 -150.5q0 -86 -23.5 -153.5t-67.5 -114.5t-107 -72t-142 -25zM351 213q43 0 70.5 32.5t27.5 106.5q0 75 -24.5 107.5
t-73.5 32.5q-50 0 -74.5 -32.5t-24.5 -107.5q0 -74 27.5 -106.5t71.5 -32.5zM548 772l-34 43l149 91l47 -66zM215 803l112 103h58l112 -103l-36 -31l-106 68l-105 -68z" />
    <glyph glyph-name="uni1ED2" unicode="&#x1ed2;" 
d="M351 -13q-80 0 -143 25t-107.5 72t-68 114.5t-23.5 153.5q0 83 23.5 150.5t68 115t107.5 73t143 25.5q79 0 142 -25.5t107 -73t67.5 -115t23.5 -150.5q0 -86 -23.5 -153.5t-67.5 -114.5t-107 -72t-142 -25zM351 213q43 0 70.5 32.5t27.5 106.5q0 75 -24.5 107.5
t-73.5 32.5q-50 0 -74.5 -32.5t-24.5 -107.5q0 -74 27.5 -106.5t71.5 -32.5zM-1 840l47 66l149 -91l-34 -43zM459 772l-105 68l-106 -68l-36 31l112 103h58l112 -103z" />
    <glyph glyph-name="uni1ED3" unicode="&#x1ed3;" 
d="M351 -13q-80 0 -143 25t-107.5 72t-68 114.5t-23.5 153.5q0 83 23.5 150.5t68 115t107.5 73t143 25.5q79 0 142 -25.5t107 -73t67.5 -115t23.5 -150.5q0 -86 -23.5 -153.5t-67.5 -114.5t-107 -72t-142 -25zM351 213q43 0 70.5 32.5t27.5 106.5q0 75 -24.5 107.5
t-73.5 32.5q-50 0 -74.5 -32.5t-24.5 -107.5q0 -74 27.5 -106.5t71.5 -32.5zM-1 840l47 66l149 -91l-34 -43zM459 772l-105 68l-106 -68l-36 31l112 103h58l112 -103z" />
    <glyph glyph-name="uni1ED4" unicode="&#x1ed4;" 
d="M351 -13q-80 0 -143 25t-107.5 72t-68 114.5t-23.5 153.5q0 83 23.5 150.5t68 115t107.5 73t143 25.5q79 0 142 -25.5t107 -73t67.5 -115t23.5 -150.5q0 -86 -23.5 -153.5t-67.5 -114.5t-107 -72t-142 -25zM351 213q43 0 70.5 32.5t27.5 106.5q0 75 -24.5 107.5
t-73.5 32.5q-50 0 -74.5 -32.5t-24.5 -107.5q0 -74 27.5 -106.5t71.5 -32.5zM522 766q0 55 44 55q17 0 17 15q0 13 -14 13h-69v92h103q70 0 70 -73q0 -74 -71 -74q-18 0 -18 -28h-62zM206 803l112 103h58l112 -103l-36 -31l-106 68l-105 -68z" />
    <glyph glyph-name="uni1ED5" unicode="&#x1ed5;" 
d="M351 -13q-80 0 -143 25t-107.5 72t-68 114.5t-23.5 153.5q0 83 23.5 150.5t68 115t107.5 73t143 25.5q79 0 142 -25.5t107 -73t67.5 -115t23.5 -150.5q0 -86 -23.5 -153.5t-67.5 -114.5t-107 -72t-142 -25zM351 213q43 0 70.5 32.5t27.5 106.5q0 75 -24.5 107.5
t-73.5 32.5q-50 0 -74.5 -32.5t-24.5 -107.5q0 -74 27.5 -106.5t71.5 -32.5zM522 766q0 55 44 55q17 0 17 15q0 13 -14 13h-69v92h103q70 0 70 -73q0 -74 -71 -74q-18 0 -18 -28h-62zM206 803l112 103h58l112 -103l-36 -31l-106 68l-105 -68z" />
    <glyph glyph-name="uni1ED6" unicode="&#x1ed6;" 
d="M351 -13q-80 0 -143 25t-107.5 72t-68 114.5t-23.5 153.5q0 83 23.5 150.5t68 115t107.5 73t143 25.5q79 0 142 -25.5t107 -73t67.5 -115t23.5 -150.5q0 -86 -23.5 -153.5t-67.5 -114.5t-107 -72t-142 -25zM351 213q43 0 70.5 32.5t27.5 106.5q0 75 -24.5 107.5
t-73.5 32.5q-50 0 -74.5 -32.5t-24.5 -107.5q0 -74 27.5 -106.5t71.5 -32.5zM474 716l-125 69l-124 -69l-41 31l132 106h67l131 -106zM518 932q-3 -13 -12 -26.5t-22 -24t-30 -17t-38 -6.5q-24 0 -40.5 4t-30 8.5t-27.5 8.5t-34 4q-11 0 -22 -6t-18 -24l-63 29q4 13 12.5 26
t21.5 23.5t30.5 17t38.5 6.5q24 0 41 -4t31 -9t28 -9t32 -4q26 0 38 32z" />
    <glyph glyph-name="uni1ED7" unicode="&#x1ed7;" 
d="M351 -13q-80 0 -143 25t-107.5 72t-68 114.5t-23.5 153.5q0 83 23.5 150.5t68 115t107.5 73t143 25.5q79 0 142 -25.5t107 -73t67.5 -115t23.5 -150.5q0 -86 -23.5 -153.5t-67.5 -114.5t-107 -72t-142 -25zM351 213q43 0 70.5 32.5t27.5 106.5q0 75 -24.5 107.5
t-73.5 32.5q-50 0 -74.5 -32.5t-24.5 -107.5q0 -74 27.5 -106.5t71.5 -32.5zM474 716l-125 69l-124 -69l-41 31l132 106h67l131 -106zM518 932q-3 -13 -12 -26.5t-22 -24t-30 -17t-38 -6.5q-24 0 -40.5 4t-30 8.5t-27.5 8.5t-34 4q-11 0 -22 -6t-18 -24l-63 29q4 13 12.5 26
t21.5 23.5t30.5 17t38.5 6.5q24 0 41 -4t31 -9t28 -9t32 -4q26 0 38 32z" />
    <glyph glyph-name="uni1ED8" unicode="&#x1ed8;" 
d="M351 -13q-80 0 -143 25t-107.5 72t-68 114.5t-23.5 153.5q0 83 23.5 150.5t68 115t107.5 73t143 25.5q79 0 142 -25.5t107 -73t67.5 -115t23.5 -150.5q0 -86 -23.5 -153.5t-67.5 -114.5t-107 -72t-142 -25zM351 213q43 0 70.5 32.5t27.5 106.5q0 75 -24.5 107.5
t-73.5 32.5q-50 0 -74.5 -32.5t-24.5 -107.5q0 -74 27.5 -106.5t71.5 -32.5zM499 747l-149 93l-148 -93l-50 42l158 142h80l158 -142zM352 -239q-38 0 -61 22.5t-23 60.5q0 35 24 58.5t60 23.5q33 0 56.5 -23.5t23.5 -58.5q0 -36 -23.5 -59.5t-56.5 -23.5z" />
    <glyph glyph-name="uni1ED9" unicode="&#x1ed9;" 
d="M351 -13q-80 0 -143 25t-107.5 72t-68 114.5t-23.5 153.5q0 83 23.5 150.5t68 115t107.5 73t143 25.5q79 0 142 -25.5t107 -73t67.5 -115t23.5 -150.5q0 -86 -23.5 -153.5t-67.5 -114.5t-107 -72t-142 -25zM351 213q43 0 70.5 32.5t27.5 106.5q0 75 -24.5 107.5
t-73.5 32.5q-50 0 -74.5 -32.5t-24.5 -107.5q0 -74 27.5 -106.5t71.5 -32.5zM499 747l-149 93l-148 -93l-50 42l158 142h80l158 -142zM352 -239q-38 0 -61 22.5t-23 60.5q0 35 24 58.5t60 23.5q33 0 56.5 -23.5t23.5 -58.5q0 -36 -23.5 -59.5t-56.5 -23.5z" />
    <glyph glyph-name="uni1EDA" unicode="&#x1eda;" horiz-adv-x="841" 
d="M841 615q0 -51 -25 -81t-76 -30q-40 0 -80 17q31 -76 31 -169q0 -86 -23.5 -153.5t-67.5 -114.5t-107 -72t-142 -25q-80 0 -143 25t-107.5 72t-68 114.5t-23.5 153.5q0 83 23.5 150.5t68 115t107.5 73t143 25.5q72 0 129 -21.5t102 -59.5q14 -12 30 -18t30 -6
q16 0 26.5 8t10.5 25v92h162v-121zM351 213q43 0 70.5 32.5t27.5 106.5q0 75 -24.5 107.5t-73.5 32.5q-50 0 -74.5 -32.5t-24.5 -107.5q0 -74 27.5 -106.5t71.5 -32.5zM290 747l-47 59l209 125l66 -91z" />
    <glyph glyph-name="uni1EDB" unicode="&#x1edb;" horiz-adv-x="841" 
d="M841 615q0 -51 -25 -81t-76 -30q-40 0 -80 17q31 -76 31 -169q0 -86 -23.5 -153.5t-67.5 -114.5t-107 -72t-142 -25q-80 0 -143 25t-107.5 72t-68 114.5t-23.5 153.5q0 83 23.5 150.5t68 115t107.5 73t143 25.5q72 0 129 -21.5t102 -59.5q14 -12 30 -18t30 -6
q16 0 26.5 8t10.5 25v92h162v-121zM351 213q43 0 70.5 32.5t27.5 106.5q0 75 -24.5 107.5t-73.5 32.5q-50 0 -74.5 -32.5t-24.5 -107.5q0 -74 27.5 -106.5t71.5 -32.5zM290 747l-47 59l209 125l66 -91z" />
    <glyph glyph-name="uni1EDC" unicode="&#x1edc;" horiz-adv-x="841" 
d="M841 615q0 -51 -25 -81t-76 -30q-40 0 -80 17q31 -76 31 -169q0 -86 -23.5 -153.5t-67.5 -114.5t-107 -72t-142 -25q-80 0 -143 25t-107.5 72t-68 114.5t-23.5 153.5q0 83 23.5 150.5t68 115t107.5 73t143 25.5q72 0 129 -21.5t102 -59.5q14 -12 30 -18t30 -6
q16 0 26.5 8t10.5 25v92h162v-121zM351 213q43 0 70.5 32.5t27.5 106.5q0 75 -24.5 107.5t-73.5 32.5q-50 0 -74.5 -32.5t-24.5 -107.5q0 -74 27.5 -106.5t71.5 -32.5zM183 840l66 91l209 -125l-47 -59z" />
    <glyph glyph-name="uni1EDD" unicode="&#x1edd;" horiz-adv-x="841" 
d="M841 615q0 -51 -25 -81t-76 -30q-40 0 -80 17q31 -76 31 -169q0 -86 -23.5 -153.5t-67.5 -114.5t-107 -72t-142 -25q-80 0 -143 25t-107.5 72t-68 114.5t-23.5 153.5q0 83 23.5 150.5t68 115t107.5 73t143 25.5q72 0 129 -21.5t102 -59.5q14 -12 30 -18t30 -6
q16 0 26.5 8t10.5 25v92h162v-121zM351 213q43 0 70.5 32.5t27.5 106.5q0 75 -24.5 107.5t-73.5 32.5q-50 0 -74.5 -32.5t-24.5 -107.5q0 -74 27.5 -106.5t71.5 -32.5zM183 840l66 91l209 -125l-47 -59z" />
    <glyph glyph-name="uni1EDE" unicode="&#x1ede;" horiz-adv-x="841" 
d="M841 615q0 -51 -25 -81t-76 -30q-40 0 -80 17q31 -76 31 -169q0 -86 -23.5 -153.5t-67.5 -114.5t-107 -72t-142 -25q-80 0 -143 25t-107.5 72t-68 114.5t-23.5 153.5q0 83 23.5 150.5t68 115t107.5 73t143 25.5q72 0 129 -21.5t102 -59.5q14 -12 30 -18t30 -6
q16 0 26.5 8t10.5 25v92h162v-121zM351 213q43 0 70.5 32.5t27.5 106.5q0 75 -24.5 107.5t-73.5 32.5q-50 0 -74.5 -32.5t-24.5 -107.5q0 -74 27.5 -106.5t71.5 -32.5zM329 720q0 38 15.5 53.5t46.5 15.5q24 0 24 21q0 19 -20 19h-98v132h147q100 0 100 -105
q0 -106 -101 -106q-13 0 -19.5 -5t-6.5 -25h-88z" />
    <glyph glyph-name="uni1EDF" unicode="&#x1edf;" horiz-adv-x="841" 
d="M841 615q0 -51 -25 -81t-76 -30q-40 0 -80 17q31 -76 31 -169q0 -86 -23.5 -153.5t-67.5 -114.5t-107 -72t-142 -25q-80 0 -143 25t-107.5 72t-68 114.5t-23.5 153.5q0 83 23.5 150.5t68 115t107.5 73t143 25.5q72 0 129 -21.5t102 -59.5q14 -12 30 -18t30 -6
q16 0 26.5 8t10.5 25v92h162v-121zM351 213q43 0 70.5 32.5t27.5 106.5q0 75 -24.5 107.5t-73.5 32.5q-50 0 -74.5 -32.5t-24.5 -107.5q0 -74 27.5 -106.5t71.5 -32.5zM329 720q0 38 15.5 53.5t46.5 15.5q24 0 24 21q0 19 -20 19h-98v132h147q100 0 100 -105
q0 -106 -101 -106q-13 0 -19.5 -5t-6.5 -25h-88z" />
    <glyph glyph-name="uni1EE0" unicode="&#x1ee0;" horiz-adv-x="841" 
d="M841 615q0 -51 -25 -81t-76 -30q-40 0 -80 17q31 -76 31 -169q0 -86 -23.5 -153.5t-67.5 -114.5t-107 -72t-142 -25q-80 0 -143 25t-107.5 72t-68 114.5t-23.5 153.5q0 83 23.5 150.5t68 115t107.5 73t143 25.5q72 0 129 -21.5t102 -59.5q14 -12 30 -18t30 -6
q16 0 26.5 8t10.5 25v92h162v-121zM351 213q43 0 70.5 32.5t27.5 106.5q0 75 -24.5 107.5t-73.5 32.5q-50 0 -74.5 -32.5t-24.5 -107.5q0 -74 27.5 -106.5t71.5 -32.5zM554 870q-4 -18 -14.5 -35.5t-26.5 -32t-36.5 -23.5t-45.5 -9q-29 0 -48 5.5t-35.5 12t-33.5 12t-41 5.5
q-14 0 -27 -8t-21 -32l-76 38q4 18 15 35.5t26.5 31.5t36.5 22.5t46 8.5q28 0 48.5 -5.5t38 -12t34 -12t37.5 -5.5q32 0 45 43z" />
    <glyph glyph-name="uni1EE1" unicode="&#x1ee1;" horiz-adv-x="841" 
d="M841 615q0 -51 -25 -81t-76 -30q-40 0 -80 17q31 -76 31 -169q0 -86 -23.5 -153.5t-67.5 -114.5t-107 -72t-142 -25q-80 0 -143 25t-107.5 72t-68 114.5t-23.5 153.5q0 83 23.5 150.5t68 115t107.5 73t143 25.5q72 0 129 -21.5t102 -59.5q14 -12 30 -18t30 -6
q16 0 26.5 8t10.5 25v92h162v-121zM351 213q43 0 70.5 32.5t27.5 106.5q0 75 -24.5 107.5t-73.5 32.5q-50 0 -74.5 -32.5t-24.5 -107.5q0 -74 27.5 -106.5t71.5 -32.5zM554 870q-4 -18 -14.5 -35.5t-26.5 -32t-36.5 -23.5t-45.5 -9q-29 0 -48 5.5t-35.5 12t-33.5 12t-41 5.5
q-14 0 -27 -8t-21 -32l-76 38q4 18 15 35.5t26.5 31.5t36.5 22.5t46 8.5q28 0 48.5 -5.5t38 -12t34 -12t37.5 -5.5q32 0 45 43z" />
    <glyph glyph-name="uni1EE2" unicode="&#x1ee2;" horiz-adv-x="841" 
d="M841 615q0 -51 -25 -81t-76 -30q-40 0 -80 17q31 -76 31 -169q0 -86 -23.5 -153.5t-67.5 -114.5t-107 -72t-142 -25q-80 0 -143 25t-107.5 72t-68 114.5t-23.5 153.5q0 83 23.5 150.5t68 115t107.5 73t143 25.5q72 0 129 -21.5t102 -59.5q14 -12 30 -18t30 -6
q16 0 26.5 8t10.5 25v92h162v-121zM351 213q43 0 70.5 32.5t27.5 106.5q0 75 -24.5 107.5t-73.5 32.5q-50 0 -74.5 -32.5t-24.5 -107.5q0 -74 27.5 -106.5t71.5 -32.5zM352 -239q-38 0 -61 22.5t-23 60.5q0 35 24 58.5t60 23.5q33 0 56.5 -23.5t23.5 -58.5
q0 -36 -23.5 -59.5t-56.5 -23.5z" />
    <glyph glyph-name="uni1EE3" unicode="&#x1ee3;" horiz-adv-x="841" 
d="M841 615q0 -51 -25 -81t-76 -30q-40 0 -80 17q31 -76 31 -169q0 -86 -23.5 -153.5t-67.5 -114.5t-107 -72t-142 -25q-80 0 -143 25t-107.5 72t-68 114.5t-23.5 153.5q0 83 23.5 150.5t68 115t107.5 73t143 25.5q72 0 129 -21.5t102 -59.5q14 -12 30 -18t30 -6
q16 0 26.5 8t10.5 25v92h162v-121zM351 213q43 0 70.5 32.5t27.5 106.5q0 75 -24.5 107.5t-73.5 32.5q-50 0 -74.5 -32.5t-24.5 -107.5q0 -74 27.5 -106.5t71.5 -32.5zM352 -239q-38 0 -61 22.5t-23 60.5q0 35 24 58.5t60 23.5q33 0 56.5 -23.5t23.5 -58.5
q0 -36 -23.5 -59.5t-56.5 -23.5z" />
    <glyph glyph-name="uni1EE4" unicode="&#x1ee4;" horiz-adv-x="667" 
d="M386 704h244v-415q0 -148 -74.5 -225t-218.5 -77q-146 0 -224 76.5t-78 224.5v416h244v-440q0 -52 55 -52q28 0 40 13t12 39v440zM335 -239q-38 0 -61 22.5t-23 60.5q0 35 24 58.5t60 23.5q33 0 56.5 -23.5t23.5 -58.5q0 -36 -23.5 -59.5t-56.5 -23.5z" />
    <glyph glyph-name="uni1EE5" unicode="&#x1ee5;" horiz-adv-x="667" 
d="M386 704h244v-415q0 -148 -74.5 -225t-218.5 -77q-146 0 -224 76.5t-78 224.5v416h244v-440q0 -52 55 -52q28 0 40 13t12 39v440zM335 -239q-38 0 -61 22.5t-23 60.5q0 35 24 58.5t60 23.5q33 0 56.5 -23.5t23.5 -58.5q0 -36 -23.5 -59.5t-56.5 -23.5z" />
    <glyph glyph-name="uni1EE6" unicode="&#x1ee6;" horiz-adv-x="667" 
d="M386 704h244v-415q0 -148 -74.5 -225t-218.5 -77q-146 0 -224 76.5t-78 224.5v416h244v-440q0 -52 55 -52q28 0 40 13t12 39v440zM262 720q0 38 15.5 53.5t46.5 15.5q24 0 24 21q0 19 -20 19h-98v132h147q100 0 100 -105q0 -106 -101 -106q-13 0 -19.5 -5t-6.5 -25h-88z
" />
    <glyph glyph-name="uni1EE7" unicode="&#x1ee7;" horiz-adv-x="667" 
d="M386 704h244v-415q0 -148 -74.5 -225t-218.5 -77q-146 0 -224 76.5t-78 224.5v416h244v-440q0 -52 55 -52q28 0 40 13t12 39v440zM262 720q0 38 15.5 53.5t46.5 15.5q24 0 24 21q0 19 -20 19h-98v132h147q100 0 100 -105q0 -106 -101 -106q-13 0 -19.5 -5t-6.5 -25h-88z
" />
    <glyph glyph-name="uni1EE8" unicode="&#x1ee8;" horiz-adv-x="861" 
d="M861 615q0 -51 -25 -81t-76 -30q-34 0 -67.5 12.5t-62.5 32.5v-260q0 -148 -74.5 -225t-218.5 -77q-146 0 -224 76.5t-78 224.5v416h244v-440q0 -52 55 -52q28 0 40 13t12 39v440h244v-84q17 -7 34 -7q15 0 25 7t10 24v92h162v-121zM280 747l-47 59l209 125l66 -91z" />
    <glyph glyph-name="uni1EE9" unicode="&#x1ee9;" horiz-adv-x="861" 
d="M861 615q0 -51 -25 -81t-76 -30q-34 0 -67.5 12.5t-62.5 32.5v-260q0 -148 -74.5 -225t-218.5 -77q-146 0 -224 76.5t-78 224.5v416h244v-440q0 -52 55 -52q28 0 40 13t12 39v440h244v-84q17 -7 34 -7q15 0 25 7t10 24v92h162v-121zM280 747l-47 59l209 125l66 -91z" />
    <glyph glyph-name="uni1EEA" unicode="&#x1eea;" horiz-adv-x="861" 
d="M861 615q0 -51 -25 -81t-76 -30q-34 0 -67.5 12.5t-62.5 32.5v-260q0 -148 -74.5 -225t-218.5 -77q-146 0 -224 76.5t-78 224.5v416h244v-440q0 -52 55 -52q28 0 40 13t12 39v440h244v-84q17 -7 34 -7q15 0 25 7t10 24v92h162v-121zM173 840l66 91l209 -125l-47 -59z" />
    <glyph glyph-name="uni1EEB" unicode="&#x1eeb;" horiz-adv-x="861" 
d="M861 615q0 -51 -25 -81t-76 -30q-34 0 -67.5 12.5t-62.5 32.5v-260q0 -148 -74.5 -225t-218.5 -77q-146 0 -224 76.5t-78 224.5v416h244v-440q0 -52 55 -52q28 0 40 13t12 39v440h244v-84q17 -7 34 -7q15 0 25 7t10 24v92h162v-121zM173 840l66 91l209 -125l-47 -59z" />
    <glyph glyph-name="uni1EEC" unicode="&#x1eec;" horiz-adv-x="861" 
d="M861 615q0 -51 -25 -81t-76 -30q-34 0 -67.5 12.5t-62.5 32.5v-260q0 -148 -74.5 -225t-218.5 -77q-146 0 -224 76.5t-78 224.5v416h244v-440q0 -52 55 -52q28 0 40 13t12 39v440h244v-84q17 -7 34 -7q15 0 25 7t10 24v92h162v-121zM289 720q0 38 15.5 53.5t46.5 15.5
q24 0 24 21q0 19 -20 19h-98v132h147q100 0 100 -105q0 -106 -101 -106q-13 0 -19.5 -5t-6.5 -25h-88z" />
    <glyph glyph-name="uni1EED" unicode="&#x1eed;" horiz-adv-x="861" 
d="M861 615q0 -51 -25 -81t-76 -30q-34 0 -67.5 12.5t-62.5 32.5v-260q0 -148 -74.5 -225t-218.5 -77q-146 0 -224 76.5t-78 224.5v416h244v-440q0 -52 55 -52q28 0 40 13t12 39v440h244v-84q17 -7 34 -7q15 0 25 7t10 24v92h162v-121zM289 720q0 38 15.5 53.5t46.5 15.5
q24 0 24 21q0 19 -20 19h-98v132h147q100 0 100 -105q0 -106 -101 -106q-13 0 -19.5 -5t-6.5 -25h-88z" />
    <glyph glyph-name="uni1EEE" unicode="&#x1eee;" horiz-adv-x="861" 
d="M861 615q0 -51 -25 -81t-76 -30q-34 0 -67.5 12.5t-62.5 32.5v-260q0 -148 -74.5 -225t-218.5 -77q-146 0 -224 76.5t-78 224.5v416h244v-440q0 -52 55 -52q28 0 40 13t12 39v440h244v-84q17 -7 34 -7q15 0 25 7t10 24v92h162v-121zM533 870q-4 -18 -14.5 -35.5
t-26.5 -32t-36.5 -23.5t-45.5 -9q-29 0 -48 5.5t-35.5 12t-33.5 12t-41 5.5q-14 0 -27 -8t-21 -32l-76 38q4 18 15 35.5t26.5 31.5t36.5 22.5t46 8.5q28 0 48.5 -5.5t38 -12t34 -12t37.5 -5.5q32 0 45 43z" />
    <glyph glyph-name="uni1EEF" unicode="&#x1eef;" horiz-adv-x="861" 
d="M861 615q0 -51 -25 -81t-76 -30q-34 0 -67.5 12.5t-62.5 32.5v-260q0 -148 -74.5 -225t-218.5 -77q-146 0 -224 76.5t-78 224.5v416h244v-440q0 -52 55 -52q28 0 40 13t12 39v440h244v-84q17 -7 34 -7q15 0 25 7t10 24v92h162v-121zM533 870q-4 -18 -14.5 -35.5
t-26.5 -32t-36.5 -23.5t-45.5 -9q-29 0 -48 5.5t-35.5 12t-33.5 12t-41 5.5q-14 0 -27 -8t-21 -32l-76 38q4 18 15 35.5t26.5 31.5t36.5 22.5t46 8.5q28 0 48.5 -5.5t38 -12t34 -12t37.5 -5.5q32 0 45 43z" />
    <glyph glyph-name="uni1EF0" unicode="&#x1ef0;" horiz-adv-x="861" 
d="M861 615q0 -51 -25 -81t-76 -30q-34 0 -67.5 12.5t-62.5 32.5v-260q0 -148 -74.5 -225t-218.5 -77q-146 0 -224 76.5t-78 224.5v416h244v-440q0 -52 55 -52q28 0 40 13t12 39v440h244v-84q17 -7 34 -7q15 0 25 7t10 24v92h162v-121zM337 -239q-38 0 -61 22.5t-23 60.5
q0 35 24 58.5t60 23.5q33 0 56.5 -23.5t23.5 -58.5q0 -36 -23.5 -59.5t-56.5 -23.5z" />
    <glyph glyph-name="uni1EF1" unicode="&#x1ef1;" horiz-adv-x="861" 
d="M861 615q0 -51 -25 -81t-76 -30q-34 0 -67.5 12.5t-62.5 32.5v-260q0 -148 -74.5 -225t-218.5 -77q-146 0 -224 76.5t-78 224.5v416h244v-440q0 -52 55 -52q28 0 40 13t12 39v440h244v-84q17 -7 34 -7q15 0 25 7t10 24v92h162v-121zM337 -239q-38 0 -61 22.5t-23 60.5
q0 35 24 58.5t60 23.5q33 0 56.5 -23.5t23.5 -58.5q0 -36 -23.5 -59.5t-56.5 -23.5z" />
    <glyph glyph-name="Ygrave" unicode="&#x1ef2;" horiz-adv-x="649" 
d="M36 0v225h264q38 0 52 14.5t14 39.5h-102q-110 0 -169.5 57t-59.5 171v197h245v-192q0 -45 16 -60.5t49 -15.5h25v268h243v-432q0 -58 -16.5 -107.5t-47.5 -86t-75 -57.5t-99 -21h-339zM157 840l66 91l209 -125l-47 -59z" />
    <glyph glyph-name="ygrave" unicode="&#x1ef3;" horiz-adv-x="649" 
d="M36 0v225h264q38 0 52 14.5t14 39.5h-102q-110 0 -169.5 57t-59.5 171v197h245v-192q0 -45 16 -60.5t49 -15.5h25v268h243v-432q0 -58 -16.5 -107.5t-47.5 -86t-75 -57.5t-99 -21h-339zM157 840l66 91l209 -125l-47 -59z" />
    <glyph glyph-name="endash" unicode="&#x2013;" horiz-adv-x="497" 
d="M16 302v144h464v-144h-464z" />
    <glyph glyph-name="emdash" unicode="&#x2014;" horiz-adv-x="798" 
d="M16 302v144h765v-144h-765z" />
    <glyph glyph-name="quoteleft" unicode="&#x2018;" horiz-adv-x="321" 
d="M204 691q-23 -5 -38.5 -16t-26.5 -28q11 3 21.5 5t19.5 2q20 0 39.5 -7.5t35 -22.5t25 -37t9.5 -50q0 -57 -33 -92.5t-102 -35.5q-25 0 -47 7.5t-38.5 24t-26 43t-9.5 63.5q0 38 14 72.5t37.5 61t54.5 43t65 19.5v-52z" />
    <glyph glyph-name="quoteright" unicode="&#x2019;" horiz-adv-x="320" 
d="M118 434q42 9 65 44q-12 -4 -22.5 -5t-19.5 -1q-20 0 -38.5 7.5t-33.5 22t-25 36t-11 50.5q0 57 32.5 92.5t101.5 35.5q25 0 47 -8t38.5 -24.5t26 -42.5t9.5 -63q0 -38 -14 -72t-37.5 -60.5t-54 -43.5t-64.5 -20v52z" />
    <glyph glyph-name="quotesinglbase" unicode="&#x201a;" horiz-adv-x="320" 
d="M118 -27q41 9 65 44q-24 -6 -42 -6q-20 0 -39 7.5t-34.5 22t-25 36t-9.5 50.5q0 57 32.5 92.5t101.5 35.5q25 0 47 -8t38.5 -24.5t26 -42.5t9.5 -63q0 -38 -14 -72t-37.5 -60.5t-54 -43.5t-64.5 -20v52z" />
    <glyph glyph-name="quotedblleft" unicode="&#x201c;" horiz-adv-x="642" 
d="M204 691q-23 -5 -38.5 -16t-26.5 -28q11 3 21.5 5t19.5 2q20 0 39.5 -7.5t35 -22.5t25 -37t9.5 -50q0 -57 -33 -92.5t-102 -35.5q-25 0 -47 7.5t-38.5 24t-26 43t-9.5 63.5q0 38 14 72.5t37.5 61t54.5 43t65 19.5v-52zM525 691q-23 -5 -38.5 -16t-26.5 -28q11 3 21.5 5
t19.5 2q20 0 39.5 -7.5t35 -22.5t25 -37t9.5 -50q0 -57 -33 -92.5t-102 -35.5q-25 0 -47 7.5t-38.5 24t-26 43t-9.5 63.5q0 38 14 72.5t37.5 61t54.5 43t65 19.5v-52z" />
    <glyph glyph-name="quotedblright" unicode="&#x201d;" horiz-adv-x="640" 
d="M118 434q42 9 65 44q-12 -4 -22.5 -5t-19.5 -1q-20 0 -38.5 7.5t-33.5 22t-25 36t-11 50.5q0 57 32.5 92.5t101.5 35.5q25 0 47 -8t38.5 -24.5t26 -42.5t9.5 -63q0 -38 -14 -72t-37.5 -60.5t-54 -43.5t-64.5 -20v52zM438 434q42 9 65 44q-12 -4 -22.5 -5t-19.5 -1
q-20 0 -38.5 7.5t-33.5 22t-25 36t-11 50.5q0 57 32.5 92.5t101.5 35.5q25 0 47 -8t38.5 -24.5t26 -42.5t9.5 -63q0 -38 -14 -72t-37.5 -60.5t-54 -43.5t-64.5 -20v52z" />
    <glyph glyph-name="quotedblbase" unicode="&#x201e;" horiz-adv-x="640" 
d="M118 -27q41 9 65 44q-24 -6 -42 -6q-20 0 -39 7.5t-34.5 22t-25 36t-9.5 50.5q0 57 32.5 92.5t101.5 35.5q25 0 47 -8t38.5 -24.5t26 -42.5t9.5 -63q0 -38 -14 -72t-37.5 -60.5t-54 -43.5t-64.5 -20v52zM438 -27q41 9 65 44q-24 -6 -42 -6q-20 0 -39 7.5t-34.5 22t-25 36
t-9.5 50.5q0 57 32.5 92.5t101.5 35.5q25 0 47 -8t38.5 -24.5t26 -42.5t9.5 -63q0 -38 -14 -72t-37.5 -60.5t-54 -43.5t-64.5 -20v52z" />
    <glyph glyph-name="dagger" unicode="&#x2020;" horiz-adv-x="555" 
d="M217 0v496h-193v101h193v107h126v-107h187v-101h-187v-496h-126z" />
    <glyph glyph-name="daggerdbl" unicode="&#x2021;" horiz-adv-x="555" 
d="M343 105v-105h-126v105h-193v103h193v288h-193v101h193v107h126v-107h187v-101h-187v-288h187v-103h-187z" />
    <glyph glyph-name="bullet" unicode="&#x2022;" horiz-adv-x="340" 
d="M307 352q0 -29 -11 -53.5t-29.5 -43t-44 -29t-53.5 -10.5q-29 0 -54 10.5t-43 29t-28.5 43t-10.5 53.5t10.5 54.5t28.5 44t43 29.5t54 11q28 0 53.5 -11t44 -29.5t29.5 -44t11 -54.5z" />
    <glyph glyph-name="ellipsis" unicode="&#x2026;" horiz-adv-x="1455" 
d="M148 -5q-28 0 -51.5 9.5t-41 26.5t-27 40.5t-9.5 50.5q0 56 36 92t93 36q25 0 48 -9.5t40 -26.5t27 -40.5t10 -51.5q0 -27 -10 -50.5t-27 -40.5t-40 -26.5t-48 -9.5zM730 -5q-28 0 -51.5 9.5t-41 26.5t-27 40.5t-9.5 50.5q0 56 36 92t93 36q25 0 48 -9.5t40 -26.5
t27 -40.5t10 -51.5q0 -27 -10 -50.5t-27 -40.5t-40 -26.5t-48 -9.5zM1312 -5q-28 0 -51.5 9.5t-41 26.5t-27 40.5t-9.5 50.5q0 56 36 92t93 36q25 0 48 -9.5t40 -26.5t27 -40.5t10 -51.5q0 -27 -10 -50.5t-27 -40.5t-40 -26.5t-48 -9.5z" />
    <glyph glyph-name="perthousand" unicode="&#x2030;" horiz-adv-x="1127" 
d="M188 469q37 0 37 70q0 34 -8 52t-29 18q-19 0 -27.5 -19t-8.5 -51q0 -70 36 -70zM188 356q-75 0 -116.5 49t-41.5 134t41 133.5t117 48.5q78 0 118 -48.5t40 -133.5t-40 -134t-118 -49zM9 -36l639 776h138l-641 -776h-136zM605 96q37 0 37 70q0 34 -8 52t-29 18
q-19 0 -27.5 -19t-8.5 -51q0 -70 36 -70zM605 -17q-75 0 -116.5 49t-41.5 134t41 133.5t117 48.5q78 0 118 -48.5t40 -133.5t-40 -134t-118 -49zM960 96q37 0 37 70q0 34 -8 52t-29 18q-19 0 -27.5 -19t-8.5 -51q0 -70 36 -70zM960 -17q-75 0 -116.5 49t-41.5 134t41 133.5
t117 48.5q78 0 118 -48.5t40 -133.5t-40 -134t-118 -49z" />
    <glyph glyph-name="guilsinglleft" unicode="&#x2039;" horiz-adv-x="296" 
d="M201 98l-187 234l186 231l83 -70l-136 -161l136 -161z" />
    <glyph glyph-name="guilsinglright" unicode="&#x203a;" horiz-adv-x="295" 
d="M14 171l134 161l-134 161l82 70l186 -231l-188 -234z" />
    <glyph glyph-name="fraction" unicode="&#x2044;" horiz-adv-x="262" 
d="M-257 -36l639 776h138l-641 -776h-136z" />
    <glyph glyph-name="zerosuperior" unicode="&#x2070;" horiz-adv-x="355" 
d="M177 469q37 0 37 70q0 34 -8 52t-29 18q-19 0 -27.5 -19t-8.5 -51q0 -70 36 -70zM177 356q-75 0 -116.5 49t-41.5 134t41 133.5t117 48.5q78 0 118 -48.5t40 -133.5t-40 -134t-118 -49z" />
    <glyph glyph-name="foursuperior" unicode="&#x2074;" horiz-adv-x="344" 
d="M162 582l-44 -65h44v65zM159 363v41h-135v97l145 214h112v-198h36v-113h-36v-41h-122z" />
    <glyph glyph-name="fivesuperior" unicode="&#x2075;" horiz-adv-x="343" 
d="M35 363v112h133q23 0 23 20t-23 20h-134v200h279v-113h-144v-39h50q48 0 76 -22t28 -75q0 -51 -28.5 -77t-75.5 -26h-184z" />
    <glyph glyph-name="sixsuperior" unicode="&#x2076;" horiz-adv-x="359" 
d="M162 498q-8 16 -8 39q0 17 5.5 33t19.5 19h49q62 0 87 -28t25 -78q0 -60 -39.5 -93.5t-120.5 -33.5q-40 0 -70 14t-50.5 38.5t-30.5 58.5t-10 74q0 43 13.5 75.5t36.5 54.5t55 33t69 11h110v-113h-123q-17 0 -28.5 -15.5t-11.5 -49.5q0 -40 14.5 -55t40.5 -15q31 0 31 17
q0 14 -18 14h-46z" />
    <glyph glyph-name="sevensuperior" unicode="&#x2077;" horiz-adv-x="319" 
d="M66 363q4 75 23 133.5t56 105.5h-123v113h272v-102q-22 -16 -40.5 -42.5t-31.5 -59.5t-20.5 -71t-7.5 -77h-128z" />
    <glyph glyph-name="eightsuperior" unicode="&#x2078;" horiz-adv-x="351" 
d="M282 551q17 -5 31 -24t14 -55q0 -24 -7 -45t-24.5 -36.5t-46.5 -25t-74 -9.5q-44 0 -73.5 9.5t-47 25t-24.5 36.5t-7 45q0 36 14 55t31 24q-16 8 -26.5 25.5t-10.5 43.5q0 17 6.5 35t23 32.5t44.5 24t70 9.5q43 0 70.5 -9.5t44 -24t23 -32.5t6.5 -35q0 -26 -11 -43.5
t-26 -25.5zM163 511q-22 0 -22 -20q0 -22 34 -22q19 0 26.5 5.5t7.5 16.5q0 20 -22 20h-24zM188 572q20 0 20 16q0 7 -5 13.5t-28 6.5q-22 0 -27.5 -6.5t-5.5 -13.5q0 -16 20 -16h26z" />
    <glyph glyph-name="ninesuperior" unicode="&#x2079;" horiz-adv-x="359" 
d="M56 363v112h124q16 0 27.5 15.5t11.5 49.5q0 41 -14.5 55.5t-40.5 14.5q-31 0 -31 -16q0 -15 18 -15h45q4 -7 6.5 -16t2.5 -23q0 -17 -5 -33t-20 -19h-49q-62 0 -87 28t-25 78q0 60 39.5 93.5t120.5 33.5q40 0 70 -14t50.5 -39t30.5 -58.5t10 -73.5q0 -43 -13.5 -75.5
t-37 -54t-55 -32.5t-68.5 -11h-110z" />
    <glyph glyph-name="zeroinferior" unicode="&#x2080;" horiz-adv-x="355" 
d="M177 96q37 0 37 70q0 34 -8 52t-29 18q-19 0 -27.5 -19t-8.5 -51q0 -70 36 -70zM177 -17q-75 0 -116.5 49t-41.5 134t41 133.5t117 48.5q78 0 118 -48.5t40 -133.5t-40 -134t-118 -49z" />
    <glyph glyph-name="oneinferior" unicode="&#x2081;" horiz-adv-x="215" 
d="M58 -10v217h-31v109q39 0 42 26h111v-352h-122z" />
    <glyph glyph-name="twoinferior" unicode="&#x2082;" horiz-adv-x="341" 
d="M32 -10v113q0 87 62 87h68q23 0 23 21q0 18 -20 18h-119v113h169q105 0 105 -112q0 -88 -105 -88h-26q-27 0 -27 -20v-20h157v-112h-287z" />
    <glyph glyph-name="threeinferior" unicode="&#x2083;" horiz-adv-x="312" 
d="M30 -10v113h124q22 0 22 18t-22 18h-108v61h114q15 0 15 15t-15 15h-130v112h159q51 0 75 -25.5t24 -65.5q0 -23 -8.5 -43t-27.5 -30q23 -11 33 -33t10 -47q0 -56 -31.5 -82t-82.5 -26h-151z" />
    <glyph glyph-name="fourinferior" unicode="&#x2084;" horiz-adv-x="344" 
d="M162 209l-44 -65h44v65zM159 -10v41h-135v97l145 214h112v-198h36v-113h-36v-41h-122z" />
    <glyph glyph-name="fiveinferior" unicode="&#x2085;" horiz-adv-x="343" 
d="M35 -10v112h133q23 0 23 20t-23 20h-134v200h279v-113h-144v-39h50q48 0 76 -22t28 -75q0 -51 -28.5 -77t-75.5 -26h-184z" />
    <glyph glyph-name="sixinferior" unicode="&#x2086;" horiz-adv-x="359" 
d="M162 125q-8 16 -8 39q0 17 5.5 33t19.5 19h49q62 0 87 -28t25 -78q0 -60 -39.5 -93.5t-120.5 -33.5q-40 0 -70 14t-50.5 38.5t-30.5 58.5t-10 74q0 43 13.5 75.5t36.5 54.5t55 33t69 11h110v-113h-123q-17 0 -28.5 -15.5t-11.5 -49.5q0 -40 14.5 -55t40.5 -15q31 0 31 17
q0 14 -18 14h-46z" />
    <glyph glyph-name="seveninferior" unicode="&#x2087;" horiz-adv-x="319" 
d="M66 -10q4 75 23 133.5t56 105.5h-123v113h272v-102q-22 -16 -40.5 -42.5t-31.5 -59.5t-20.5 -71t-7.5 -77h-128z" />
    <glyph glyph-name="eightinferior" unicode="&#x2088;" horiz-adv-x="351" 
d="M282 178q17 -5 31 -24t14 -55q0 -24 -7 -45t-24.5 -36.5t-46.5 -25t-74 -9.5q-44 0 -73.5 9.5t-47 25t-24.5 36.5t-7 45q0 36 14 55t31 24q-16 8 -26.5 25.5t-10.5 43.5q0 17 6.5 35t23 32.5t44.5 24t70 9.5q43 0 70.5 -9.5t44 -24t23 -32.5t6.5 -35q0 -26 -11 -43.5
t-26 -25.5zM163 138q-22 0 -22 -20q0 -22 34 -22q19 0 26.5 5.5t7.5 16.5q0 20 -22 20h-24zM188 199q20 0 20 16q0 7 -5 13.5t-28 6.5q-22 0 -27.5 -6.5t-5.5 -13.5q0 -16 20 -16h26z" />
    <glyph glyph-name="nineinferior" unicode="&#x2089;" horiz-adv-x="359" 
d="M56 -10v112h124q16 0 27.5 15.5t11.5 49.5q0 41 -14.5 55.5t-40.5 14.5q-31 0 -31 -16q0 -15 18 -15h45q4 -7 6.5 -16t2.5 -23q0 -17 -5 -33t-20 -19h-49q-62 0 -87 28t-25 78q0 60 39.5 93.5t120.5 33.5q40 0 70 -14t50.5 -39t30.5 -58.5t10 -73.5q0 -43 -13.5 -75.5
t-37 -54t-55 -32.5t-68.5 -11h-110z" />
    <glyph glyph-name="dong" unicode="&#x20ab;" horiz-adv-x="581" 
d="M334 648v56h163v-56h58v-78h-58v-441h-142l-5 45q-33 -27 -64.5 -38.5t-63.5 -11.5q-95 0 -144 48.5t-49 141.5q0 49 11 89.5t35 69t61 44.5t88 16q38 0 63.5 -7.5t46.5 -29.5v74h-114v78h114zM283 431q-43 0 -66.5 -23t-23.5 -79q0 -52 19.5 -80t51.5 -28q27 0 46.5 8
t23.5 19v168q-23 15 -51 15zM553 1h-521v74h521v-74z" />
    <glyph glyph-name="Euro" unicode="&#x20ac;" horiz-adv-x="628" 
d="M272 0q-112 0 -175 60t-63 171v231q0 61 17.5 106.5t47 75.5t69.5 45t85 15h350l-67 -225h-204q-49 0 -49 -50v-9h235l-17 -56h-218v-27h211l-17 -56h-194v-6q0 -27 13 -38.5t36 -11.5h248v-225h-308z" />
    <glyph glyph-name="trademark" unicode="&#x2122;" horiz-adv-x="610" 
d="M491 392v200q0 18 -13 18q-15 0 -15 -18v-200h-81v200q0 18 -16 18q-14 0 -14 -18v-200h-81v218q0 48 26.5 73t64.5 25t59 -27q19 27 59 27q38 0 66 -25.5t28 -72.5v-218h-83zM87 392v220h-70v92h228v-92h-70v-220h-88z" />
    <glyph glyph-name="onethird" unicode="&#x2153;" horiz-adv-x="832" 
d="M129 363v217h-31v109q39 0 42 26h111v-352h-122zM9 -36l639 776h138l-641 -776h-136zM558 -10v113h124q22 0 22 18t-22 18h-108v61h114q15 0 15 15t-15 15h-130v112h159q51 0 75 -25.5t24 -65.5q0 -23 -8.5 -43t-27.5 -30q23 -11 33 -33t10 -47q0 -56 -31.5 -82
t-82.5 -26h-151z" />
    <glyph glyph-name="twothirds" unicode="&#x2154;" horiz-adv-x="804" 
d="M10 363v113q0 87 62 87h68q23 0 23 21q0 18 -20 18h-119v113h169q105 0 105 -112q0 -88 -105 -88h-26q-27 0 -27 -20v-20h157v-112h-287zM11 -36l639 776h138l-641 -776h-136zM530 -10v113h124q22 0 22 18t-22 18h-108v61h114q15 0 15 15t-15 15h-130v112h159
q51 0 75 -25.5t24 -65.5q0 -23 -8.5 -43t-27.5 -30q23 -11 33 -33t10 -47q0 -56 -31.5 -82t-82.5 -26h-151z" />
    <glyph glyph-name="oneeighth" unicode="&#x215b;" horiz-adv-x="834" 
d="M129 363v217h-31v109q39 0 42 26h111v-352h-122zM9 -36l639 776h138l-641 -776h-136zM780 178q17 -5 31 -24t14 -55q0 -24 -7 -45t-24.5 -36.5t-46.5 -25t-74 -9.5q-44 0 -73.5 9.5t-47 25t-24.5 36.5t-7 45q0 36 14 55t31 24q-16 8 -26.5 25.5t-10.5 43.5q0 17 6.5 35
t23 32.5t44.5 24t70 9.5q43 0 70.5 -9.5t44 -24t23 -32.5t6.5 -35q0 -26 -11 -43.5t-26 -25.5zM661 138q-22 0 -22 -20q0 -22 34 -22q19 0 26.5 5.5t7.5 16.5q0 20 -22 20h-24zM686 199q20 0 20 16q0 7 -5 13.5t-28 6.5q-22 0 -27.5 -6.5t-5.5 -13.5q0 -16 20 -16h26z" />
    <glyph glyph-name="threeeighths" unicode="&#x215c;" horiz-adv-x="804" 
d="M44 363v113h124q22 0 22 18t-22 18h-108v61h114q15 0 15 15t-15 15h-130v112h159q51 0 75 -25.5t24 -65.5q0 -23 -8.5 -43t-27.5 -30q23 -11 33 -33t10 -47q0 -56 -31.5 -82t-82.5 -26h-151zM9 -36l639 776h138l-641 -776h-136zM750 178q17 -5 31 -24t14 -55
q0 -24 -7 -45t-24.5 -36.5t-46.5 -25t-74 -9.5q-44 0 -73.5 9.5t-47 25t-24.5 36.5t-7 45q0 36 14 55t31 24q-16 8 -26.5 25.5t-10.5 43.5q0 17 6.5 35t23 32.5t44.5 24t70 9.5q43 0 70.5 -9.5t44 -24t23 -32.5t6.5 -35q0 -26 -11 -43.5t-26 -25.5zM631 138q-22 0 -22 -20
q0 -22 34 -22q19 0 26.5 5.5t7.5 16.5q0 20 -22 20h-24zM656 199q20 0 20 16q0 7 -5 13.5t-28 6.5q-22 0 -27.5 -6.5t-5.5 -13.5q0 -16 20 -16h26z" />
    <glyph glyph-name="fiveeighths" unicode="&#x215d;" horiz-adv-x="804" 
d="M29 363v112h133q23 0 23 20t-23 20h-134v200h279v-113h-144v-39h50q48 0 76 -22t28 -75q0 -51 -28.5 -77t-75.5 -26h-184zM9 -36l639 776h138l-641 -776h-136zM750 178q17 -5 31 -24t14 -55q0 -24 -7 -45t-24.5 -36.5t-46.5 -25t-74 -9.5q-44 0 -73.5 9.5t-47 25
t-24.5 36.5t-7 45q0 36 14 55t31 24q-16 8 -26.5 25.5t-10.5 43.5q0 17 6.5 35t23 32.5t44.5 24t70 9.5q43 0 70.5 -9.5t44 -24t23 -32.5t6.5 -35q0 -26 -11 -43.5t-26 -25.5zM631 138q-22 0 -22 -20q0 -22 34 -22q19 0 26.5 5.5t7.5 16.5q0 20 -22 20h-24zM656 199
q20 0 20 16q0 7 -5 13.5t-28 6.5q-22 0 -27.5 -6.5t-5.5 -13.5q0 -16 20 -16h26z" />
    <glyph glyph-name="seveneighths" unicode="&#x215e;" horiz-adv-x="844" 
d="M93 363q4 75 23 133.5t56 105.5h-123v113h272v-102q-22 -16 -40.5 -42.5t-31.5 -59.5t-20.5 -71t-7.5 -77h-128zM9 -36l639 776h138l-641 -776h-136zM790 178q17 -5 31 -24t14 -55q0 -24 -7 -45t-24.5 -36.5t-46.5 -25t-74 -9.5q-44 0 -73.5 9.5t-47 25t-24.5 36.5t-7 45
q0 36 14 55t31 24q-16 8 -26.5 25.5t-10.5 43.5q0 17 6.5 35t23 32.5t44.5 24t70 9.5q43 0 70.5 -9.5t44 -24t23 -32.5t6.5 -35q0 -26 -11 -43.5t-26 -25.5zM671 138q-22 0 -22 -20q0 -22 34 -22q19 0 26.5 5.5t7.5 16.5q0 20 -22 20h-24zM696 199q20 0 20 16q0 7 -5 13.5
t-28 6.5q-22 0 -27.5 -6.5t-5.5 -13.5q0 -16 20 -16h26z" />
    <glyph glyph-name="partialdiff" unicode="&#x2202;" horiz-adv-x="625" 
d="M63 658q15 9 36.5 19t48 18.5t56.5 14t61 5.5q69 0 128.5 -18t103.5 -62t69.5 -118.5t25.5 -187.5q0 -68 -14 -130t-47.5 -109.5t-89.5 -75.5t-140 -28q-56 0 -105 18t-85.5 51t-57.5 79.5t-21 102.5q0 50 18 93t51.5 74.5t81 49.5t106.5 18q16 0 34 -3t36 -8.5t34 -14
t27 -19.5v9q0 34 -13.5 60t-35 44t-48 27.5t-51.5 9.5q-38 0 -75 -8t-80 -33zM420 288q-18 20 -49 33.5t-60 13.5q-19 0 -38 -5.5t-34 -18t-24.5 -32.5t-9.5 -50q0 -22 4.5 -40.5t16 -32.5t30 -22t45.5 -8q60 0 88.5 37.5t30.5 124.5z" />
    <glyph glyph-name="product" unicode="&#x220f;" horiz-adv-x="726" 
d="M519 -239v803h-310v-803h-161v943h632v-943h-161z" />
    <glyph glyph-name="summation" unicode="&#x2211;" horiz-adv-x="530" 
d="M24 -94v84l188 314l-188 315v85h480v-120h-292l144 -280l-144 -279h292v-119h-480z" />
    <glyph glyph-name="minus" unicode="&#x2212;" horiz-adv-x="570" 
d="M24 294v116h522v-116h-522z" />
    <glyph glyph-name="radical" unicode="&#x221a;" horiz-adv-x="638" 
d="M202 0l-97 316h-87v144h239l63 -264l119 508h185l-187 -704h-235z" />
    <glyph glyph-name="infinity" unicode="&#x221e;" horiz-adv-x="924" 
d="M529 356q9 -15 20.5 -30t26.5 -26.5t34 -19t43 -7.5q27 0 46.5 7t32 19t19 27t6.5 31q0 33 -27 58t-77 25q-44 0 -72.5 -25t-51.5 -59zM396 366q-9 15 -21 30t-27 26.5t-33.5 19t-42.5 7.5q-27 0 -46.5 -7t-32.5 -19t-19.5 -27t-6.5 -31q0 -33 27 -58t78 -25q43 0 72 25
t52 59zM462 232q-24 -60 -76.5 -90t-119.5 -30q-52 0 -96 20.5t-76 55t-50 79.5t-18 93t18 93.5t50 80t76 55.5t96 21q32 0 62.5 -7t57 -22t46 -37.5t29.5 -53.5q24 60 77 90t120 30q52 0 96 -20.5t76 -55t50 -79.5t18 -93t-18 -93.5t-50 -80t-76 -55.5t-96 -21
q-32 0 -62.5 7t-57 21.5t-46.5 37t-30 54.5z" />
    <glyph glyph-name="integral" unicode="&#x222b;" horiz-adv-x="520" 
d="M44 -81q17 -11 34.5 -19.5t39.5 -8.5q34 0 45.5 19t11.5 45v575q0 55 17 91t46 57t67.5 29.5t82.5 8.5q24 0 52 -6.5t40 -20.5v-131q-17 11 -34.5 19.5t-39.5 8.5q-34 0 -45.5 -19t-11.5 -45v-575q0 -56 -17 -92t-46 -57t-68 -29t-83 -8q-12 0 -25.5 1.5t-26.5 5t-23 8.5
t-16 12v131z" />
    <glyph glyph-name="approxequal" unicode="&#x2248;" horiz-adv-x="570" 
d="M546 163q-29 -24 -57.5 -35.5t-63.5 -11.5q-38 0 -71.5 13.5t-65.5 29t-64 29t-68 13.5q-19 0 -54 -10.5t-78 -45.5v134q20 20 48.5 35.5t67.5 15.5q41 0 76 -13.5t67.5 -30t63 -30t63.5 -13.5q21 0 58 13.5t78 54.5v-148zM546 422q-29 -24 -57.5 -35.5t-63.5 -11.5
q-38 0 -71.5 13.5t-65.5 29t-64 29t-68 13.5q-19 0 -54 -10.5t-78 -45.5v134q20 20 48.5 35.5t67.5 15.5q41 0 76 -13.5t67.5 -30t63 -30t63.5 -13.5q21 0 58 13.5t78 54.5v-148z" />
    <glyph glyph-name="notequal" unicode="&#x2260;" horiz-adv-x="570" 
d="M409 421l-114 -138h251v-116h-347l-167 -203h-136l167 203h-39v116h134l114 138h-248v116h343l168 203h138l-168 -203h41v-116h-137z" />
    <glyph glyph-name="lessequal" unicode="&#x2264;" horiz-adv-x="570" 
d="M24 304v96l522 218v-133l-367 -133l367 -134v-131zM24 -65v116h522v-116h-522z" />
    <glyph glyph-name="greaterequal" unicode="&#x2265;" horiz-adv-x="570" 
d="M24 87v131l367 134l-367 133v133l522 -218v-96zM24 -65v116h522v-116h-522z" />
    <glyph glyph-name="lozenge" unicode="&#x25ca;" horiz-adv-x="544" 
d="M354 352l-77 162l-79 -162l79 -162zM195 0l-172 352l172 352h167l164 -352l-164 -352h-167z" />
    <glyph glyph-name="uniF8FF" unicode="&#xf8ff;" horiz-adv-x="209" 
 />
    <glyph glyph-name="brevetilde" horiz-adv-x="398" 
d="M353 842q-5 -21 -18 -43.5t-32.5 -40.5t-45.5 -29.5t-59 -11.5q-32 0 -59 11.5t-47 29.5t-32.5 40.5t-15.5 43.5l53 37q12 -45 39 -63.5t61 -18.5q35 0 61 18.5t41 63.5zM310 938q-5 -21 -22 -40t-43 -19q-15 0 -24.5 3t-18 7t-17.5 7t-22 3q-7 0 -13 -4.5t-11 -18.5
l-40 23q5 20 21.5 38.5t42.5 18.5q15 0 25.5 -3.5t19.5 -7t17.5 -7t19.5 -3.5q16 0 24 26z" />
    <glyph glyph-name="brevehook" horiz-adv-x="398" 
d="M152 828q0 42 38 42q14 0 14 11q0 10 -12 10h-59v70h89q60 0 60 -56t-61 -56q-16 0 -16 -21h-53zM98 879q15 -45 41 -63.5t61 -18.5q34 0 61 18.5t39 63.5l53 -37q-3 -21 -15.5 -43.5t-32.5 -40.5t-47 -29.5t-59 -11.5q-33 0 -59 11.5t-45.5 29.5t-32.5 40.5t-18 43.5z
" />
    <glyph glyph-name="circumflexacute" horiz-adv-x="584" 
d="M377 772l-34 43l149 91l47 -66zM44 803l112 103h58l112 -103l-36 -31l-106 68l-105 -68z" />
    <glyph glyph-name="nonmarkingreturn" horiz-adv-x="0" 
 />
    <glyph glyph-name="gravecircumflex" horiz-adv-x="584" 
d="M44 840l47 66l149 -91l-34 -43zM504 772l-105 68l-106 -68l-36 31l112 103h58l112 -103z" />
    <glyph glyph-name="brevegrave" horiz-adv-x="398" 
d="M116 901l40 60l124 -82l-28 -39zM98 879q15 -45 41 -63.5t61 -18.5q34 0 61 18.5t39 63.5l53 -37q-3 -21 -15.5 -43.5t-32.5 -40.5t-47 -29.5t-59 -11.5q-33 0 -59 11.5t-45.5 29.5t-32.5 40.5t-18 43.5z" />
    <glyph glyph-name=".null" horiz-adv-x="206" 
 />
    <glyph glyph-name="breveacute" horiz-adv-x="398" 
d="M145 840l-28 39l124 82l40 -60zM353 842q-5 -21 -18 -43.5t-32.5 -40.5t-45.5 -29.5t-59 -11.5q-32 0 -59 11.5t-47 29.5t-32.5 40.5t-15.5 43.5l53 37q12 -45 39 -63.5t61 -18.5q35 0 61 18.5t41 63.5z" />
    <glyph glyph-name="circumflexhook" horiz-adv-x="556" 
d="M360 766q0 55 44 55q17 0 17 15q0 13 -14 13h-69v92h103q70 0 70 -73q0 -74 -71 -74q-18 0 -18 -28h-62zM44 803l112 103h58l112 -103l-36 -31l-106 68l-105 -68z" />
    </font>
</defs>
</svg>
